<svg xmlns="http://www.w3.org/2000/svg" viewBox="0 0 120 120" fill="none">
  <rect width="120" height="120" rx="20" fill="#0369A1"/>
  <path d="M60 85c14 0 25-11 25-25s-11-25-25-25c-6 0-12 2-16 6l-3-3c5-5 12-7 19-7 16 0 29 13 29 29s-13 29-29 29c-10 0-19-5-25-13l3-4c5 7 13 11 22 11z" fill="#BAE6FD" opacity="0.9"/>
  <path d="M35 60c0-10 5-18 13-24l3 4c-7 5-11 13-11 21 0 7 3 14 8 19l-3 3c-6-6-10-14-10-23z" fill="#38BDF8"/>
  <path d="M48 72c4 3 8 5 12 5 8 0 14-6 14-14 0-5-3-10-7-13l3-3c5 4 8 10 8 16 0 10-8 18-18 18-5 0-10-2-14-5l2-4z" fill="#0EA5E9"/>
  <text x="60" y="103" text-anchor="middle" fill="#FFF" font-size="7" font-weight="700" font-family="Inter,sans-serif">BLUE OCEAN</text>
  <text x="60" y="114" text-anchor="middle" fill="#7DD3FC" font-size="5.5" font-weight="500" font-family="Inter,sans-serif">DIVE CENTER</text>
</svg>