<svg xmlns="http://www.w3.org/2000/svg" viewBox="0 0 120 120" fill="none">
  <rect width="120" height="120" rx="20" fill="#059669"/>
  <path d="M60 30c-12 0-22 10-22 22 0 12 22 38 22 38s22-26 22-38c0-12-10-22-22-22z" fill="#A7F3D0"/>
  <path d="M60 38c-8 0-14 6-14 14 0 8 14 24 14 24s14-16 14-24c0-8-6-14-14-14z" fill="#34D399"/>
  <circle cx="60" cy="52" r="5" fill="#FFF"/>
  <rect x="55" y="42" width="10" height="3" rx="1.5" fill="#059669"/>
  <text x="60" y="97" text-anchor="middle" fill="#FFF" font-size="8" font-weight="700" font-family="Inter,sans-serif">CASA VERDE</text>
  <text x="60" y="108" text-anchor="middle" fill="#6EE7B7" font-size="6" font-weight="500" font-family="Inter,sans-serif">CAFÉ • SÃO PAULO</text>
</svg>