<svg xmlns="http://www.w3.org/2000/svg" viewBox="0 0 120 120" fill="none">
  <rect width="120" height="120" rx="20" fill="#0D9488"/>
  <path d="M40 70c0-12 5-23 13-30l3 2c-7 6-11 16-11 27 0 4 0 7 2 11l-4 2c-2-4-3-8-3-12z" fill="#CCFBF1"/>
  <path d="M75 82c8-8 13-19 13-30 0-4-1-8-3-12l4-2c2 4 3 8 3 12 0 14-6 26-16 34l-3-2c1-1 2-1 2-2 0-1 0-1 0 0z" fill="#99F6E4"/>
  <path d="M52 76c-1-5-2-10-2-15 0-12 5-23 13-30l2 2c-7 6-11 16-11 27 0 5 1 9 3 13l-5 3z" fill="#5EEAD4"/>
  <path d="M68 80c5-6 9-14 9-22 0-8-3-15-8-21l3-2c6 7 10 16 10 25 0 11-5 21-12 28l-2-2v-2c0-2 0-4 0-4z" fill="#2DD4BF"/>
  <text x="60" y="103" text-anchor="middle" fill="#FFF" font-size="7" font-weight="700" font-family="Inter,sans-serif">COASTAL</text>
  <text x="60" y="114" text-anchor="middle" fill="#99F6E4" font-size="6" font-weight="500" font-family="Inter,sans-serif">CRAFTS CO.</text>
</svg>