<svg xmlns="http://www.w3.org/2000/svg" viewBox="0 0 200 200">
  <defs>
    <linearGradient id="cc1" x1="0%" y1="0%" x2="100%" y2="100%">
      <stop offset="0%" stop-color="#00897B"/>
      <stop offset="100%" stop-color="#00695C"/>
    </linearGradient>
    <linearGradient id="cc2" x1="0%" y1="0%" x2="0%" y2="100%">
      <stop offset="0%" stop-color="#F4A261"/>
      <stop offset="100%" stop-color="#E07A3A"/>
    </linearGradient>
    <filter id="cc-shadow">
      <feDropShadow dx="0" dy="3" stdDeviation="4" flood-color="#004D40" flood-opacity="0.3"/>
    </filter>
  </defs>
  <rect x="20" y="20" width="160" height="160" rx="36" fill="url(#cc1)"/>
  <!-- Wave -->
  <path d="M30 110 Q55 80 80 110 Q105 140 130 110 Q155 80 170 110 L170 160 L30 160 Z" fill="#E0F2F1" opacity="0.9" filter="url(#cc-shadow)"/>
  <!-- Hand/craft element - woven pattern -->
  <path d="M60 72 L80 95 M80 72 L60 95" stroke="#F4A261" stroke-width="3.5" stroke-linecap="round" opacity="0.9"/>
  <path d="M96 72 L116 95 M116 72 L96 95" stroke="#F4A261" stroke-width="3.5" stroke-linecap="round" opacity="0.9"/>
  <path d="M78 62 L98 85 M98 62 L78 85" stroke="#E0F2F1" stroke-width="3" stroke-linecap="round" opacity="0.7"/>
  <path d="M102 62 L122 85 M122 62 L102 85" stroke="#E0F2F1" stroke-width="3" stroke-linecap="round" opacity="0.7"/>
  <!-- Sun circle -->
  <circle cx="145" cy="55" r="18" fill="url(#cc2)" filter="url(#cc-shadow)"/>
</svg>