<svg xmlns="http://www.w3.org/2000/svg" viewBox="0 0 200 200">
  <defs>
    <linearGradient id="gg1" x1="0%" y1="0%" x2="100%" y2="100%">
      <stop offset="0%" stop-color="#F06292"/>
      <stop offset="100%" stop-color="#AD1457"/>
    </linearGradient>
    <linearGradient id="gg2" x1="0%" y1="0%" x2="100%" y2="100%">
      <stop offset="0%" stop-color="#FFD700"/>
      <stop offset="100%" stop-color="#C5A200"/>
    </linearGradient>
    <filter id="gg-glow">
      <feDropShadow dx="0" dy="2" stdDeviation="5" flood-color="#FFD700" flood-opacity="0.4"/>
    </filter>
  </defs>
  <rect x="20" y="20" width="160" height="160" rx="40" fill="url(#gg1)"/>
  <!-- Crown base -->
  <polygon points="44,110 56,60 76,86 100,52 124,86 144,60 156,110" fill="url(#gg2)" filter="url(#gg-glow)"/>
  <rect x="52" y="110" width="96" height="18" rx="4" fill="url(#gg2)"/>
  <!-- Crown jewels -->
  <circle cx="76" cy="82" r="4" fill="#E91E63"/>
  <circle cx="100" cy="52" r="5" fill="#E91E63"/>
  <circle cx="124" cy="82" r="4" fill="#E91E63"/>
  <!-- Star accents -->
  <polygon points="100,126 103,134 112,134 105,139 108,148 100,143 92,148 95,139 88,134 97,134" fill="#FFF" opacity="0.9"/>
  <!-- Small stars -->
  <polygon points="56,132 57,135 60,135 58,137 59,140 56,138 53,140 54,137 52,135 55,135" fill="#FFF" opacity="0.5"/>
  <polygon points="144,132 145,135 148,135 146,137 147,140 144,138 141,140 142,137 140,135 143,135" fill="#FFF" opacity="0.5"/>
</svg>