<svg xmlns="http://www.w3.org/2000/svg" viewBox="0 0 200 200">
  <defs>
    <linearGradient id="gl1" x1="0%" y1="0%" x2="100%" y2="100%">
      <stop offset="0%" stop-color="#1B8A3B"/>
      <stop offset="100%" stop-color="#0D6B28"/>
    </linearGradient>
    <linearGradient id="gl2" x1="0%" y1="0%" x2="100%" y2="100%">
      <stop offset="0%" stop-color="#2ECC71"/>
      <stop offset="100%" stop-color="#1B8A3B"/>
    </linearGradient>
    <filter id="gl-shadow">
      <feDropShadow dx="0" dy="3" stdDeviation="4" flood-color="#064A1A" flood-opacity="0.35"/>
    </filter>
  </defs>
  <rect x="20" y="20" width="160" height="160" rx="40" fill="url(#gl1)"/>
  <!-- Leaf shape -->
  <path d="M100 42 Q136 60 148 96 Q136 132 100 158 Q64 132 52 96 Q64 60 100 42 Z" fill="url(#gl2)" opacity="0.95" filter="url(#gl-shadow)"/>
  <!-- Leaf vein -->
  <path d="M100 50 L100 150" stroke="#A8E6CF" stroke-width="2.5" stroke-linecap="round" opacity="0.6"/>
  <path d="M100 70 Q120 80 130 90" fill="none" stroke="#A8E6CF" stroke-width="2" stroke-linecap="round" opacity="0.4"/>
  <path d="M100 70 Q80 80 70 90" fill="none" stroke="#A8E6CF" stroke-width="2" stroke-linecap="round" opacity="0.4"/>
  <path d="M100 110 Q120 120 132 112" fill="none" stroke="#A8E6CF" stroke-width="2" stroke-linecap="round" opacity="0.4"/>
  <path d="M100 110 Q80 120 68 112" fill="none" stroke="#A8E6CF" stroke-width="2" stroke-linecap="round" opacity="0.4"/>
  <!-- Small circle accent -->
  <circle cx="100" cy="100" r="4" fill="#A8E6CF" opacity="0.8"/>
</svg>