<svg xmlns="http://www.w3.org/2000/svg" viewBox="0 0 256 256"><path d="M230.72 172.7a17.6 17.6 0 0 0-2.57-5.69c.25-.92.44-1.85.57-2.78.83-5.98-1.24-11.45-5.15-15.68-2.11-2.31-4.38-3.84-6.78-4.78 1.58-6.74 2.37-13.64 2.38-20.57 0-3.16-.18-6.26-.48-9.31a125 125 0 0 0-2.57-17.76 117 117 0 0 0-3.05-11.21c-.88-2.84-1.9-5.63-3.05-8.37a135 135 0 0 0-6.04-11.76 136 136 0 0 0-4.91-7.26c-.87-1.18-1.77-2.33-2.7-3.45a126 126 0 0 0-9.03-9.48c-1.08-.99-2.18-1.95-3.32-2.87a118 118 0 0 0-3.42-2.7c-2.35-1.75-4.77-3.39-7.26-4.91C161.54 36.95 145.38 32.15 128.1 32.15c-50.29 0-91.05 40.76-91.05 91.05 0 7.01.81 14 2.42 20.82-2.16.94-4.23 2.4-6.15 4.52-3.9 4.23-5.98 9.68-5.15 15.66.13.95.32 1.89.57 2.81a17.4 17.4 0 0 0-2.57 5.69c-1.2 4.56-.8 8.67.72 12.28-1.66 4.71-1.25 9.72.91 14.08 1.57 3.19 3.82 5.65 6.59 7.85 3.29 2.62 7.41 4.84 12.39 6.97 5.93 2.53 13.17 4.91 16.47 5.78 8.5 2.2 16.66 3.6 24.93 3.67 11.77.1 21.91-2.66 29.17-9.75 3.57.44 7.16.66 10.75.66 3.8-.01 7.59-.24 11.36-.71 7.24 7.13 17.42 9.93 29.25 9.81 8.26-.07 16.42-1.46 24.9-3.67 3.32-.87 10.56-3.25 16.5-5.78 4.97-2.14 9.09-4.36 12.4-6.97 2.75-2.2 5-4.66 6.56-7.85 2.18-4.36 2.57-9.36.94-14.09 1.5-3.6 1.9-7.72.7-12.28z" fill="#32343D"/><path d="M44.06 156.77c4.9-6.86 13.4-9.96 24.8-9.96 11.42 0 19.93 3.1 24.85 9.96 4.45 6.2 5.35 13.76 2.53 20.35" fill="none" stroke="#FF9D00" stroke-width="4" stroke-linecap="round"/><path d="M84.47 167.16c2.82-6.59 1.92-14.15-2.53-20.35" fill="none" stroke="#FF9D00" stroke-width="4" stroke-linecap="round"/><path d="M127.56 94.26c-1.18.42-2.11 1.69-2.95 2.88-1.13 1.63-2.18 3.16-3.83 2.35-1.9-1.01-3.47-2.57-4.49-4.46-1.02-1.9-1.43-4.05-1.23-6.2.15-1.6.66-3.15 1.49-4.54s1.99-2.57 3.33-3.47c1.34-.9 2.86-1.49 4.45-1.73s3.17-.07 4.65.38c1.5.47 2.87 1.25 4.07 2.31 1.2 1.07 2.14 2.4 2.83 3.89.62 1.49.95 3.1 1.01 4.72.08 1.61-.17 3.24-.67 4.77-.5 1.53-1.27 2.93-2.28 4.12-1 .1-1.98.05-2.93-.15-1.37-.55-2.78-1.13-3.87-.73z" fill="#32343D"/><path d="M86.58 94.26c-1.18.42-2.11 1.69-2.95 2.88-1.13 1.63-2.18 3.16-3.84 2.35-1.9-1.01-3.46-2.57-4.48-4.46-1.02-1.9-1.43-4.05-1.24-6.2.16-1.6.67-3.15 1.5-4.54.83-1.4 1.98-2.57 3.33-3.47s2.86-1.49 4.44-1.73c1.59-.24 3.18-.07 4.66.38 1.5.47 2.87 1.25 4.07 2.31 1.2 1.07 2.14 2.4 2.83 3.89.62 1.49.95 3.1 1.01 4.72.07 1.61-.18 3.24-.68 4.77-.5 1.53-1.27 2.93-2.27 4.12-1 .1-1.99.05-2.94-.15-1.37-.55-2.78-1.13-3.87-.73z" fill="#32343D"/><path d="M155.24 107.95c-5.35-2.84-11.94-3.85-18.98-2.79-4.74.72-9.26 2.34-13.28 4.76-3.57-2.23-7.81-3.7-12.28-4.29-7.26-.95-14.07.16-19.55 3.15" fill="none" stroke="#32343D" stroke-width="3" stroke-linecap="round"/><ellipse cx="128.1" cy="125.98" rx="24.78" ry="13.19" fill="#FFD21E"/><path d="M152.55 124.34c-3.8 5.05-11.38 8.44-24.46 8.44-13.07 0-20.65-3.39-24.45-8.44" fill="none" stroke="#32343D" stroke-width="2.5" stroke-linecap="round"/></svg>