<svg xmlns="http://www.w3.org/2000/svg" viewBox="0 0 512 128"><path fill="#222326" d="M4.09 51.29 76.67 123.88c1.06 1.06.55 2.86-.92 3.13a64.16 64.16 0 0 1-7.51.95 1.9 1.9 0 0 1-1.46-.55L.56 61.18a1.9 1.9 0 0 1-.55-1.46c.17-2.55.49-5.05.95-7.51.27-1.47 2.07-1.98 3.13-.92M2.04 80.68c-.48-1.81 1.65-2.95 2.97-1.62l43.9 43.89c1.32 1.32.18 3.46-1.63 2.97-22-5.9-39.34-23.23-45.24-45.24m6.36-48.61c.62-1.07 2.07-1.23 2.95-.36l84.9 84.9c.87.87.7 2.33-.36 2.95a64.82 64.82 0 0 1-5.55 2.85 1.88 1.88 0 0 1-2.11-.39L5.95 39.73a1.88 1.88 0 0 1-.4-2.11 64.82 64.82 0 0 1 2.85-5.55M63.91 0C99.29 0 128 28.68 128 64.05c0 18.78-8.08 35.67-20.96 47.39-.74.68-1.88.63-2.59-.08L16.6 23.55a1.88 1.88 0 0 1-.08-2.59C28.24 8.08 45.13 0 63.91 0m194.14 35.25c4.59 0 8.31-3.74 8.31-8.34s-3.72-8.35-8.31-8.35-8.31 3.74-8.31 8.35 3.56 8.18 8.01 8.34zm-71.2 72.76V18.57h14.77v76.35h39.83v13.09zM292 71.52v36.49h-14.77V44.62h14.12v10.87l.18-.12q2.15-5.1 6.94-8.53t12.2-3.48q6.58 0 11.96 2.94t8.61 8.46q3.23 5.59 3.23 13.69v39.56h-14.3V70.43q0-7.2-3.83-10.93-3.76-3.78-10.1-3.78-4.07 0-7.42 1.68t-5.32 5.16q-1.97 3.48-1.97 8.95m147.6-28.15q5.98 0 10.77 1.56t8.13 4.32q3.41 2.82 5.2 6.66 1.8 3.84 1.8 8.47v43.64h-13.7v-8.95h-.24q-1.43 2.7-3.89 4.98-2.39 2.28-6.1 3.66-3.7 1.32-8.9 1.32-6.34 0-11.25-2.1-4.9-2.16-7.77-6.36-2.87-4.26-2.87-10.57 0-5.46 2.03-8.94a15.7 15.7 0 0 1 5.5-5.58q3.53-2.1 8.02-3.19 4.48-1.08 9.33-1.62l2.64-.3q4.08-.48 6.69-.84 3.47-.48 4.9-1.5 1.5-1.02 1.5-3.18v-.48q0-2.88-1.44-5.04-1.44-2.16-4.13-3.42-2.63-1.26-6.4-1.26t-6.64 1.26q-2.87 1.2-4.54 3.36a9.16 9.16 0 0 0-1.91 4.92h-13.82q.3-5.88 3.65-10.57 3.35-4.68 9.27-7.44 5.98-2.82 14.18-2.82m11.84 34.04q-.58.42-1.78.8l-.31.1q-1.38.42-3.35.84l-4.25.78q-2.27.36-4.66.72-3.29.42-6.1 1.5t-4.55 2.94q-1.67 1.86-1.67 4.86 0 3.84 3.05 6.07 3.05 2.16 8.2 2.16 5.08 0 8.55-1.86 3.47-1.92 5.14-4.98 1.74-3.12 1.74-6.85zm26.53 30.62V44.62h13.76v10.44h.18q1.73-5.4 5.44-8.22 3.77-2.88 9.87-2.88 1.5 0 2.69.12l1.49.08q.33.02.6.04v12.9l-.32-.04a68.63 68.63 0 0 0-2.43-.26 45.26 45.26 0 0 0-4.19-.18q-3.53 0-6.46 1.62t-4.66 4.98q-1.68 3.3-1.68 8.35v36.44H478V44.62h14.3v63.39zm-227.1 0V44.62h14.3v63.39zM374.38 43.18q6.76 0 12.26 2.4 5.56 2.4 9.51 6.84 3.95 4.38 6.1 10.45 2.15 6 2.15 13.33v3.84h-45.97q.16 4.96 1.96 8.88 1.97 4.26 5.74 6.67 3.83 2.4 9.15 2.4 3.95 0 6.94-1.2t4.96-3.3a12.9 12.9 0 0 0 2.93-4.98h13.46q-1.2 6.18-5.2 10.93-4.01 4.68-10.05 7.38-5.98 2.64-13.28 2.64-9.45 0-16.33-4.26-6.88-4.26-10.58-11.7-3.71-7.5-3.71-17.11 0-9.67 3.83-17.17t10.58-11.71q6.76-4.26 15.55-4.26m.18 11.53q-4.9 0-8.55 2.22-3.59 2.22-5.62 6.3-1.45 2.96-1.84 6.73h32.08q-.38-3.77-1.84-6.73-1.97-4.08-5.62-6.3-3.65-2.22-8.61-2.22"/></svg>