<svg xmlns="http://www.w3.org/2000/svg" viewBox="0 0 120 120" fill="none">
  <rect width="120" height="120" rx="20" fill="#92400E"/>
  <path d="M60 25c-5 0-10 2-14 6-2 2-4 5-5 9l-6-2c2-5 5-10 9-13 5-4 11-5 16-3 5 2 9 7 11 13l-6 2c-1-3-3-6-6-8-3-2-6-3-9-3-4 0-8 2-11 5l-3-4c4-4 9-7 14-8-4-1-8 0-12 3z" fill="#FDE68A"/>
  <path d="M60 70c10 0 18-8 18-18s-8-18-18-18-18 8-18 18 8 18 18 18z" fill="#F59E0B"/>
  <circle cx="52" cy="55" r="3" fill="#78350F"/>
  <circle cx="68" cy="55" r="3" fill="#78350F"/>
  <path d="M55 63c0 0 2 2 5 2s5-2 5-2" stroke="#78350F" stroke-width="1.5" stroke-linecap="round" fill="none"/>
  <text x="60" y="98" text-anchor="middle" fill="#FFF" font-size="7" font-weight="700" font-family="Inter,sans-serif">LION'S PRIDE</text>
  <text x="60" y="109" text-anchor="middle" fill="#FBBF24" font-size="5.5" font-weight="500" font-family="Inter,sans-serif">PUB & GRILL</text>
</svg>