<svg xmlns="http://www.w3.org/2000/svg" viewBox="0 0 120 120" fill="none">
  <rect width="120" height="120" rx="20" fill="#E85D2C"/>
  <path d="M60 25c-4 0-8 3-12 9-3 5-5 12-5 21s2 16 5 21c4 6 8 9 12 9s8-3 12-9c3-5 5-12 5-21s-2-16-5-21c-4-6-8-9-12-9z" fill="#FFF3E0"/>
  <path d="M50 42c0 0 4-3 10-3s10 3 10 3" stroke="#E85D2C" stroke-width="2.5" stroke-linecap="round"/>
  <path d="M48 52c2-1 6-2 12-2s10 1 12 2" stroke="#E85D2C" stroke-width="2" stroke-linecap="round"/>
  <path d="M50 62c3-1 7-2 10-2s7 1 10 2" stroke="#E85D2C" stroke-width="2" stroke-linecap="round"/>
  <text x="60" y="95" text-anchor="middle" fill="#FFF" font-size="9" font-weight="700" font-family="Inter,sans-serif">Moubani's</text>
  <text x="60" y="107" text-anchor="middle" fill="#FFCC80" font-size="7" font-weight="500" font-family="Inter,sans-serif">KITCHEN</text>
</svg>