<svg xmlns="http://www.w3.org/2000/svg" viewBox="0 0 200 200">
  <defs>
    <linearGradient id="mk1" x1="0%" y1="0%" x2="100%" y2="100%">
      <stop offset="0%" stop-color="#FF6B35"/>
      <stop offset="100%" stop-color="#E63946"/>
    </linearGradient>
    <linearGradient id="mk2" x1="0%" y1="0%" x2="0%" y2="100%">
      <stop offset="0%" stop-color="#F4A261" stop-opacity="0.3"/>
      <stop offset="100%" stop-color="#E63946" stop-opacity="0"/>
    </linearGradient>
    <filter id="mk-shadow">
      <feDropShadow dx="0" dy="2" stdDeviation="3" flood-color="#E63946" flood-opacity="0.3"/>
    </filter>
  </defs>
  <rect x="20" y="20" width="160" height="160" rx="36" fill="url(#mk1)"/>
  <rect x="24" y="24" width="152" height="152" rx="32" fill="url(#mk2)"/>
  <!-- Chef hat -->
  <ellipse cx="100" cy="95" rx="32" ry="8" fill="#FFF3E0" opacity="0.95"/>
  <rect x="68" y="60" width="64" height="35" rx="10" fill="#FFF3E0"/>
  <rect x="72" y="50" width="12" height="18" rx="6" fill="#FFF3E0"/>
  <rect x="90" y="46" width="12" height="22" rx="6" fill="#FFF3E0"/>
  <rect x="108" y="46" width="12" height="22" rx="6" fill="#FFF3E0"/>
  <rect x="126" y="50" width="12" height="18" rx="6" fill="#FFF3E0"/>
  <!-- Utensils -->
  <line x1="80" y1="103" x2="80" y2="130" stroke="#FFD166" stroke-width="3" stroke-linecap="round"/>
  <line x1="120" y1="103" x2="120" y2="130" stroke="#FFD166" stroke-width="3" stroke-linecap="round"/>
  <circle cx="80" cy="133" r="4" fill="#FFD166"/>
  <circle cx="120" cy="133" r="4" fill="#FFD166"/>
</svg>