<svg xmlns="http://www.w3.org/2000/svg" viewBox="0 0 120 120" fill="none">
  <rect width="120" height="120" rx="20" fill="#B45309"/>
  <path d="M60 30c-3 0-6 1-9 4-3 3-6 8-8 15-2 7-2 13 0 17l2-1c-1-4-1-10 1-16 2-7 5-12 8-14 3-2 6-3 9-3s6 1 9 3c3 2 6 7 8 14 2 6 2 12 1 16l2 1c2-4 2-10 0-17-2-7-5-12-8-15-3-3-6-4-9-4z" fill="#FDE68A"/>
  <path d="M40 60c0 0 8-12 20-12s20 12 20 12" stroke="#F59E0B" stroke-width="3" fill="none" stroke-linecap="round"/>
  <path d="M35 68c0 0 10-14 25-14s25 14 25 14" stroke="#D97706" stroke-width="2.5" fill="none" stroke-linecap="round"/>
  <path d="M60 52l-3 8h6l-3-8z" fill="#F59E0B"/>
  <text x="60" y="98" text-anchor="middle" fill="#FFF" font-size="7" font-weight="700" font-family="Inter,sans-serif">OUTBACK</text>
  <text x="60" y="109" text-anchor="middle" fill="#FCD34D" font-size="5.5" font-weight="500" font-family="Inter,sans-serif">ADVENTURES</text>
</svg>