<svg xmlns="http://www.w3.org/2000/svg" version="1.1" viewBox="465 895 1153.85 293"><path d="M 1080.227 996.250 L 1080.500 1097.500 1083.090 1103 C 1086.732 1110.733, 1090.213 1114.466, 1096.796 1117.699 C 1102.364 1120.433, 1102.970 1120.508, 1122.250 1120.840 L 1142 1121.181 1142 1104.590 L 1142 1088 1129.500 1088 L 1117 1088 1117 991.500 L 1117 895 1098.477 895 L 1079.954 895 1080.227 996.250 M 1326.461 896.250 C 1326.199 896.938, 1326.101 947.675, 1326.243 1009 L 1326.500 1120.500 1362.500 1120.788 C 1401.070 1121.097, 1409.086 1120.525, 1421.542 1116.575 C 1433.218 1112.872, 1441.294 1107.737, 1451.655 1097.425 C 1459.694 1089.426, 1461.425 1087.046, 1465.851 1077.907 C 1473.519 1062.073, 1474.471 1057.563, 1474.487 1037 C 1474.498 1021.774, 1474.207 1018.488, 1472.242 1011.709 C 1464.544 985.150, 1445.700 965.923, 1421 959.423 C 1405.671 955.389, 1384.453 957.909, 1370.251 965.450 L 1364 968.769 1364 931.885 L 1364 895 1345.469 895 C 1331.564 895, 1326.818 895.312, 1326.461 896.250 M 650 910.500 L 636.528 924 655.264 924 L 674 924 674 942.500 L 674 961 655.500 961 L 637 961 637 1041 L 637 1121 656 1121 L 675 1121 675 1040.736 L 675 960.471 688 947.500 L 701 934.529 701 915.764 L 701 897 682.236 897 L 663.472 897 650 910.500 M 768.539 958.072 C 759.646 959.428, 752.232 961.783, 745.250 965.469 L 739 968.769 739 964.885 L 739 961 720 961 L 701 961 701 1041 L 701 1121 720 1121 L 739 1121 739 1061.478 L 739 1001.956 743.750 998.936 C 750.883 994.402, 761.094 991.580, 770.521 991.537 C 777.613 991.504, 779.317 991.882, 785.235 994.795 C 792.903 998.570, 797.040 1003.029, 800.269 1011 C 802.459 1016.407, 802.502 1017.380, 802.798 1068.750 L 803.099 1121 821.550 1121 L 840 1121 840 1064.947 C 840 1003.155, 839.821 1000.958, 833.738 988 C 827.843 975.443, 812.267 963.735, 796 959.633 C 788.376 957.711, 775.650 956.987, 768.539 958.072 M 925.539 958.050 C 899.748 962.077, 878.363 977.894, 867.029 1001.327 C 860.964 1013.868, 858.656 1024.816, 858.666 1041 C 858.675 1055.487, 859.991 1063.066, 864.619 1075.264 C 870.154 1089.851, 884.090 1106.118, 898.042 1114.276 C 909.020 1120.694, 918.523 1123.231, 933.500 1123.744 C 949.146 1124.280, 956.507 1122.845, 969 1116.824 C 981.048 1111.017, 992.981 1099.071, 998.790 1087 C 1001.040 1082.325, 1003.163 1077.487, 1003.508 1076.250 L 1004.135 1074 987.258 1074 L 970.381 1074 965.839 1079.261 C 952.448 1094.772, 926.986 1095.980, 911.513 1081.837 C 905.248 1076.112, 899.633 1065.762, 898.173 1057.250 L 897.273 1052 953.575 1052 L 1009.877 1052 1010.582 1047.305 C 1011.871 1038.709, 1010.320 1020.248, 1007.494 1010.537 C 1003.462 996.682, 998.846 988.791, 989.028 978.963 C 979.237 969.162, 969.011 963.200, 956.509 960.002 C 947.328 957.654, 933.612 956.790, 925.539 958.050 M 1214.477 957.941 C 1197.616 960.576, 1184.722 967.185, 1172.495 979.460 C 1154.421 997.605, 1145.876 1020.208, 1147.342 1046 C 1149.031 1075.711, 1163.202 1099.917, 1187.294 1114.241 C 1199.032 1121.219, 1205.855 1123.232, 1219.577 1123.763 C 1233.664 1124.308, 1243.520 1122.339, 1255.750 1116.538 L 1263 1113.099 1263 1117.049 L 1263 1121 1282 1121 L 1301 1121 1301 1041 L 1301 961 1282 961 L 1263 961 1263 964.884 L 1263 968.768 1255.369 964.934 C 1243.630 959.037, 1226.362 956.084, 1214.477 957.941 M 1542 958.090 C 1526.195 960.125, 1511.902 966.866, 1503.165 976.407 C 1494.098 986.306, 1489.607 1002.219, 1491.897 1016.330 C 1495.578 1039.019, 1510.624 1049.486, 1550.500 1057.097 C 1559.300 1058.777, 1568.851 1061.212, 1571.724 1062.508 C 1582.034 1067.160, 1584.004 1077.121, 1576.227 1085.274 C 1572.507 1089.172, 1565.384 1091, 1553.906 1091 C 1537.320 1091, 1520.808 1086.746, 1505.137 1078.435 C 1500.538 1075.996, 1496.600 1074, 1496.387 1074 C 1496.174 1074, 1496 1082.317, 1496 1092.483 L 1496 1110.966 1500.750 1113.367 C 1507.933 1116.996, 1521.120 1120.873, 1532.313 1122.646 C 1546.604 1124.910, 1569.828 1124.116, 1579.500 1121.033 C 1602.057 1113.845, 1615.012 1099.987, 1618.168 1079.669 C 1620.592 1064.059, 1616.458 1049.942, 1606.769 1040.744 C 1597.964 1032.384, 1585.997 1027.801, 1559.031 1022.461 C 1549.390 1020.551, 1539.531 1017.992, 1537.031 1016.750 C 1528.841 1012.683, 1526.847 1003.900, 1532.569 997.100 C 1541.463 986.530, 1575.083 988.988, 1601.228 1002.119 C 1605.478 1004.253, 1609.191 1006, 1609.478 1006 C 1609.765 1006, 1610 997.876, 1610 987.947 L 1610 969.895 1603.671 966.933 C 1595.310 963.021, 1580.462 959.327, 1567.924 958.040 C 1556.523 956.870, 1551.401 956.880, 1542 958.090 M 465 1074.434 L 465 1188 484 1188 L 503 1188 503 1150.417 C 503 1129.746, 503.337 1113.007, 503.750 1113.219 C 519.769 1121.446, 529.253 1124, 543.787 1124 C 587.819 1124, 619.620 1086.250, 616.656 1037.500 C 614.423 1000.777, 593.855 974.119, 559.815 963.832 C 552.846 961.727, 550.428 961.604, 508.750 961.245 L 465 960.868 465 1074.434 M 925.929 991.367 C 912.941 994.870, 901.029 1007.604, 898.387 1020.813 L 897.750 1024 936.454 1024 L 975.159 1024 974.488 1020.750 C 972.499 1011.107, 964.917 1000.486, 956.504 995.555 C 947.812 990.462, 935.529 988.779, 925.929 991.367 M 1223.176 992.070 C 1207.942 995.068, 1196.914 1005.605, 1191.851 1022 C 1188.651 1032.364, 1188.611 1049.315, 1191.761 1059.542 C 1197.484 1078.116, 1210.236 1088.612, 1228.458 1089.749 C 1238.775 1090.393, 1245.133 1088.972, 1255.262 1083.759 L 1263.023 1079.765 1262.762 1040.633 L 1262.500 1001.500 1255.239 997.695 C 1244.297 991.962, 1233.421 990.054, 1223.176 992.070 M 1385.500 992.494 C 1378.536 994.044, 1373.326 996.138, 1367.878 999.577 L 1364 1002.025 1364 1045.013 L 1364 1088 1380.951 1088 C 1390.274 1088, 1400.286 1087.501, 1403.201 1086.891 C 1414.801 1084.464, 1426.049 1075.757, 1431.513 1064.974 C 1436.826 1054.489, 1438.793 1036.759, 1435.971 1024.790 C 1431.912 1007.572, 1419.451 994.997, 1403.566 992.087 C 1396.188 990.735, 1393.090 990.805, 1385.500 992.494 M 503 1036.458 L 503 1078.916 507.630 1081.629 C 542.445 1102.032, 578 1081.756, 578 1041.500 C 578 1026.232, 573.342 1014.309, 563.996 1005.657 C 554.091 996.486, 544.529 994.054, 518.250 994.020 L 503 994 503 1036.458" stroke="none" fill="#083424" fill-rule="evenodd"/></svg>