<svg xmlns="http://www.w3.org/2000/svg" viewBox="0 0 200 200">
  <defs>
    <linearGradient id="ph1" x1="0%" y1="0%" x2="100%" y2="100%">
      <stop offset="0%" stop-color="#D32F2F"/>
      <stop offset="100%" stop-color="#9E0000"/>
    </linearGradient>
    <linearGradient id="ph2" x1="0%" y1="0%" x2="100%" y2="100%">
      <stop offset="0%" stop-color="#FF6F00"/>
      <stop offset="100%" stop-color="#E65100"/>
    </linearGradient>
    <filter id="ph-glow">
      <feDropShadow dx="0" dy="2" stdDeviation="6" flood-color="#FF6F00" flood-opacity="0.4"/>
    </filter>
  </defs>
  <rect x="20" y="20" width="160" height="160" rx="32" fill="url(#ph1)"/>
  <!-- Shield -->
  <path d="M100 32 L150 52 L150 102 Q150 138 100 168 Q50 138 50 102 L50 52 Z" fill="#FFEBEE" opacity="0.95" filter="url(#ph-glow)"/>
  <!-- Shield border -->
  <path d="M100 36 L146 54 L146 102 Q146 135 100 163 Q54 135 54 102 L54 54 Z" fill="none" stroke="#D32F2F" stroke-width="2" opacity="0.3"/>
  <!-- Flame inside -->
  <path d="M100 62 Q114 80 112 96 Q110 110 100 120 Q90 110 88 96 Q86 80 100 62 Z" fill="url(#ph2)" opacity="0.95"/>
  <path d="M100 72 Q108 84 106 94 Q104 104 100 110 Q96 104 94 94 Q92 84 100 72 Z" fill="#FFD54F" opacity="0.8"/>
  <!-- Lightning bolt -->
  <polygon points="100,66 92,100 98,100 94,120 108,86 102,86 106,66" fill="#FFD54F" opacity="0.9"/>
</svg>