<svg xmlns="http://www.w3.org/2000/svg" viewBox="0 0 200 200">
  <defs>
    <linearGradient id="pd1" x1="0%" y1="0%" x2="100%" y2="100%">
      <stop offset="0%" stop-color="#0288D1"/>
      <stop offset="100%" stop-color="#01579B"/>
    </linearGradient>
    <linearGradient id="pd2" x1="0%" y1="0%" x2="100%" y2="100%">
      <stop offset="0%" stop-color="#4FC3F7"/>
      <stop offset="100%" stop-color="#0288D1"/>
    </linearGradient>
    <filter id="pd-shadow">
      <feDropShadow dx="0" dy="2" stdDeviation="4" flood-color="#003562" flood-opacity="0.3"/>
    </filter>
  </defs>
  <rect x="20" y="20" width="160" height="160" rx="36" fill="url(#pd1)"/>
  <!-- Tooth shape -->
  <path d="M100 42 Q120 48 128 72 Q132 88 130 104 Q126 124 116 138 Q108 148 100 150 Q92 148 84 138 Q74 124 70 104 Q68 88 72 72 Q80 48 100 42 Z" fill="#E1F5FE" opacity="0.95" filter="url(#pd-shadow)"/>
  <!-- Tooth shine line -->
  <path d="M92 62 Q96 60 100 62" fill="none" stroke="#4FC3F7" stroke-width="2" stroke-linecap="round" opacity="0.6"/>
  <!-- Dental cross inside -->
  <line x1="100" y1="82" x2="100" y2="118" stroke="#0288D1" stroke-width="4" stroke-linecap="round"/>
  <line x1="84" y1="100" x2="116" y2="100" stroke="#0288D1" stroke-width="4" stroke-linecap="round"/>
</svg>