<svg xmlns="http://www.w3.org/2000/svg" viewBox="0 0 200 200">
  <defs>
    <linearGradient id="qf1" x1="0%" y1="0%" x2="100%" y2="100%">
      <stop offset="0%" stop-color="#1565C0"/>
      <stop offset="100%" stop-color="#0D47A1"/>
    </linearGradient>
    <linearGradient id="qf2" x1="0%" y1="0%" x2="100%" y2="100%">
      <stop offset="0%" stop-color="#FF9800"/>
      <stop offset="100%" stop-color="#E65100"/>
    </linearGradient>
    <filter id="qf-shadow">
      <feDropShadow dx="0" dy="3" stdDeviation="4" flood-color="#002171" flood-opacity="0.3"/>
    </filter>
  </defs>
  <rect x="20" y="20" width="160" height="160" rx="36" fill="url(#qf1)"/>
  <!-- Wrench handle -->
  <rect x="65" y="102" width="70" height="14" rx="7" fill="#E3F2FD" opacity="0.95" transform="rotate(-30 100 110)"/>
  <!-- Wrench head left -->
  <path d="M52 70 Q48 60 54 52 Q62 46 72 50 L72 50 Q66 58 62 68 Q58 72 52 70 Z" fill="url(#qf2)" filter="url(#qf-shadow)"/>
  <!-- Wrench head right -->
  <path d="M148 70 Q152 60 146 52 Q138 46 128 50 L128 50 Q134 58 138 68 Q142 72 148 70 Z" fill="url(#qf2)" filter="url(#qf-shadow)"/>
  <!-- Center gear -->
  <circle cx="100" cy="56" r="14" fill="none" stroke="#FF9800" stroke-width="4"/>
  <circle cx="100" cy="56" r="6" fill="#FF9800"/>
  <!-- Gear teeth -->
  <rect x="96" y="36" width="8" height="8" rx="2" fill="#FF9800" opacity="0.8"/>
  <rect x="96" y="68" width="8" height="8" rx="2" fill="#FF9800" opacity="0.8"/>
  <rect x="80" y="52" width="8" height="8" rx="2" fill="#FF9800" opacity="0.8"/>
  <rect x="112" y="52" width="8" height="8" rx="2" fill="#FF9800" opacity="0.8"/>
</svg>