<svg xmlns="http://www.w3.org/2000/svg" viewBox="0 0 200 200">
  <defs>
    <linearGradient id="sr1" x1="0%" y1="0%" x2="100%" y2="100%">
      <stop offset="0%" stop-color="#D32F2F"/>
      <stop offset="100%" stop-color="#B71C1C"/>
    </linearGradient>
    <linearGradient id="sr2" x1="0%" y1="0%" x2="0%" y2="100%">
      <stop offset="0%" stop-color="#FFD54F"/>
      <stop offset="100%" stop-color="#FF8F00"/>
    </linearGradient>
    <filter id="sr-shadow">
      <feDropShadow dx="0" dy="3" stdDeviation="4" flood-color="#7F0000" flood-opacity="0.3"/>
    </filter>
  </defs>
  <rect x="20" y="20" width="160" height="160" rx="36" fill="url(#sr1)"/>
  <!-- Bowl -->
  <path d="M50 80 Q50 140 100 148 Q150 140 150 80 Z" fill="#FFF8E1" opacity="0.95" filter="url(#sr-shadow)"/>
  <ellipse cx="100" cy="80" rx="50" ry="10" fill="#FFF3E0"/>
  <!-- Bowl rim -->
  <ellipse cx="100" cy="80" rx="50" ry="10" fill="none" stroke="#FFECB3" stroke-width="2.5"/>
  <!-- Steam -->
  <path d="M72 68 Q68 54 74 44" fill="none" stroke="#FFCCBC" stroke-width="3" stroke-linecap="round" opacity="0.7"/>
  <path d="M100 62 Q96 48 102 38" fill="none" stroke="#FFCCBC" stroke-width="3" stroke-linecap="round" opacity="0.6"/>
  <path d="M128 68 Q124 54 130 44" fill="none" stroke="#FFCCBC" stroke-width="3" stroke-linecap="round" opacity="0.5"/>
  <!-- Noodles -->
  <path d="M72 90 Q80 86 88 90 Q96 94 104 90 Q112 86 120 90" fill="none" stroke="#FFB74D" stroke-width="3" stroke-linecap="round" opacity="0.8"/>
  <!-- Egg half -->
  <ellipse cx="90" cy="100" rx="8" ry="6" fill="#FFF9C4"/>
  <ellipse cx="90" cy="98" rx="4" ry="3" fill="#FFB300"/>
  <!-- Chopsticks -->
  <line x1="120" y1="62" x2="112" y2="130" stroke="#5D4037" stroke-width="3" stroke-linecap="round"/>
  <line x1="134" y1="62" x2="126" y2="130" stroke="#5D4037" stroke-width="3" stroke-linecap="round"/>
</svg>