<svg xmlns="http://www.w3.org/2000/svg" viewBox="0 0 512 113"><path fill="#362D59" d="M74.13 5.79a11.96 11.96 0 0 0-20.49 0L36.79 34.65a82.48 82.48 0 0 1 45.45 68.27h-11.83a70.88 70.88 0 0 0-39.59-58.18l-15.6 26.97a40.77 40.77 0 0 1 23.64 31.16h-27.2a1.95 1.95 0 0 1-1.59-2.84l7.53-12.8a27.5 27.5 0 0 0-8.6-4.87L1.58 95.15a11.63 11.63 0 0 0 4.33 15.98 11.9 11.9 0 0 0 5.79 1.54h37.2a49.68 49.68 0 0 0-20.48-44.33L34.33 58.1a61.12 61.12 0 0 1 26.38 54.57h31.52a91.88 91.88 0 0 0-42.02-81.43l11.96-20.49a1.97 1.97 0 0 1 2.69-.69c1.36.74 51.96 89.03 52.9 90.06a1.95 1.95 0 0 1-1.74 2.89h-11.67q.23 4.89 0 9.76h12.24a11.76 11.76 0 0 0 11.83-11.81 11.5 11.5 0 0 0-1.59-5.84z"/><path fill="#362D59" d="M318.21 41.42 280.41 23.61h-9.42v65.43h9.55V38.9l38.87 50.13h8.35V23.61h-9.55zM223.03 29.28h33.88v-8.5H223V32.1h38.23v-8.5h-47.96v65.45h48.45v-8.5h-38.72zM183.19 21c-13.19-3.18-16.88-5.69-16.88-11.78 0-5.48 4.84-9.2 12.06-9.2a30.9 30.9 0 0 1 18.11 6.53l5.12-7.25A36.1 36.1 0 0 0 178.54 0c-12.96 0-22 7.68-22 18.62 0 11.78 7.68 15.85 21.66 19.26 12.45 2.87 16.26 5.53 16.26 11.5s-5.12 9.65-13.04 9.65a31.6 31.6 0 0 1-21.25-8.35l-5.76 6.89a40.82 40.82 0 0 0 26.68 9.86c14.03 0 23.05-7.55 23.05-19.23 0-9.89-5.91-15.19-20.97-18.82m319.8-14.4-19.69 30.73-19.56-30.73h-11.42l25.84 39.56v25.89h9.83V62.86L512 23.61h-10.01zM354.3 32.47h21.43v56.59h9.83V32.47h21.44v-8.86h-52.68zm98.17 31.04c9.89-2.74 15.37-9.65 15.37-19.54 0-12.57-9.19-20.48-24.02-20.48h-29.09v65.53h9.73V65.5h16.52l16.59 23.56h11.37L452.47 63.5zm-28.04-6.4V32.26h18.36c9.58 0 15.06 4.53 15.06 12.4 0 7.86-5.86 12.44-14.96 12.44z"/></svg>