<svg xmlns="http://www.w3.org/2000/svg" viewBox="0 0 200 200">
  <defs>
    <linearGradient id="tn1" x1="0%" y1="0%" x2="100%" y2="100%">
      <stop offset="0%" stop-color="#C62828"/>
      <stop offset="100%" stop-color="#8E0000"/>
    </linearGradient>
    <linearGradient id="tn2" x1="0%" y1="0%" x2="100%" y2="100%">
      <stop offset="0%" stop-color="#FFD700"/>
      <stop offset="100%" stop-color="#D4A017"/>
    </linearGradient>
    <filter id="tn-glow">
      <feDropShadow dx="0" dy="2" stdDeviation="5" flood-color="#FF6F00" flood-opacity="0.3"/>
    </filter>
  </defs>
  <rect x="20" y="20" width="160" height="160" rx="36" fill="url(#tn1)"/>
  <!-- Flame -->
  <path d="M100 42 Q120 68 118 90 Q116 108 100 120 Q84 108 82 90 Q80 68 100 42 Z" fill="url(#tn2)" filter="url(#tn-glow)"/>
  <path d="M100 52 Q112 70 110 86 Q108 98 100 106 Q92 98 90 86 Q88 70 100 52 Z" fill="#FF8F00" opacity="0.8"/>
  <!-- Skewer/utensil -->
  <line x1="100" y1="46" x2="100" y2="152" stroke="#FFD700" stroke-width="3.5" stroke-linecap="round" opacity="0.7"/>
  <line x1="82" y1="60" x2="118" y2="60" stroke="none" />
  <!-- Cross utensil -->
  <line x1="74" y1="82" x2="126" y2="82" stroke="#FFD700" stroke-width="3" stroke-linecap="round" opacity="0.5"/>
  <line x1="74" y1="100" x2="126" y2="100" stroke="#FFD700" stroke-width="3" stroke-linecap="round" opacity="0.5"/>
  <!-- Decorative dots -->
  <circle cx="100" cy="138" r="4" fill="#FFD700" opacity="0.6"/>
  <circle cx="88" cy="144" r="3" fill="#FFD700" opacity="0.4"/>
  <circle cx="112" cy="144" r="3" fill="#FFD700" opacity="0.4"/>
</svg>