<svg xmlns="http://www.w3.org/2000/svg" viewBox="0 0 200 200">
  <defs>
    <linearGradient id="g" x1="0%" y1="0%" x2="100%" y2="100%">
      <stop offset="0%" stop-color="#00897B"/>
      <stop offset="100%" stop-color="#004D40"/>
    </linearGradient>
  </defs>
  <circle cx="100" cy="100" r="95" fill="url(#g)"/>
  <circle cx="100" cy="100" r="90" fill="none" stroke="rgba(255,255,255,0.15)" stroke-width="2"/>
  <circle cx="100" cy="100" r="82" fill="none" stroke="rgba(255,255,255,0.08)" stroke-width="1" stroke-dasharray="4,4"/>
  <path d="M100 62 Q108 55 115 62 Q125 70 122 82 Q120 90 115 98 Q110 105 108 110 Q106 118 100 125 Q94 118 92 110 Q90 105 85 98 Q80 90 78 82 Q75 70 85 62 Q92 55 100 62Z" fill="white" opacity="0.95"/>
  <path d="M95 70 Q98 65 100 70 Q104 78 104 85 Q104 90 102 95" fill="none" stroke="#00897B" stroke-width="2" stroke-linecap="round"/>
  <path d="M105 70 Q102 65 100 70 Q96 78 96 85 Q96 90 98 95" fill="none" stroke="#00897B" stroke-width="2" stroke-linecap="round"/>
  <text x="100" y="165" text-anchor="middle" fill="white" font-size="22" font-weight="700" font-family="'Segoe UI', Arial, sans-serif" letter-spacing="2">TC</text>
</svg>