<svg xmlns="http://www.w3.org/2000/svg" viewBox="0 0 800 600" width="800" height="600">
  <defs>
    <linearGradient id="bg" x1="0" y1="0" x2="1" y2="1">
      <stop offset="0%" stop-color="#FCE4EC"/>
      <stop offset="40%" stop-color="#F8BBD0"/>
      <stop offset="100%" stop-color="#D7CCC8"/>
    </linearGradient>
    <linearGradient id="ov" x1="1" y1="0" x2="0" y2="1">
      <stop offset="0%" stop-color="#E91E63" stop-opacity="0.15"/>
      <stop offset="100%" stop-color="#FFF" stop-opacity="0.1"/>
    </linearGradient>
    <linearGradient id="rose" x1="0" y1="0" x2="1" y2="1">
      <stop offset="0%" stop-color="#FFD700"/>
      <stop offset="50%" stop-color="#F8BBD0"/>
      <stop offset="100%" stop-color="#FFD700"/>
    </linearGradient>
    <filter id="glow"><feGaussianBlur stdDeviation="3" result="b"/><feMerge><feMergeNode in="b"/><feMergeNode in="SourceGraphic"/></feMerge></filter>
    <filter id="shadow"><feDropShadow dx="2" dy="4" stdDeviation="8" flood-color="#880E4F" flood-opacity="0.15"/></filter>
  </defs>
  <rect width="800" height="600" fill="url(#bg)"/>
  <rect width="800" height="600" fill="url(#ov)"/>
  <circle cx="100" cy="80" r="130" fill="#FFF" opacity="0.15"/>
  <circle cx="720" cy="520" r="160" fill="#F8BBD0" opacity="0.15"/>
  <circle cx="700" cy="80" r="100" fill="#E91E63" opacity="0.06"/>
  <circle cx="80" cy="500" r="120" fill="#D7CCC8" opacity="0.12"/>
  <path d="M0,380 Q200,340 400,400 T800,370 L800,600 L0,600 Z" fill="#FFF" opacity="0.08"/>
  <path d="M-50,430 Q250,380 500,450 T850,420 L850,600 Z" fill="#F8BBD0" opacity="0.06"/>
  <g transform="translate(400,160)" opacity="0.12">
    <path d="M0,-30 Q15,-5 0,0 Q-15,-5 0,-30Z" fill="#E91E63"/>
    <path d="M-18,0 Q-5,10 0,5 Q5,10 18,0" fill="none" stroke="#E91E63" stroke-width="2"/>
  </g>
  <g filter="url(#shadow)" transform="translate(240,230)">
    <rect x="0" y="0" width="320" height="200" rx="10" fill="#3C2A33"/>
    <rect x="5" y="5" width="310" height="170" rx="6" fill="#FFF"/>
    <rect x="5" y="5" width="310" height="170" rx="6" fill="url(#bg)" opacity="0.1"/>
    <rect x="110" y="182" width="100" height="4" rx="2" fill="#444"/>
    <rect x="0" y="200" width="320" height="16" rx="0 0 10 10" fill="#4C3A43"/>
    <rect x="110" y="208" width="100" height="3" rx="1.5" fill="#666"/>
  </g>
  <g transform="translate(580,110)" opacity="0.12">
    <circle cx="0" cy="0" r="4" fill="#E91E63"/>
    <circle cx="20" cy="-10" r="3" fill="#E91E63" opacity="0.7"/>
    <circle cx="40" cy="5" r="3.5" fill="#E91E63" opacity="0.8"/>
  </g>
  <text x="400" y="70" font-family="Georgia,serif" font-size="36" font-weight="bold" font-style="italic" fill="#4A1528" text-anchor="middle" filter="url(#glow)" opacity="0.15">Bella Vita</text>
  <text x="400" y="555" font-family="Georgia,serif" font-size="22" fill="#4A1528" text-anchor="middle" opacity="0.25" letter-spacing="5">L U X U R Y</text>
  <text x="400" y="578" font-family="Arial,sans-serif" font-size="12" fill="#4A1528" text-anchor="middle" opacity="0.18" letter-spacing="4">LIVING THE BEAUTIFUL LIFE</text>
  <circle cx="310" cy="580" r="2.5" fill="#E91E63" opacity="0.3"/>
  <circle cx="332" cy="580" r="2.5" fill="#E91E63" opacity="0.2"/>
  <circle cx="354" cy="580" r="2.5" fill="#E91E63" opacity="0.3"/>
  <circle cx="446" cy="580" r="2.5" fill="#E91E63" opacity="0.3"/>
  <circle cx="468" cy="580" r="2.5" fill="#E91E63" opacity="0.2"/>
  <circle cx="490" cy="580" r="2.5" fill="#E91E63" opacity="0.3"/>
</svg>
