<svg xmlns="http://www.w3.org/2000/svg" viewBox="0 0 800 600" width="800" height="600">
  <defs>
    <linearGradient id="bg" x1="0" y1="0" x2="1" y2="1">
      <stop offset="0%" stop-color="#558B2F"/>
      <stop offset="50%" stop-color="#7CB342"/>
      <stop offset="100%" stop-color="#D84315"/>
    </linearGradient>
    <linearGradient id="ov" x1="0" y1="1" x2="1" y2="0">
      <stop offset="0%" stop-color="#33691E" stop-opacity="0.5"/>
      <stop offset="100%" stop-color="#FFCCBC" stop-opacity="0.15"/>
    </linearGradient>
    <filter id="glow"><feGaussianBlur stdDeviation="3" result="b"/><feMerge><feMergeNode in="b"/><feMergeNode in="SourceGraphic"/></feMerge></filter>
    <filter id="shadow"><feDropShadow dx="2" dy="4" stdDeviation="8" flood-color="#2E2E1F" flood-opacity="0.3"/></filter>
  </defs>
  <rect width="800" height="600" fill="url(#bg)"/>
  <rect width="800" height="600" fill="url(#ov)"/>
  <circle cx="80" cy="80" r="140" fill="#FFCCBC" opacity="0.08"/>
  <circle cx="720" cy="520" r="160" fill="#7CB342" opacity="0.12"/>
  <circle cx="720" cy="80" r="100" fill="#558B2F" opacity="0.1"/>
  <circle cx="80" cy="500" r="120" fill="#D84315" opacity="0.08"/>
  <path d="M0,360 Q200,310 400,380 T800,350 L800,600 L0,600 Z" fill="#7CB342" opacity="0.08"/>
  <path d="M-50,410 Q250,350 500,430 T850,400 L850,600 Z" fill="#558B2F" opacity="0.05"/>
  <g transform="translate(400,160)" opacity="0.12">
    <rect x="-20" y="-25" width="40" height="50" rx="2" fill="none" stroke="#FFCCBC" stroke-width="2.5"/>
    <polygon points="0,-35 -25,-25 25,-25" fill="none" stroke="#FFCCBC" stroke-width="2.5"/>
    <rect x="-8" y="0" width="16" height="25" rx="8" fill="none" stroke="#FFCCBC" stroke-width="2"/>
  </g>
  <g filter="url(#shadow)" transform="translate(260,240)">
    <rect x="0" y="0" width="280" height="180" rx="8" fill="#2C2C2C"/>
    <rect x="4" y="4" width="272" height="150" rx="4" fill="#FFF"/>
    <rect x="4" y="4" width="272" height="150" rx="4" fill="url(#bg)" opacity="0.05"/>
    <rect x="90" y="166" width="100" height="4" rx="2" fill="#444"/>
    <rect x="0" y="180" width="280" height="14" rx="0 0 8 8" fill="#3C3C3C"/>
    <rect x="90" y="186" width="100" height="3" rx="1.5" fill="#555"/>
  </g>
  <g transform="translate(560,110)" opacity="0.12">
    <path d="M0,10 Q10,-5 20,10 Q30,-5 40,10" fill="none" stroke="#FFCCBC" stroke-width="2"/>
  </g>
  <g transform="translate(140,130)" opacity="0.1">
    <circle cx="0" cy="0" r="10" fill="none" stroke="#FFF" stroke-width="1.5"/>
    <path d="M-5,8 L-8,15 M5,8 L8,15" stroke="#FFF" stroke-width="1.5"/>
  </g>
  <text x="400" y="70" font-family="Arial Black,sans-serif" font-size="34" font-weight="900" fill="#FFF" text-anchor="middle" filter="url(#glow)" opacity="0.12">CASA VERDE</text>
  <text x="400" y="550" font-family="Georgia,serif" font-size="20" fill="#FFF" text-anchor="middle" opacity="0.3" letter-spacing="5">C A F E</text>
  <text x="400" y="578" font-family="Arial,sans-serif" font-size="12" fill="#FFF" text-anchor="middle" opacity="0.2" letter-spacing="4">FRESH &amp; ORGANIC SINCE 2020</text>
  <circle cx="310" cy="580" r="2.5" fill="#FFCCBC" opacity="0.35"/>
  <circle cx="332" cy="580" r="2.5" fill="#FFCCBC" opacity="0.25"/>
  <circle cx="354" cy="580" r="2.5" fill="#FFCCBC" opacity="0.35"/>
  <circle cx="446" cy="580" r="2.5" fill="#FFCCBC" opacity="0.35"/>
  <circle cx="468" cy="580" r="2.5" fill="#FFCCBC" opacity="0.25"/>
  <circle cx="490" cy="580" r="2.5" fill="#FFCCBC" opacity="0.35"/>
</svg>
