<svg xmlns="http://www.w3.org/2000/svg" viewBox="0 0 800 400">
  <defs>
    <linearGradient id="bg" x1="0%" y1="0%" x2="100%" y2="100%">
      <stop offset="0%" stop-color="#0D0D0D"/>
      <stop offset="50%" stop-color="#1A0000"/>
      <stop offset="100%" stop-color="#FF6D00"/>
    </linearGradient>
    <radialGradient id="b1" cx="30%" cy="30%" r="50%">
      <stop offset="0%" stop-color="rgba(255,109,0,0.15)"/>
      <stop offset="100%" stop-color="transparent"/>
    </radialGradient>
    <linearGradient id="g2" x1="0%" y1="0%" x2="100%" y2="100%">
      <stop offset="0%" stop-color="rgba(255,109,0,0.25)"/>
      <stop offset="100%" stop-color="transparent"/>
    </linearGradient>
  </defs>
  <rect width="800" height="400" fill="url(#bg)"/>
  <circle cx="650" cy="100" r="250" fill="url(#b1)"/>
  <polygon points="200,30 300,80 280,170 180,160 150,90" fill="rgba(255,109,0,0.12)"/>
  <polygon points="300,300 420,260 450,360 350,390 280,350" fill="rgba(255,109,0,0.15)"/>
  <polygon points="550,50 620,30 660,110 590,130 540,100" fill="rgba(255,255,255,0.05)"/>
  <polygon points="80,200 160,180 200,260 120,290 60,250" fill="rgba(255,109,0,0.08)"/>
  <rect x="500" y="250" width="100" height="100" rx="5" transform="rotate(60 550 300)" fill="rgba(255,150,50,0.06)"/>
  <polygon points="680,300 750,280 770,360 690,380" fill="rgba(255,109,0,0.1)"/>
  <circle cx="400" cy="180" r="15" fill="rgba(255,109,0,0.2)"/>
</svg>