<svg xmlns="http://www.w3.org/2000/svg" viewBox="0 0 800 400">
  <defs>
    <linearGradient id="bg" x1="0%" y1="0%" x2="100%" y2="100%">
      <stop offset="0%" stop-color="#1565C0"/>
      <stop offset="50%" stop-color="#E65100"/>
      <stop offset="100%" stop-color="#0D47A1"/>
    </linearGradient>
    <radialGradient id="b1" cx="30%" cy="30%" r="50%">
      <stop offset="0%" stop-color="rgba(255,255,255,0.12)"/>
      <stop offset="100%" stop-color="transparent"/>
    </radialGradient>
    <linearGradient id="g2" x1="0%" y1="0%" x2="100%" y2="100%">
      <stop offset="0%" stop-color="rgba(255,200,0,0.2)"/>
      <stop offset="100%" stop-color="transparent"/>
    </linearGradient>
  </defs>
  <rect width="800" height="400" fill="url(#bg)"/>
  <circle cx="150" cy="100" r="240" fill="url(#b1)"/>
  <rect x="500" y="80" width="40" height="120" rx="6" fill="rgba(255,255,255,0.06)"/>
  <rect x="470" y="110" width="100" height="20" rx="4" fill="rgba(255,200,0,0.12)"/>
  <rect x="470" y="150" width="100" height="20" rx="4" fill="rgba(255,200,0,0.12)"/>
  <rect x="120" y="260" width="60" height="60" rx="8" fill="rgba(255,200,0,0.08)"/>
  <rect x="200" y="280" width="40" height="80" rx="6" transform="rotate(25 220 320)" fill="rgba(255,255,255,0.05)"/>
  <circle cx="680" cy="280" r="70" fill="url(#g2)"/>
  <rect x="620" y="260" width="120" height="8" rx="4" fill="rgba(255,200,0,0.1)"/>
  <circle cx="400" cy="350" r="30" fill="rgba(255,255,255,0.03)"/>
  <rect x="50" y="80" width="30" height="30" rx="4" transform="rotate(45 65 95)" fill="rgba(255,200,0,0.06)"/>
</svg>