<svg xmlns="http://www.w3.org/2000/svg" viewBox="0 0 800 600" width="800" height="600">
  <defs>
    <linearGradient id="bg" x1="0" y1="0" x2="1" y2="1">
      <stop offset="0%" stop-color="#004D40"/>
      <stop offset="40%" stop-color="#00897B"/>
      <stop offset="100%" stop-color="#26A69A"/>
    </linearGradient>
    <linearGradient id="ov" x1="1" y1="0" x2="0" y2="1">
      <stop offset="0%" stop-color="#1B5E20" stop-opacity="0.4"/>
      <stop offset="100%" stop-color="#A5D6A7" stop-opacity="0.12"/>
    </linearGradient>
    <filter id="glow"><feGaussianBlur stdDeviation="3" result="b"/><feMerge><feMergeNode in="b"/><feMergeNode in="SourceGraphic"/></feMerge></filter>
    <filter id="shadow"><feDropShadow dx="2" dy="4" stdDeviation="8" flood-color="#00332D" flood-opacity="0.35"/></filter>
  </defs>
  <rect width="800" height="600" fill="url(#bg)"/>
  <rect width="800" height="600" fill="url(#ov)"/>
  <circle cx="80" cy="80" r="120" fill="#A5D6A7" opacity="0.08"/>
  <circle cx="720" cy="520" r="170" fill="#26A69A" opacity="0.12"/>
  <circle cx="750" cy="80" r="90" fill="#00897B" opacity="0.1"/>
  <circle cx="60" cy="500" r="110" fill="#004D40" opacity="0.15"/>
  <path d="M0,370 Q200,320 400,390 T800,350 L800,600 L0,600 Z" fill="#26A69A" opacity="0.1"/>
  <path d="M-50,420 Q250,360 500,440 T850,400 L850,600 Z" fill="#00897B" opacity="0.06"/>
  <g transform="translate(400,160)" opacity="0.12">
    <path d="M0,-40 Q20,-10 0,10 Q-20,-10 0,-40Z" fill="#A5D6A7"/>
    <rect x="-3" y="10" width="6" height="15" rx="3" fill="#A5D6A7"/>
  </g>
  <g filter="url(#shadow)" transform="translate(260,250)">
    <rect x="0" y="0" width="280" height="180" rx="10" fill="#2C2C2C"/>
    <rect x="5" y="5" width="270" height="150" rx="6" fill="#FFF"/>
    <rect x="5" y="5" width="270" height="150" rx="6" fill="url(#bg)" opacity="0.05"/>
    <rect x="90" y="170" width="100" height="4" rx="2" fill="#444"/>
    <rect x="0" y="180" width="280" height="14" rx="0 0 10 10" fill="#3C3C3C"/>
    <rect x="90" y="186" width="100" height="3" rx="1.5" fill="#555"/>
  </g>
  <g transform="translate(560,110)" opacity="0.15">
    <circle cx="0" cy="0" r="3" fill="#A5D6A7"/>
    <circle cx="20" cy="-15" r="2" fill="#A5D6A7"/>
    <circle cx="40" cy="-5" r="2.5" fill="#A5D6A7"/>
    <circle cx="55" cy="-25" r="1.5" fill="#A5D6A7"/>
  </g>
  <text x="400" y="70" font-family="Arial Black,sans-serif" font-size="36" font-weight="900" fill="#FFF" text-anchor="middle" filter="url(#glow)" opacity="0.12">GREENLEAF</text>
  <text x="400" y="550" font-family="Georgia,serif" font-size="22" fill="#FFF" text-anchor="middle" opacity="0.3" letter-spacing="5">O R G A N I C</text>
  <text x="400" y="578" font-family="Arial,sans-serif" font-size="12" fill="#FFF" text-anchor="middle" opacity="0.2" letter-spacing="4">PURE &amp; NATURAL GOODNESS</text>
  <circle cx="310" cy="580" r="2.5" fill="#A5D6A7" opacity="0.35"/>
  <circle cx="332" cy="580" r="2.5" fill="#A5D6A7" opacity="0.25"/>
  <circle cx="354" cy="580" r="2.5" fill="#A5D6A7" opacity="0.35"/>
  <circle cx="446" cy="580" r="2.5" fill="#A5D6A7" opacity="0.35"/>
  <circle cx="468" cy="580" r="2.5" fill="#A5D6A7" opacity="0.25"/>
  <circle cx="490" cy="580" r="2.5" fill="#A5D6A7" opacity="0.35"/>
</svg>
