<svg xmlns="http://www.w3.org/2000/svg" viewBox="0 0 800 600" width="800" height="600">
  <defs>
    <linearGradient id="bg" x1="0" y1="0" x2="1" y2="1">
      <stop offset="0%" stop-color="#0D1B2A"/>
      <stop offset="50%" stop-color="#1B2838"/>
      <stop offset="100%" stop-color="#00B4D8"/>
    </linearGradient>
    <linearGradient id="ov" x1="0" y1="1" x2="1" y2="0">
      <stop offset="0%" stop-color="#03045E" stop-opacity="0.6"/>
      <stop offset="100%" stop-color="#90E0EF" stop-opacity="0.1"/>
    </linearGradient>
    <linearGradient id="accent" x1="0" y1="0" x2="1" y2="0">
      <stop offset="0%" stop-color="#00B4D8"/>
      <stop offset="50%" stop-color="#0077B6"/>
      <stop offset="100%" stop-color="#00B4D8"/>
    </linearGradient>
    <filter id="glow"><feGaussianBlur stdDeviation="3" result="b"/><feMerge><feMergeNode in="b"/><feMergeNode in="SourceGraphic"/></feMerge></filter>
    <filter id="shadow"><feDropShadow dx="2" dy="4" stdDeviation="8" flood-color="#000" flood-opacity="0.4"/></filter>
    <filter id="neon"><feGaussianBlur stdDeviation="4" result="b"/><feMerge><feMergeNode in="b"/><feMergeNode in="b"/><feMergeNode in="SourceGraphic"/></feMerge></filter>
  </defs>
  <rect width="800" height="600" fill="url(#bg)"/>
  <rect width="800" height="600" fill="url(#ov)"/>
  <circle cx="100" cy="80" r="130" fill="#0077B6" opacity="0.12"/>
  <circle cx="720" cy="520" r="180" fill="#00B4D8" opacity="0.08"/>
  <circle cx="700" cy="80" r="90" fill="#03045E" opacity="0.15"/>
  <circle cx="80" cy="520" r="100" fill="#90E0EF" opacity="0.06"/>
  <path d="M0,350 Q250,280 500,370 T800,330 L800,600 L0,600 Z" fill="#0077B6" opacity="0.08"/>
  <path d="M-50,420 Q200,350 450,440 T850,400 L850,600 Z" fill="#00B4D8" opacity="0.05"/>
  <g transform="translate(400,150)" opacity="0.1" filter="url(#neon)">
    <polygon points="0,-40 40,30 -40,30" fill="none" stroke="#00B4D8" stroke-width="3"/>
    <circle cx="0" cy="10" r="8" fill="#00B4D8"/>
  </g>
  <g transform="translate(120,200)" opacity="0.15">
    <text x="0" y="0" font-family="Courier New,monospace" font-size="14" fill="#00B4D8">class NexaTech {</text>
    <text x="20" y="20" font-family="Courier New,monospace" font-size="14" fill="#00B4D8">innovate();</text>
    <text x="20" y="40" font-family="Courier New,monospace" font-size="14" fill="#00B4D8">build();</text>
    <text x="0" y="60" font-family="Courier New,monospace" font-size="14" fill="#00B4D8">}</text>
  </g>
  <g filter="url(#shadow)" transform="translate(460,280)">
    <rect x="0" y="0" width="200" height="300" rx="14" fill="#1A1A1A"/>
    <rect x="6" y="6" width="188" height="260" rx="10" fill="#0D1B2A"/>
    <rect x="80" y="12" width="35" height="6" rx="3" fill="#333"/>
    <circle cx="100" cy="280" r="4" fill="#555"/>
    <rect x="25" y="40" width="150" height="4" rx="2" fill="#00B4D8" opacity="0.3"/>
    <rect x="25" y="52" width="100" height="4" rx="2" fill="#00B4D8" opacity="0.15"/>
    <rect x="25" y="65" width="150" height="4" rx="2" fill="#00B4D8" opacity="0.3"/>
    <rect x="25" y="77" width="80" height="4" rx="2" fill="#00B4D8" opacity="0.15"/>
    <circle cx="100" cy="140" r="30" fill="none" stroke="#00B4D8" stroke-width="2" opacity="0.2"/>
    <circle cx="100" cy="140" r="15" fill="#00B4D8" opacity="0.1"/>
  </g>
  <text x="400" y="70" font-family="Arial Black,sans-serif" font-size="34" font-weight="900" fill="#FFF" text-anchor="middle" filter="url(#neon)" opacity="0.15">NEXATECH</text>
  <text x="400" y="555" font-family="Georgia,serif" font-size="22" fill="#00B4D8" text-anchor="middle" opacity="0.4" letter-spacing="6" filter="url(#glow)">T E C H</text>
  <text x="400" y="578" font-family="Arial,sans-serif" font-size="12" fill="#90E0EF" text-anchor="middle" opacity="0.25" letter-spacing="4">BUILDING THE FUTURE</text>
  <circle cx="310" cy="580" r="2.5" fill="#00B4D8" opacity="0.4"/>
  <circle cx="332" cy="580" r="2.5" fill="#00B4D8" opacity="0.3"/>
  <circle cx="354" cy="580" r="2.5" fill="#00B4D8" opacity="0.4"/>
  <circle cx="446" cy="580" r="2.5" fill="#00B4D8" opacity="0.4"/>
  <circle cx="468" cy="580" r="2.5" fill="#00B4D8" opacity="0.3"/>
  <circle cx="490" cy="580" r="2.5" fill="#00B4D8" opacity="0.4"/>
</svg>
