<svg xmlns="http://www.w3.org/2000/svg" viewBox="0 0 800 600" width="800" height="600">
  <defs>
    <linearGradient id="bg" x1="0" y1="0" x2="1" y2="1">
      <stop offset="0%" stop-color="#4E342E"/>
      <stop offset="40%" stop-color="#6D4C41"/>
      <stop offset="100%" stop-color="#FF6F00"/>
    </linearGradient>
    <linearGradient id="ov" x1="0" y1="1" x2="1" y2="0">
      <stop offset="0%" stop-color="#2E1A0A" stop-opacity="0.5"/>
      <stop offset="100%" stop-color="#A5D6A7" stop-opacity="0.1"/>
    </linearGradient>
    <filter id="glow"><feGaussianBlur stdDeviation="3" result="b"/><feMerge><feMergeNode in="b"/><feMergeNode in="SourceGraphic"/></feMerge></filter>
    <filter id="shadow"><feDropShadow dx="2" dy="4" stdDeviation="8" flood-color="#2E1A0A" flood-opacity="0.35"/></filter>
  </defs>
  <rect width="800" height="600" fill="url(#bg)"/>
  <rect width="800" height="600" fill="url(#ov)"/>
  <circle cx="100" cy="80" r="140" fill="#A5D6A7" opacity="0.06"/>
  <circle cx="720" cy="520" r="170" fill="#FF6F00" opacity="0.1"/>
  <circle cx="700" cy="80" r="100" fill="#4E342E" opacity="0.12"/>
  <circle cx="80" cy="500" r="120" fill="#6D4C41" opacity="0.1"/>
  <path d="M0,320 Q200,280 400,350 T800,310 L800,600 L0,600 Z" fill="#6D4C41" opacity="0.08"/>
  <path d="M-50,370 Q250,310 500,390 T850,360 L850,600 Z" fill="#4E342E" opacity="0.05"/>
  <g transform="translate(400,160)" opacity="0.12">
    <path d="M-25,20 L0,-30 L25,20 Z" fill="none" stroke="#A5D6A7" stroke-width="2.5"/>
    <circle cx="0" cy="-30" r="6" fill="#A5D6A7"/>
  </g>
  <g filter="url(#shadow)" transform="translate(260,240)">
    <rect x="0" y="0" width="280" height="180" rx="8" fill="#2C2C2C"/>
    <rect x="4" y="4" width="272" height="150" rx="4" fill="#FFF"/>
    <rect x="4" y="4" width="272" height="150" rx="4" fill="url(#bg)" opacity="0.05"/>
    <rect x="90" y="166" width="100" height="4" rx="2" fill="#444"/>
    <rect x="0" y="180" width="280" height="14" rx="0 0 8 8" fill="#3C3C3C"/>
    <rect x="90" y="186" width="100" height="3" rx="1.5" fill="#555"/>
  </g>
  <g transform="translate(580,110)" opacity="0.15">
    <path d="M-15,0 Q0,-20 15,0" fill="none" stroke="#FFF" stroke-width="2"/>
    <path d="M-15,10 Q0,-10 15,10" fill="none" stroke="#FFF" stroke-width="2"/>
  </g>
  <g transform="translate(140,120)" opacity="0.1">
    <circle cx="0" cy="0" r="8" fill="none" stroke="#FFF" stroke-width="1.5"/>
    <path d="M-5,8 L-10,15 M5,8 L10,15 M0,8 L0,16" stroke="#FFF" stroke-width="1.5"/>
  </g>
  <text x="400" y="70" font-family="Arial Black,sans-serif" font-size="32" font-weight="900" fill="#FFF" text-anchor="middle" filter="url(#glow)" opacity="0.12">OUTBACK</text>
  <text x="400" y="555" font-family="Georgia,serif" font-size="22" fill="#FFF" text-anchor="middle" opacity="0.3" letter-spacing="5">A D V E N T U R E</text>
  <text x="400" y="578" font-family="Arial,sans-serif" font-size="12" fill="#FFF" text-anchor="middle" opacity="0.2" letter-spacing="4">EXPLORE THE WILD</text>
  <circle cx="310" cy="580" r="2.5" fill="#A5D6A7" opacity="0.35"/>
  <circle cx="332" cy="580" r="2.5" fill="#A5D6A7" opacity="0.25"/>
  <circle cx="354" cy="580" r="2.5" fill="#A5D6A7" opacity="0.35"/>
  <circle cx="446" cy="580" r="2.5" fill="#A5D6A7" opacity="0.35"/>
  <circle cx="468" cy="580" r="2.5" fill="#A5D6A7" opacity="0.25"/>
  <circle cx="490" cy="580" r="2.5" fill="#A5D6A7" opacity="0.35"/>
</svg>
