<svg xmlns="http://www.w3.org/2000/svg" viewBox="0 0 800 600" width="800" height="600">
  <defs>
    <linearGradient id="bg" x1="0" y1="0" x2="1" y2="1">
      <stop offset="0%" stop-color="#1A0000"/>
      <stop offset="50%" stop-color="#B71C1C"/>
      <stop offset="100%" stop-color="#D50000"/>
    </linearGradient>
    <linearGradient id="ov" x1="0" y1="1" x2="1" y2="0">
      <stop offset="0%" stop-color="#000" stop-opacity="0.6"/>
      <stop offset="100%" stop-color="#FFCDD2" stop-opacity="0.08"/>
    </linearGradient>
    <filter id="glow"><feGaussianBlur stdDeviation="3" result="b"/><feMerge><feMergeNode in="b"/><feMergeNode in="SourceGraphic"/></feMerge></filter>
    <filter id="shadow"><feDropShadow dx="2" dy="4" stdDeviation="8" flood-color="#000" flood-opacity="0.5"/></filter>
  </defs>
  <rect width="800" height="600" fill="url(#bg)"/>
  <rect width="800" height="600" fill="url(#ov)"/>
  <circle cx="100" cy="80" r="140" fill="#FFCDD2" opacity="0.05"/>
  <circle cx="720" cy="520" r="180" fill="#D50000" opacity="0.08"/>
  <circle cx="700" cy="80" r="100" fill="#B71C1C" opacity="0.1"/>
  <circle cx="80" cy="500" r="130" fill="#1A0000" opacity="0.12"/>
  <path d="M0,300 Q200,260 400,340 T800,290 L800,600 L0,600 Z" fill="#B71C1C" opacity="0.08"/>
  <path d="M-50,360 Q250,300 500,380 T850,350 L850,600 Z" fill="#1A0000" opacity="0.05"/>
  <g transform="translate(400,140)" opacity="0.12">
    <path d="M-8,-30 L8,-30 L15,10 L-15,10 Z" fill="none" stroke="#FFF" stroke-width="2.5"/>
    <circle cx="0" cy="15" r="8" fill="none" stroke="#FFF" stroke-width="2.5"/>
  </g>
  <g transform="translate(120,190)" opacity="0.15">
    <text x="0" y="0" font-family="Arial Black,sans-serif" font-size="16" fill="#FFF" font-weight="900">TRAIN</text>
    <text x="0" y="24" font-family="Arial Black,sans-serif" font-size="16" fill="#FFF" font-weight="900">HARD</text>
  </g>
  <g filter="url(#shadow)" transform="translate(260,250)">
    <rect x="0" y="0" width="280" height="180" rx="8" fill="#1A1A1A"/>
    <rect x="4" y="4" width="272" height="150" rx="4" fill="#FFF"/>
    <rect x="4" y="4" width="272" height="150" rx="4" fill="url(#bg)" opacity="0.03"/>
    <rect x="90" y="166" width="100" height="4" rx="2" fill="#444"/>
    <rect x="0" y="180" width="280" height="14" rx="0 0 8 8" fill="#2C2C2C"/>
    <rect x="90" y="186" width="100" height="3" rx="1.5" fill="#555"/>
  </g>
  <g transform="translate(580,110)" opacity="0.15">
    <path d="M0,-20 L5,-5 L20,-5 L8,5 L12,20 L0,10 L-12,20 L-8,5 L-20,-5 L-5,-5 Z" fill="#FFF"/>
  </g>
  <text x="400" y="70" font-family="Arial Black,sans-serif" font-size="34" font-weight="900" fill="#FFF" text-anchor="middle" filter="url(#glow)" opacity="0.12">POWERHOUSE</text>
  <text x="400" y="555" font-family="Arial Black,sans-serif" font-size="22" fill="#FFF" text-anchor="middle" opacity="0.3" letter-spacing="6">F I T N E S S</text>
  <text x="400" y="578" font-family="Arial,sans-serif" font-size="12" fill="#FFCDD2" text-anchor="middle" opacity="0.2" letter-spacing="4">UNLEASH YOUR POTENTIAL</text>
  <circle cx="310" cy="580" r="2.5" fill="#FFCDD2" opacity="0.35"/>
  <circle cx="332" cy="580" r="2.5" fill="#FFCDD2" opacity="0.25"/>
  <circle cx="354" cy="580" r="2.5" fill="#FFCDD2" opacity="0.35"/>
  <circle cx="446" cy="580" r="2.5" fill="#FFCDD2" opacity="0.35"/>
  <circle cx="468" cy="580" r="2.5" fill="#FFCDD2" opacity="0.25"/>
  <circle cx="490" cy="580" r="2.5" fill="#FFCDD2" opacity="0.35"/>
</svg>
