<svg xmlns="http://www.w3.org/2000/svg" viewBox="0 0 800 600" width="800" height="600">
  <defs>
    <linearGradient id="bg" x1="0" y1="0" x2="1" y2="1">
      <stop offset="0%" stop-color="#006064"/>
      <stop offset="40%" stop-color="#0097A7"/>
      <stop offset="100%" stop-color="#4DD0E1"/>
    </linearGradient>
    <linearGradient id="ov" x1="1" y1="0" x2="0" y2="1">
      <stop offset="0%" stop-color="#004D40" stop-opacity="0.4"/>
      <stop offset="100%" stop-color="#E0F7FA" stop-opacity="0.12"/>
    </linearGradient>
    <filter id="glow"><feGaussianBlur stdDeviation="3" result="b"/><feMerge><feMergeNode in="b"/><feMergeNode in="SourceGraphic"/></feMerge></filter>
    <filter id="shadow"><feDropShadow dx="2" dy="4" stdDeviation="8" flood-color="#003333" flood-opacity="0.25"/></filter>
  </defs>
  <rect width="800" height="600" fill="url(#bg)"/>
  <rect width="800" height="600" fill="url(#ov)"/>
  <circle cx="120" cy="80" r="120" fill="#E0F7FA" opacity="0.08"/>
  <circle cx="700" cy="520" r="160" fill="#4DD0E1" opacity="0.1"/>
  <circle cx="700" cy="80" r="100" fill="#0097A7" opacity="0.12"/>
  <circle cx="80" cy="500" r="110" fill="#006064" opacity="0.1"/>
  <path d="M0,350 Q200,300 400,370 T800,340 L800,600 L0,600 Z" fill="#0097A7" opacity="0.08"/>
  <path d="M-50,400 Q250,340 500,420 T850,390 L850,600 Z" fill="#006064" opacity="0.05"/>
  <g transform="translate(400,160)" opacity="0.12">
    <path d="M-25,0 Q-15,-25 0,-10 Q15,-25 25,0 Q15,10 0,20 Q-15,10 -25,0Z" fill="#FFF"/>
  </g>
  <g filter="url(#shadow)" transform="translate(250,230)">
    <rect x="0" y="0" width="300" height="200" rx="8" fill="#2C2C2C"/>
    <rect x="4" y="4" width="292" height="170" rx="4" fill="#FFF"/>
    <rect x="4" y="4" width="292" height="170" rx="4" fill="url(#bg)" opacity="0.04"/>
    <rect x="100" y="182" width="100" height="4" rx="2" fill="#444"/>
    <rect x="0" y="200" width="300" height="14" rx="0 0 8 8" fill="#3C3C3C"/>
    <rect x="100" y="207" width="100" height="3" rx="1.5" fill="#555"/>
  </g>
  <g transform="translate(560,120)" opacity="0.15">
    <rect x="-20" y="-8" width="40" height="16" rx="4" fill="#FFF"/>
    <rect x="-8" y="-20" width="16" height="40" rx="4" fill="#FFF"/>
  </g>
  <g transform="translate(140,490)" opacity="0.12">
    <path d="M0,0 Q20,-20 40,0" fill="none" stroke="#FFF" stroke-width="1.5"/>
    <path d="M0,10 Q20,-10 40,10" fill="none" stroke="#FFF" stroke-width="1.5"/>
  </g>
  <text x="400" y="70" font-family="Arial Black,sans-serif" font-size="34" font-weight="900" fill="#FFF" text-anchor="middle" filter="url(#glow)" opacity="0.12">PRISTINE</text>
  <text x="400" y="550" font-family="Georgia,serif" font-size="22" fill="#FFF" text-anchor="middle" opacity="0.3" letter-spacing="5">D E N T A L</text>
  <text x="400" y="578" font-family="Arial,sans-serif" font-size="12" fill="#FFF" text-anchor="middle" opacity="0.2" letter-spacing="4">BRIGHT SMILES, HEALTHY LIVES</text>
  <circle cx="310" cy="580" r="2.5" fill="#E0F7FA" opacity="0.35"/>
  <circle cx="332" cy="580" r="2.5" fill="#E0F7FA" opacity="0.25"/>
  <circle cx="354" cy="580" r="2.5" fill="#E0F7FA" opacity="0.35"/>
  <circle cx="446" cy="580" r="2.5" fill="#E0F7FA" opacity="0.35"/>
  <circle cx="468" cy="580" r="2.5" fill="#E0F7FA" opacity="0.25"/>
  <circle cx="490" cy="580" r="2.5" fill="#E0F7FA" opacity="0.35"/>
</svg>
