<svg xmlns="http://www.w3.org/2000/svg" viewBox="0 0 800 600" width="800" height="600">
  <defs>
    <linearGradient id="bg" x1="0" y1="0" x2="1" y2="1">
      <stop offset="0%" stop-color="#0D47A1"/>
      <stop offset="50%" stop-color="#1976D2"/>
      <stop offset="100%" stop-color="#FF6F00"/>
    </linearGradient>
    <linearGradient id="ov" x1="1" y1="0" x2="0" y2="1">
      <stop offset="0%" stop-color="#003D00" stop-opacity="0.3"/>
      <stop offset="100%" stop-color="#FFF9C4" stop-opacity="0.1"/>
    </linearGradient>
    <filter id="glow"><feGaussianBlur stdDeviation="3" result="b"/><feMerge><feMergeNode in="b"/><feMergeNode in="SourceGraphic"/></feMerge></filter>
    <filter id="shadow"><feDropShadow dx="2" dy="4" stdDeviation="8" flood-color="#003D00" flood-opacity="0.3"/></filter>
  </defs>
  <rect width="800" height="600" fill="url(#bg)"/>
  <rect width="800" height="600" fill="url(#ov)"/>
  <circle cx="100" cy="80" r="130" fill="#FFF9C4" opacity="0.08"/>
  <circle cx="720" cy="520" r="170" fill="#FF6F00" opacity="0.1"/>
  <circle cx="700" cy="80" r="100" fill="#1976D2" opacity="0.1"/>
  <circle cx="80" cy="500" r="120" fill="#0D47A1" opacity="0.1"/>
  <path d="M0,350 Q200,300 400,370 T800,340 L800,600 L0,600 Z" fill="#1976D2" opacity="0.08"/>
  <path d="M-50,400 Q250,340 500,420 T850,390 L850,600 Z" fill="#0D47A1" opacity="0.05"/>
  <g transform="translate(400,160)" opacity="0.12">
    <circle cx="0" cy="0" r="25" fill="none" stroke="#FFF" stroke-width="3"/>
    <rect x="-15" y="-4" width="30" height="8" rx="2" fill="#FFF"/>
    <rect x="-4" y="-15" width="8" height="30" rx="2" fill="#FFF"/>
    <rect x="15" y="-4" width="15" height="8" rx="2" fill="#FF6F00"/>
  </g>
  <g filter="url(#shadow)" transform="translate(260,250)">
    <rect x="0" y="0" width="280" height="180" rx="8" fill="#2C2C2C"/>
    <rect x="4" y="4" width="272" height="150" rx="4" fill="#FFF"/>
    <rect x="4" y="4" width="272" height="150" rx="4" fill="url(#bg)" opacity="0.04"/>
    <rect x="90" y="166" width="100" height="4" rx="2" fill="#444"/>
    <rect x="0" y="180" width="280" height="14" rx="0 0 8 8" fill="#3C3C3C"/>
    <rect x="90" y="186" width="100" height="3" rx="1.5" fill="#555"/>
  </g>
  <g transform="translate(580,110)" opacity="0.15">
    <rect x="-12" y="-20" width="24" height="40" rx="4" fill="none" stroke="#FF6F00" stroke-width="2.5"/>
    <path d="M-12,-10 L12,-10" stroke="#FF6F00" stroke-width="2.5"/>
  </g>
  <g transform="translate(140,120)" opacity="0.1">
    <circle cx="0" cy="0" r="6" fill="none" stroke="#FFF" stroke-width="1.5"/>
    <path d="M-6,0 L-12,0 M6,0 L12,0 M0,-6 L0,-12 M0,6 L0,12" stroke="#FFF" stroke-width="1.5"/>
  </g>
  <text x="400" y="70" font-family="Arial Black,sans-serif" font-size="34" font-weight="900" fill="#FFF" text-anchor="middle" filter="url(#glow)" opacity="0.12">QUICKFIX</text>
  <text x="400" y="550" font-family="Georgia,serif" font-size="22" fill="#FFF" text-anchor="middle" opacity="0.3" letter-spacing="5">S E R V I C E S</text>
  <text x="400" y="578" font-family="Arial,sans-serif" font-size="12" fill="#FFF" text-anchor="middle" opacity="0.2" letter-spacing="4">FAST &amp; RELIABLE REPAIRS</text>
  <circle cx="310" cy="580" r="2.5" fill="#FF6F00" opacity="0.35"/>
  <circle cx="332" cy="580" r="2.5" fill="#FF6F00" opacity="0.25"/>
  <circle cx="354" cy="580" r="2.5" fill="#FF6F00" opacity="0.35"/>
  <circle cx="446" cy="580" r="2.5" fill="#FF6F00" opacity="0.35"/>
  <circle cx="468" cy="580" r="2.5" fill="#FF6F00" opacity="0.25"/>
  <circle cx="490" cy="580" r="2.5" fill="#FF6F00" opacity="0.35"/>
</svg>
