<svg xmlns="http://www.w3.org/2000/svg" viewBox="0 0 800 600" width="800" height="600">
  <defs>
    <linearGradient id="bg" x1="0" y1="0" x2="1" y2="1">
      <stop offset="0%" stop-color="#E91E63"/>
      <stop offset="40%" stop-color="#F06292"/>
      <stop offset="100%" stop-color="#F48FB1"/>
    </linearGradient>
    <linearGradient id="ov" x1="0" y1="1" x2="1" y2="0">
      <stop offset="0%" stop-color="#880E4F" stop-opacity="0.4"/>
      <stop offset="100%" stop-color="#FCE4EC" stop-opacity="0.15"/>
    </linearGradient>
    <filter id="glow"><feGaussianBlur stdDeviation="3" result="b"/><feMerge><feMergeNode in="b"/><feMergeNode in="SourceGraphic"/></feMerge></filter>
    <filter id="shadow"><feDropShadow dx="2" dy="4" stdDeviation="8" flood-color="#880E4F" flood-opacity="0.25"/></filter>
  </defs>
  <rect width="800" height="600" fill="url(#bg)"/>
  <rect width="800" height="600" fill="url(#ov)"/>
  <circle cx="120" cy="100" r="110" fill="#FCE4EC" opacity="0.08"/>
  <circle cx="680" cy="500" r="150" fill="#F06292" opacity="0.12"/>
  <circle cx="700" cy="100" r="80" fill="#E91E63" opacity="0.1"/>
  <circle cx="100" cy="500" r="120" fill="#F48FB1" opacity="0.08"/>
  <path d="M0,380 Q200,330 400,400 T800,360 L800,600 L0,600 Z" fill="#F06292" opacity="0.1"/>
  <path d="M-50,430 Q200,370 450,450 T850,410 L850,600 Z" fill="#E91E63" opacity="0.07"/>
  <g transform="translate(400,160)" opacity="0.12">
    <circle cx="0" cy="0" r="35" fill="none" stroke="#FFF" stroke-width="2"/>
    <circle cx="0" cy="-12" r="12" fill="none" stroke="#FFF" stroke-width="2"/>
    <path d="M-8,8 Q0,20 8,8" fill="none" stroke="#FFF" stroke-width="2"/>
  </g>
  <g filter="url(#shadow)" transform="translate(290,230)">
    <rect x="0" y="0" width="220" height="340" rx="18" fill="#1A1A1A"/>
    <rect x="8" y="8" width="204" height="290" rx="14" fill="#FFF"/>
    <rect x="8" y="8" width="204" height="290" rx="14" fill="url(#bg)" opacity="0.04"/>
    <rect x="85" y="14" width="50" height="6" rx="3" fill="#333"/>
    <circle cx="110" cy="322" r="5" fill="#555"/>
    <ellipse cx="110" cy="170" rx="50" ry="55" fill="#F48FB1" opacity="0.1"/>
    <rect x="30" y="240" width="160" height="6" rx="3" fill="#333" opacity="0.08"/>
    <rect x="30" y="253" width="120" height="4" rx="2" fill="#333" opacity="0.05"/>
  </g>
  <g transform="translate(80,80)" opacity="0.1">
    <path d="M0,0 Q10,-15 20,0 Q30,-15 40,0" fill="none" stroke="#FFF" stroke-width="2"/>
  </g>
  <text x="400" y="70" font-family="Arial Black,sans-serif" font-size="36" font-weight="900" fill="#FFF" text-anchor="middle" filter="url(#glow)" opacity="0.12">ROSHNI</text>
  <text x="400" y="550" font-family="Georgia,serif" font-size="22" fill="#FFF" text-anchor="middle" opacity="0.3" letter-spacing="5">B E A U T Y</text>
  <text x="400" y="578" font-family="Arial,sans-serif" font-size="12" fill="#FFF" text-anchor="middle" opacity="0.2" letter-spacing="4">GLOW WITH CONFIDENCE</text>
  <circle cx="310" cy="580" r="2.5" fill="#FCE4EC" opacity="0.35"/>
  <circle cx="332" cy="580" r="2.5" fill="#FCE4EC" opacity="0.25"/>
  <circle cx="354" cy="580" r="2.5" fill="#FCE4EC" opacity="0.35"/>
  <circle cx="446" cy="580" r="2.5" fill="#FCE4EC" opacity="0.35"/>
  <circle cx="468" cy="580" r="2.5" fill="#FCE4EC" opacity="0.25"/>
  <circle cx="490" cy="580" r="2.5" fill="#FCE4EC" opacity="0.35"/>
</svg>
