<svg xmlns="http://www.w3.org/2000/svg" viewBox="0 0 800 600" width="800" height="600">
  <defs>
    <linearGradient id="bg" x1="0" y1="0" x2="1" y2="1">
      <stop offset="0%" stop-color="#1565C0"/>
      <stop offset="50%" stop-color="#42A5F5"/>
      <stop offset="100%" stop-color="#FDD835"/>
    </linearGradient>
    <linearGradient id="ov" x1="1" y1="0" x2="0" y2="1">
      <stop offset="0%" stop-color="#0D47A1" stop-opacity="0.4"/>
      <stop offset="100%" stop-color="#FFF9C4" stop-opacity="0.12"/>
    </linearGradient>
    <filter id="glow"><feGaussianBlur stdDeviation="3" result="b"/><feMerge><feMergeNode in="b"/><feMergeNode in="SourceGraphic"/></feMerge></filter>
    <filter id="shadow"><feDropShadow dx="2" dy="4" stdDeviation="8" flood-color="#0D47A1" flood-opacity="0.25"/></filter>
  </defs>
  <rect width="800" height="600" fill="url(#bg)"/>
  <rect width="800" height="600" fill="url(#ov)"/>
  <circle cx="100" cy="80" r="120" fill="#FFF9C4" opacity="0.08"/>
  <circle cx="720" cy="520" r="170" fill="#42A5F5" opacity="0.1"/>
  <circle cx="700" cy="80" r="90" fill="#1565C0" opacity="0.12"/>
  <circle cx="80" cy="500" r="110" fill="#FDD835" opacity="0.08"/>
  <path d="M0,370 Q200,320 400,390 T800,360 L800,600 L0,600 Z" fill="#42A5F5" opacity="0.08"/>
  <path d="M-50,420 Q250,360 500,440 T850,410 L850,600 Z" fill="#1565C0" opacity="0.05"/>
  <g transform="translate(400,160)" opacity="0.12">
    <path d="M-25,10 Q-15,-20 0,-10 Q15,-20 25,10 Q10,0 0,8 Q-10,0 -25,10Z" fill="#FDD835"/>
  </g>
  <g transform="translate(120,180)" opacity="0.15">
    <circle cx="0" cy="0" r="5" fill="#FDD835"/>
    <circle cx="15" cy="-10" r="3" fill="#FDD835" opacity="0.7"/>
    <circle cx="-15" cy="-8" r="4" fill="#FDD835" opacity="0.6"/>
    <circle cx="30" cy="5" r="2.5" fill="#FDD835" opacity="0.5"/>
  </g>
  <g filter="url(#shadow)" transform="translate(280,240)">
    <rect x="0" y="0" width="240" height="180" rx="8" fill="#2C2C2C"/>
    <rect x="4" y="4" width="232" height="150" rx="4" fill="#FFF"/>
    <rect x="4" y="4" width="232" height="150" rx="4" fill="url(#bg)" opacity="0.04"/>
    <rect x="70" y="166" width="100" height="4" rx="2" fill="#444"/>
    <rect x="0" y="180" width="240" height="14" rx="0 0 8 8" fill="#3C3C3C"/>
    <rect x="70" y="186" width="100" height="3" rx="1.5" fill="#555"/>
  </g>
  <g transform="translate(580,110)" opacity="0.12">
    <rect x="-15" y="-8" width="30" height="16" rx="4" fill="#FDD835"/>
    <rect x="-6" y="-15" width="12" height="30" rx="3" fill="#FDD835"/>
  </g>
  <text x="400" y="70" font-family="Arial Black,sans-serif" font-size="34" font-weight="900" fill="#FFF" text-anchor="middle" filter="url(#glow)" opacity="0.12">SMILECRAFT</text>
  <text x="400" y="550" font-family="Georgia,serif" font-size="22" fill="#FFF" text-anchor="middle" opacity="0.3" letter-spacing="5">D E N T A L</text>
  <text x="400" y="578" font-family="Arial,sans-serif" font-size="12" fill="#FFF" text-anchor="middle" opacity="0.2" letter-spacing="4">CRAFTING BEAUTIFUL SMILES</text>
  <circle cx="310" cy="580" r="2.5" fill="#FFF9C4" opacity="0.35"/>
  <circle cx="332" cy="580" r="2.5" fill="#FFF9C4" opacity="0.25"/>
  <circle cx="354" cy="580" r="2.5" fill="#FFF9C4" opacity="0.35"/>
  <circle cx="446" cy="580" r="2.5" fill="#FFF9C4" opacity="0.35"/>
  <circle cx="468" cy="580" r="2.5" fill="#FFF9C4" opacity="0.25"/>
  <circle cx="490" cy="580" r="2.5" fill="#FFF9C4" opacity="0.35"/>
</svg>
