<svg xmlns="http://www.w3.org/2000/svg" viewBox="0 0 800 600" width="800" height="600">
  <defs>
    <linearGradient id="bg" x1="0" y1="0" x2="1" y2="1">
      <stop offset="0%" stop-color="#2E7D32"/>
      <stop offset="50%" stop-color="#4CAF50"/>
      <stop offset="100%" stop-color="#8BC34A"/>
    </linearGradient>
    <linearGradient id="ov" x1="1" y1="0" x2="0" y2="1">
      <stop offset="0%" stop-color="#FFB300" stop-opacity="0.35"/>
      <stop offset="100%" stop-color="#1B5E20" stop-opacity="0.3"/>
    </linearGradient>
    <filter id="glow"><feGaussianBlur stdDeviation="3" result="b"/><feMerge><feMergeNode in="b"/><feMergeNode in="SourceGraphic"/></feMerge></filter>
    <filter id="shadow"><feDropShadow dx="2" dy="4" stdDeviation="8" flood-color="#1B5E20" flood-opacity="0.3"/></filter>
  </defs>
  <rect width="800" height="600" fill="url(#bg)"/>
  <rect width="800" height="600" fill="url(#ov)"/>
  <circle cx="650" cy="100" r="130" fill="#FFB300" opacity="0.1"/>
  <circle cx="100" cy="500" r="160" fill="#4CAF50" opacity="0.12"/>
  <circle cx="750" cy="450" r="100" fill="#8BC34A" opacity="0.15"/>
  <circle cx="50" cy="100" r="80" fill="#2E7D32" opacity="0.15"/>
  <path d="M0,350 Q200,300 400,380 T800,340 L800,600 L0,600 Z" fill="#4CAF50" opacity="0.12"/>
  <path d="M-50,400 Q250,340 500,420 T850,380 L850,600 Z" fill="#2E7D32" opacity="0.08"/>
  <g transform="translate(400,180)" opacity="0.12">
    <path d="M-25,10 L-20,-20 L20,-20 L25,10 Z" fill="none" stroke="#FFF" stroke-width="4" stroke-linejoin="round"/>
    <path d="M-20,-20 Q-20,-35 0,-35 Q20,-35 20,-20" fill="none" stroke="#FFF" stroke-width="4"/>
  </g>
  <text x="400" y="160" font-family="Arial,sans-serif" font-size="28" fill="#FFD54F" text-anchor="middle" opacity="0.2" filter="url(#glow)">SHOP</text>
  <g filter="url(#shadow)" transform="translate(310,230)">
    <rect x="0" y="0" width="180" height="300" rx="16" fill="#222"/>
    <rect x="6" y="6" width="168" height="260" rx="12" fill="#FFF"/>
    <rect x="70" y="11" width="40" height="6" rx="3" fill="#444"/>
    <circle cx="90" cy="286" r="4" fill="#555"/>
    <rect x="20" y="40" width="140" height="80" rx="4" fill="#4CAF50" opacity="0.15"/>
    <rect x="20" y="130" width="140" height="8" rx="2" fill="#333" opacity="0.1"/>
    <rect x="20" y="145" width="100" height="6" rx="2" fill="#333" opacity="0.07"/>
    <rect x="20" y="160" width="140" height="8" rx="2" fill="#333" opacity="0.1"/>
    <rect x="20" y="175" width="80" height="6" rx="2" fill="#333" opacity="0.07"/>
  </g>
  <text x="400" y="70" font-family="Arial Black,sans-serif" font-size="40" font-weight="900" fill="#FFF" text-anchor="middle" filter="url(#glow)" opacity="0.12">SREE RAM</text>
  <text x="400" y="565" font-family="Georgia,serif" font-size="22" fill="#FFF" text-anchor="middle" opacity="0.3" letter-spacing="5">S T O R E</text>
  <text x="400" y="585" font-family="Arial,sans-serif" font-size="12" fill="#FFF" text-anchor="middle" opacity="0.2" letter-spacing="4">YOUR LOCAL GENERAL STORE</text>
  <circle cx="310" cy="587" r="2.5" fill="#FFD54F" opacity="0.35"/>
  <circle cx="335" cy="587" r="2.5" fill="#FFD54F" opacity="0.25"/>
  <circle cx="360" cy="587" r="2.5" fill="#FFD54F" opacity="0.35"/>
  <circle cx="440" cy="587" r="2.5" fill="#FFD54F" opacity="0.35"/>
  <circle cx="465" cy="587" r="2.5" fill="#FFD54F" opacity="0.25"/>
  <circle cx="490" cy="587" r="2.5" fill="#FFD54F" opacity="0.35"/>
</svg>
