<svg xmlns="http://www.w3.org/2000/svg" viewBox="0 0 800 600" width="800" height="600">
  <defs>
    <linearGradient id="bg" x1="0" y1="0" x2="1" y2="1">
      <stop offset="0%" stop-color="#4A00E0"/>
      <stop offset="50%" stop-color="#6C63FF"/>
      <stop offset="100%" stop-color="#7B2FF7"/>
    </linearGradient>
    <linearGradient id="ov" x1="1" y1="0" x2="0" y2="1">
      <stop offset="0%" stop-color="#1A237E" stop-opacity="0.5"/>
      <stop offset="100%" stop-color="#CE93D8" stop-opacity="0.15"/>
    </linearGradient>
    <filter id="glow"><feGaussianBlur stdDeviation="3" result="b"/><feMerge><feMergeNode in="b"/><feMergeNode in="SourceGraphic"/></feMerge></filter>
    <filter id="shadow"><feDropShadow dx="2" dy="4" stdDeviation="8" flood-color="#1A237E" flood-opacity="0.3"/></filter>
  </defs>
  <rect width="800" height="600" fill="url(#bg)"/>
  <rect width="800" height="600" fill="url(#ov)"/>
  <circle cx="100" cy="80" r="140" fill="#CE93D8" opacity="0.1"/>
  <circle cx="700" cy="520" r="170" fill="#6C63FF" opacity="0.12"/>
  <circle cx="80" cy="520" r="100" fill="#4A00E0" opacity="0.1"/>
  <circle cx="700" cy="80" r="90" fill="#7B2FF7" opacity="0.12"/>
  <path d="M0,300 Q200,250 400,350 T800,290 L800,0 L0,0 Z" fill="#FFF" opacity="0.04"/>
  <path d="M-50,500 Q200,430 450,510 T850,470 L850,600 Z" fill="#6C63FF" opacity="0.08"/>
  <g transform="translate(400,160)" opacity="0.08">
    <rect x="-30" y="-30" width="60" height="60" rx="4" fill="none" stroke="#FFF" stroke-width="3"/>
    <rect x="-16" y="-16" width="32" height="32" rx="2" fill="none" stroke="#FFF" stroke-width="2"/>
  </g>
  <g transform="translate(560,140)" opacity="0.12">
    <circle cx="0" cy="0" r="25" fill="none" stroke="#FFF" stroke-width="3"/>
    <text x="0" y="8" font-family="Arial,sans-serif" font-size="20" fill="#FFF" text-anchor="middle" font-weight="bold">&lt;/&gt;</text>
  </g>
  <g filter="url(#shadow)" transform="translate(250,100)">
    <rect x="0" y="0" width="300" height="200" rx="8" fill="#2C2C2C"/>
    <rect x="4" y="4" width="292" height="170" rx="4" fill="#FFF"/>
    <rect x="4" y="4" width="292" height="170" rx="4" fill="url(#bg)" opacity="0.05"/>
    <rect x="100" y="180" width="100" height="4" rx="2" fill="#444"/>
    <rect x="0" y="200" width="300" height="12" rx="0 0 8 8" fill="#3C3C3C"/>
    <rect x="100" y="207" width="100" height="3" rx="1.5" fill="#555"/>
  </g>
  <g transform="translate(520,370)" opacity="0.15">
    <text x="0" y="0" font-family="Times New Roman,serif" font-size="18" fill="#FFF" font-style="italic">"Education is the most</text>
    <text x="0" y="22" font-family="Times New Roman,serif" font-size="18" fill="#FFF" font-style="italic">powerful weapon"</text>
  </g>
  <text x="400" y="70" font-family="Arial Black,sans-serif" font-size="36" font-weight="900" fill="#FFF" text-anchor="middle" filter="url(#glow)" opacity="0.12">SRIJAN</text>
  <text x="400" y="550" font-family="Georgia,serif" font-size="22" fill="#FFF" text-anchor="middle" opacity="0.3" letter-spacing="5">C O A C H I N G</text>
  <text x="400" y="578" font-family="Arial,sans-serif" font-size="12" fill="#FFF" text-anchor="middle" opacity="0.2" letter-spacing="4">EXCELLENCE IN EDUCATION</text>
  <circle cx="310" cy="580" r="2.5" fill="#CE93D8" opacity="0.35"/>
  <circle cx="332" cy="580" r="2.5" fill="#CE93D8" opacity="0.25"/>
  <circle cx="354" cy="580" r="2.5" fill="#CE93D8" opacity="0.35"/>
  <circle cx="446" cy="580" r="2.5" fill="#CE93D8" opacity="0.35"/>
  <circle cx="468" cy="580" r="2.5" fill="#CE93D8" opacity="0.25"/>
  <circle cx="490" cy="580" r="2.5" fill="#CE93D8" opacity="0.35"/>
</svg>
