<svg xmlns="http://www.w3.org/2000/svg" viewBox="0 0 800 600" width="800" height="600">
  <defs>
    <linearGradient id="bg" x1="0" y1="0" x2="1" y2="1">
      <stop offset="0%" stop-color="#1A0000"/>
      <stop offset="40%" stop-color="#8B0000"/>
      <stop offset="100%" stop-color="#FFD700"/>
    </linearGradient>
    <linearGradient id="ov" x1="0" y1="1" x2="1" y2="0">
      <stop offset="0%" stop-color="#000" stop-opacity="0.5"/>
      <stop offset="100%" stop-color="#FFECB3" stop-opacity="0.08"/>
    </linearGradient>
    <filter id="glow"><feGaussianBlur stdDeviation="3" result="b"/><feMerge><feMergeNode in="b"/><feMergeNode in="SourceGraphic"/></feMerge></filter>
    <filter id="shadow"><feDropShadow dx="2" dy="4" stdDeviation="8" flood-color="#000" flood-opacity="0.5"/></filter>
  </defs>
  <rect width="800" height="600" fill="url(#bg)"/>
  <rect width="800" height="600" fill="url(#ov)"/>
  <circle cx="100" cy="80" r="130" fill="#FFECB3" opacity="0.05"/>
  <circle cx="720" cy="520" r="170" fill="#FFD700" opacity="0.06"/>
  <circle cx="700" cy="80" r="90" fill="#8B0000" opacity="0.1"/>
  <circle cx="80" cy="500" r="120" fill="#1A0000" opacity="0.12"/>
  <path d="M0,370 Q200,330 400,400 T800,360 L800,600 L0,600 Z" fill="#8B0000" opacity="0.08"/>
  <path d="M-50,420 Q250,370 500,450 T850,410 L850,600 Z" fill="#1A0000" opacity="0.05"/>
  <g transform="translate(400,140)" opacity="0.12">
    <path d="M-20,15 Q-25,-10 0,-25 Q25,-10 20,15 Q10,25 0,20 Q-10,25 -20,15Z" fill="none" stroke="#FFD700" stroke-width="2.5"/>
    <path d="M-15,15 Q0,-15 15,15" fill="none" stroke="#FFD700" stroke-width="1.5"/>
  </g>
  <g filter="url(#shadow)" transform="translate(260,240)">
    <rect x="0" y="0" width="280" height="200" rx="10" fill="#1A1A1A"/>
    <rect x="5" y="5" width="270" height="170" rx="6" fill="#FFF8E1"/>
    <rect x="5" y="5" width="270" height="170" rx="6" fill="url(#bg)" opacity="0.03"/>
    <rect x="90" y="182" width="100" height="4" rx="2" fill="#444"/>
    <rect x="0" y="200" width="280" height="14" rx="0 0 10 10" fill="#2C2C2C"/>
    <rect x="90" y="206" width="100" height="3" rx="1.5" fill="#555"/>
  </g>
  <g transform="translate(580,100)" opacity="0.15">
    <circle cx="0" cy="0" r="5" fill="#FFD700"/>
    <circle cx="20" cy="-8" r="3.5" fill="#FFD700" opacity="0.7"/>
    <circle cx="-15" cy="-12" r="4" fill="#FFD700" opacity="0.6"/>
    <circle cx="15" cy="10" r="3" fill="#FFD700" opacity="0.5"/>
  </g>
  <g transform="translate(140,120)" opacity="0.1">
    <path d="M0,0 L10,-10 M0,0 L-10,-10 M0,0 L0,-15" stroke="#FFD700" stroke-width="1.5"/>
  </g>
  <text x="400" y="70" font-family="Georgia,serif" font-size="34" font-weight="bold" font-style="italic" fill="#FFF" text-anchor="middle" filter="url(#glow)" opacity="0.12">Tandoori Nights</text>
  <text x="400" y="555" font-family="Georgia,serif" font-size="22" fill="#FFD700" text-anchor="middle" opacity="0.35" letter-spacing="6" filter="url(#glow)">R E S T A U R A N T</text>
  <text x="400" y="578" font-family="Arial,sans-serif" font-size="12" fill="#FFECB3" text-anchor="middle" opacity="0.22" letter-spacing="4">A TASTE OF INDIA</text>
  <circle cx="310" cy="580" r="2.5" fill="#FFD700" opacity="0.4"/>
  <circle cx="332" cy="580" r="2.5" fill="#FFD700" opacity="0.3"/>
  <circle cx="354" cy="580" r="2.5" fill="#FFD700" opacity="0.4"/>
  <circle cx="446" cy="580" r="2.5" fill="#FFD700" opacity="0.4"/>
  <circle cx="468" cy="580" r="2.5" fill="#FFD700" opacity="0.3"/>
  <circle cx="490" cy="580" r="2.5" fill="#FFD700" opacity="0.4"/>
</svg>
