<svg xmlns="http://www.w3.org/2000/svg" viewBox="0 0 800 500" fill="none">
  <rect width="800" height="500" rx="8" fill="#FDF2F8"/>
  <rect x="0" y="0" width="800" height="50" fill="#BE185D"/>
  <text x="30" y="32" fill="#FFF" font-size="18" font-weight="800" font-family="Inter,sans-serif">💄 Glamour Studio</text>
  <rect x="600" y="12" width="80" height="26" rx="13" fill="#FFF" opacity="0.15"/>
  <text x="640" y="29" fill="#FFF" font-size="10" text-anchor="middle">Services</text>
  <rect x="695" y="12" width="80" height="26" rx="13" fill="#FDF2F8"/>
  <text x="735" y="29" fill="#BE185D" font-size="10" font-weight="600" text-anchor="middle">Book Now</text>
  <rect x="30" y="75" width="350" height="200" rx="12" fill="url(#bs1)"/>
  <defs><linearGradient id="bs1" x1="0" y1="0" x2="1" y2="1"><stop offset="0%" stop-color="#DB2777"/><stop offset="100%" stop-color="#9D174D"/></linearGradient></defs>
  <text x="205" y="140" fill="#FFF" font-size="26" font-weight="800" text-anchor="middle" font-family="Inter,sans-serif">Transform Your Look</text>
  <text x="205" y="168" fill="#FCE7F3" font-size="12" text-anchor="middle" font-family="Inter,sans-serif">Book your appointment today!</text>
  <rect x="130" y="190" width="150" height="36" rx="18" fill="#FFF"/>
  <text x="205" y="213" fill="#BE185D" font-size="11" font-weight="700" text-anchor="middle">✨ Book Now</text>
  <rect x="400" y="75" width="370" height="200" rx="12" fill="#FFF" stroke="#FBCFE8" stroke-width="1"/>
  <rect x="420" y="90" width="120" height="35" rx="6" fill="#FDF2F8"/>
  <text x="435" y="111" fill="#BE185D" font-size="12" font-weight="700">Our Services</text>
  <text x="420" y="140" fill="#1C1917" font-size="12">💇 Haircut & Style — ₹499</text>
  <text x="420" y="160" fill="#1C1917" font-size="12">💅 Manicure & Pedicure — ₹799</text>
  <text x="420" y="180" fill="#1C1917" font-size="12">💄 Bridal Makeup — ₹4,999</text>
  <text x="420" y="200" fill="#1C1917" font-size="12">🧴 Facial & Cleanup — ₹699</text>
  <text x="420" y="220" fill="#1C1917" font-size="12">✨ Hair Color — ₹1,299</text>
  <text x="420" y="245" fill="#BE185D" font-size="11">★ 4.7 | 200+ happy customers</text>
  <rect x="30" y="295" width="230" height="130" rx="10" fill="#FFF" stroke="#FBCFE8" stroke-width="1"/>
  <text x="145" y="325" fill="#BE185D" font-size="14" font-weight="700" text-anchor="middle">📸 Before & After</text>
  <rect x="50" y="340" width="90" height="70" rx="6" fill="#FCE7F3"/>
  <text x="95" y="380" fill="#DB2777" font-size="10" text-anchor="middle">Before</text>
  <rect x="150" y="340" width="90" height="70" rx="6" fill="#FCE7F3"/>
  <text x="195" y="380" fill="#DB2777" font-size="10" text-anchor="middle">After</text>
  <rect x="280" y="295" width="240" height="130" rx="10" fill="#FFF" stroke="#FBCFE8" stroke-width="1"/>
  <text x="400" y="325" fill="#BE185D" font-size="14" font-weight="700" text-anchor="middle">⭐ Client Reviews</text>
  <text x="295" y="348" fill="#78716C" font-size="10">"Amazing service! Loved the haircut."</text>
  <text x="295" y="365" fill="#78716C" font-size="10">"Best bridal makeup in town!"</text>
  <text x="295" y="382" fill="#78716C" font-size="10">"Very professional and hygienic."</text>
  <text x="295" y="400" fill="#F59E0B" font-size="10">★★★★★</text>
  <rect x="540" y="295" width="230" height="130" rx="10" fill="#FFF" stroke="#FBCFE8" stroke-width="1"/>
  <text x="655" y="325" fill="#BE185D" font-size="14" font-weight="700" text-anchor="middle">📍 Visit Us</text>
  <text x="560" y="350" fill="#78716C" font-size="11">123 Main Road, Indiranagar</text>
  <text x="560" y="368" fill="#78716C" font-size="11">Bangalore, 560038</text>
  <text x="560" y="386" fill="#BE185D" font-size="11">📞 +91-98765-43210</text>
  <text x="560" y="404" fill="#BE185D" font-size="11">Mon-Sat: 10AM - 8PM</text>
  <rect x="30" y="445" width="740" height="40" rx="6" fill="#831843"/>
  <text x="400" y="470" fill="#FBCFE8" font-size="10" text-anchor="middle">© 2026 Glamour Studio. Beauty Redefined.</text>
</svg>