<svg xmlns="http://www.w3.org/2000/svg" viewBox="0 0 800 500" fill="none">
  <rect width="800" height="500" rx="8" fill="#F0FDF4"/>
  <rect x="0" y="0" width="800" height="50" fill="#166534"/>
  <text x="30" y="32" fill="#FFF" font-size="18" font-weight="800" font-family="Inter,sans-serif">🏥 CityCare Clinic</text>
  <rect x="550" y="12" width="80" height="26" rx="13" fill="#FFF" opacity="0.15"/>
  <text x="590" y="29" fill="#FFF" font-size="10" text-anchor="middle">Services</text>
  <rect x="645" y="12" width="80" height="26" rx="13" fill="#22C55E"/>
  <text x="685" y="29" fill="#FFF" font-size="10" font-weight="600" text-anchor="middle">Book Now</text>
  <rect x="740" y="12" width="40" height="26" rx="13" fill="#FFF" opacity="0.15"/>
  <text x="760" y="29" fill="#FFF" font-size="10" text-anchor="middle">☎</text>
  <rect x="30" y="75" width="740" height="170" rx="12" fill="url(#ch1)"/>
  <defs><linearGradient id="ch1" x1="0" y1="0" x2="1" y2="1"><stop offset="0%" stop-color="#15803D"/><stop offset="100%" stop-color="#166534"/></linearGradient></defs>
  <text x="400" y="130" fill="#FFF" font-size="30" font-weight="800" text-anchor="middle" font-family="Inter,sans-serif">Your Health is Our Priority</text>
  <text x="400" y="158" fill="#DCFCE7" font-size="13" text-anchor="middle" font-family="Inter,sans-serif">Expert doctors • Modern facility • Compassionate care</text>
  <rect x="300" y="180" width="200" height="38" rx="19" fill="#FFF"/>
  <text x="400" y="205" fill="#166534" font-size="12" font-weight="700" text-anchor="middle">📅 Book Appointment</text>
  <rect x="30" y="265" width="175" height="100" rx="8" fill="#FFF" stroke="#DCFCE7" stroke-width="1"/>
  <text x="45" y="290" fill="#166534" font-size="20" font-weight="700">150+</text>
  <text x="45" y="308" fill="#78716C" font-size="10">Happy Patients</text>
  <rect x="45" y="320" width="60" height="4" rx="2" fill="#22C55E"/>
  <rect x="225" y="265" width="175" height="100" rx="8" fill="#FFF" stroke="#DCFCE7" stroke-width="1"/>
  <text x="240" y="290" fill="#166534" font-size="20" font-weight="700">4.9★</text>
  <text x="240" y="308" fill="#78716C" font-size="10">Google Rating</text>
  <rect x="240" y="320" width="60" height="4" rx="2" fill="#22C55E"/>
  <rect x="420" y="265" width="175" height="100" rx="8" fill="#FFF" stroke="#DCFCE7" stroke-width="1"/>
  <text x="435" y="290" fill="#166534" font-size="20" font-weight="700">10+</text>
  <text x="435" y="308" fill="#78716C" font-size="10">Specialists</text>
  <rect x="435" y="320" width="60" height="4" rx="2" fill="#22C55E"/>
  <rect x="615" y="265" width="155" height="100" rx="8" fill="#FFF" stroke="#DCFCE7" stroke-width="1"/>
  <text x="630" y="290" fill="#166534" font-size="20" font-weight="700">99%</text>
  <text x="630" y="308" fill="#78716C" font-size="10">Satisfaction</text>
  <rect x="630" y="320" width="60" height="4" rx="2" fill="#22C55E"/>
  <rect x="30" y="385" width="740" height="38" rx="8" fill="#ECFDF5"/>
  <text x="400" y="408" fill="#15803D" font-size="11" text-anchor="middle">🌟 Emergency services available 24/7 | Call: +91-12345-67890</text>
  <rect x="30" y="435" width="740" height="50" rx="6" fill="#052E16"/>
  <text x="400" y="462" fill="#A7F3D0" font-size="10" text-anchor="middle">© 2026 CityCare Clinic. Committed to your well-being.</text>
</svg>