<svg xmlns="http://www.w3.org/2000/svg" viewBox="0 0 800 500" fill="none">
  <rect width="800" height="500" rx="8" fill="#0F172A"/>
  <rect x="0" y="0" width="200" height="500" fill="#1E293B"/>
  <text x="20" y="30" fill="#38BDF8" font-size="14" font-weight="800" font-family="Inter,sans-serif">◈ Dashboard</text>
  <rect x="15" y="50" width="170" height="36" rx="6" fill="#334155"/>
  <text x="30" y="73" fill="#F1F5F9" font-size="11">📊 Overview</text>
  <rect x="15" y="92" width="170" height="36" rx="6" fill="#1E293B"/>
  <text x="30" y="115" fill="#64748B" font-size="11">📦 Orders</text>
  <rect x="15" y="134" width="170" height="36" rx="6" fill="#1E293B"/>
  <text x="30" y="157" fill="#64748B" font-size="11">👥 Customers</text>
  <rect x="15" y="176" width="170" height="36" rx="6" fill="#1E293B"/>
  <text x="30" y="199" fill="#64748B" font-size="11">📈 Analytics</text>
  <rect x="15" y="218" width="170" height="36" rx="6" fill="#1E293B"/>
  <text x="30" y="241" fill="#64748B" font-size="11">⚙️ Settings</text>
  <text x="230" y="30" fill="#F1F5F9" font-size="18" font-weight="700">Overview</text>
  <text x="680" y="30" fill="#94A3B8" font-size="10">Last 30 days ▼</text>
  <rect x="230" y="50" width="170" height="80" rx="8" fill="#1E293B" stroke="#334155" stroke-width="1"/>
  <text x="250" y="75" fill="#64748B" font-size="10">Total Revenue</text>
  <text x="250" y="105" fill="#38BDF8" font-size="22" font-weight="800">₹12.4L</text>
  <rect x="415" y="50" width="170" height="80" rx="8" fill="#1E293B" stroke="#334155" stroke-width="1"/>
  <text x="435" y="75" fill="#64748B" font-size="10">Orders</text>
  <text x="435" y="105" fill="#10B981" font-size="22" font-weight="800">342</text>
  <rect x="600" y="50" width="170" height="80" rx="8" fill="#1E293B" stroke="#334155" stroke-width="1"/>
  <text x="620" y="75" fill="#64748B" font-size="10">Conversion</text>
 <text x="620" y="105" fill="#F59E0B" font-size="22" font-weight="800">4.8%</text>
  <rect x="230" y="145" width="540" height="180" rx="8" fill="#1E293B" stroke="#334155" stroke-width="1"/>
  <text x="250" y="170" fill="#F1F5F9" font-size="12" font-weight="600">Revenue Trend</text>
  <rect x="260" y="185" width="30" height="40" rx="3" fill="#3B82F6" opacity="0.6"/>
  <rect x="310" y="165" width="30" height="60" rx="3" fill="#3B82F6" opacity="0.6"/>
  <rect x="360" y="145" width="30" height="80" rx="3" fill="#3B82F6" opacity="0.6"/>
  <rect x="410" y="130" width="30" height="95" rx="3" fill="#3B82F6"/>
  <rect x="460" y="150" width="30" height="75" rx="3" fill="#3B82F6" opacity="0.8"/>
  <rect x="510" y="120" width="30" height="105" rx="3" fill="#3B82F6"/>
  <rect x="560" y="135" width="30" height="90" rx="3" fill="#3B82F6" opacity="0.8"/>
  <rect x="610" y="110" width="30" height="115" rx="3" fill="#10B981"/>
  <rect x="660" y="125" width="30" height="100" rx="3" fill="#3B82F6" opacity="0.7"/>
  <rect x="710" y="115" width="40" height="110" rx="3" fill="#3B82F6"/>
  <text x="260" y="335" fill="#64748B" font-size="8">May</text>
  <text x="360" y="335" fill="#64748B" font-size="8">Jun</text>
  <text x="460" y="335" fill="#64748B" font-size="8">Jul</text>
  <text x="560" y="335" fill="#64748B" font-size="8">Aug</text>
  <text x="660" y="335" fill="#64748B" font-size="8">Sep</text>
  <text x="740" y="335" fill="#64748B" font-size="8">Oct</text>
  <rect x="230" y="345" width="255" height="100" rx="8" fill="#1E293B" stroke="#334155" stroke-width="1"/>
  <text x="250" y="370" fill="#F1F5F9" font-size="12" font-weight="600">Recent Orders</text>
  <text x="250" y="392" fill="#94A3B8" font-size="10">#1042 — ₹1,299 — ✅ Completed</text>
  <text x="250" y="410" fill="#94A3B8" font-size="10">#1041 — ₹2,499 — ⏳ Processing</text>
  <text x="250" y="428" fill="#94A3B8" font-size="10">#1040 — ₹899 — ✅ Completed</text>
  <rect x="500" y="345" width="270" height="100" rx="8" fill="#1E293B" stroke="#334155" stroke-width="1"/>
  <text x="520" y="370" fill="#F1F5F9" font-size="12" font-weight="600">Quick Actions</text>
  <rect x="520" y="385" width="110" height="28" rx="6" fill="#3B82F6"/>
  <text x="575" y="404" fill="#FFF" font-size="10" font-weight="600" text-anchor="middle">+ New Order</text>
  <rect x="640" y="385" width="110" height="28" rx="6" fill="#334155"/>
  <text x="695" y="404" fill="#F1F5F9" font-size="10" font-weight="600" text-anchor="middle">Export</text>
  <rect x="520" y="420" width="230" height="18" rx="6" fill="#334155"/>
  <text x="635" y="433" fill="#94A3B8" font-size="9" text-anchor="middle">🔍 Search orders...</text>
  <rect x="0" y="475" width="800" height="25" fill="#0F172A"/>
  <text x="400" y="492" fill="#475569" font-size="9" text-anchor="middle">© 2026 Dashboard. All data is for demonstration.</text>
</svg>