<svg xmlns="http://www.w3.org/2000/svg" viewBox="0 0 800 500" fill="none">
  <rect width="800" height="500" rx="8" fill="#F0F9FF"/>
  <rect x="0" y="0" width="800" height="50" fill="#0284C7"/>
  <text x="30" y="32" fill="#FFF" font-size="18" font-weight="800" font-family="Inter,sans-serif">🦷 BrightSmile Dental</text>
  <rect x="560" y="12" width="70" height="26" rx="13" fill="#FFF" opacity="0.15"/>
  <text x="595" y="29" fill="#FFF" font-size="10" text-anchor="middle">Services</text>
  <rect x="645" y="12" width="70" height="26" rx="13" fill="#FFF" opacity="0.15"/>
  <text x="680" y="29" fill="#FFF" font-size="10" text-anchor="middle">Team</text>
  <rect x="730" y="12" width="50" height="26" rx="13" fill="#FFF"/>
  <text x="755" y="29" fill="#0284C7" font-size="10" font-weight="600" text-anchor="middle">Book</text>
  <rect x="30" y="75" width="740" height="180" rx="12" fill="url(#dc1)"/>
  <defs><linearGradient id="dc1" x1="0" y1="0" x2="1" y2="1"><stop offset="0%" stop-color="#0284C7"/><stop offset="100%" stop-color="#0369A1"/></linearGradient></defs>
  <text x="400" y="140" fill="#FFF" font-size="30" font-weight="800" text-anchor="middle" font-family="Inter,sans-serif">Your Smile, Our Expertise</text>
  <text x="400" y="168" fill="#BAE6FD" font-size="13" text-anchor="middle" font-family="Inter,sans-serif">Advanced dental care in a comfortable, friendly environment</text>
  <rect x="300" y="190" width="200" height="38" rx="19" fill="#FFF"/>
  <text x="400" y="215" fill="#0284C7" font-size="12" font-weight="700" text-anchor="middle">📅 Free Consultation</text>
  <rect x="30" y="275" width="175" height="150" rx="10" fill="#FFF" stroke="#BAE6FD" stroke-width="1"/>
  <text x="50" y="300" fill="#0F172A" font-size="14" font-weight="700">🦷 Root Canal</text>
  <text x="50" y="322" fill="#64748B" font-size="10">Painless root canal</text>
  <text x="50" y="338" fill="#64748B" font-size="10">treatment by experts</text>
  <text x="50" y="360" fill="#0284C7" font-size="14" font-weight="700">₹3,999</text>
  <rect x="105" y="395" width="80" height="18" rx="9" fill="#0284C7"/>
  <text x="145" y="408" fill="#FFF" font-size="8" font-weight="600" text-anchor="middle">Know More</text>
  <rect x="225" y="275" width="175" height="150" rx="10" fill="#FFF" stroke="#BAE6FD" stroke-width="1"/>
  <text x="245" y="300" fill="#0F172A" font-size="14" font-weight="700">✨ Teeth Whitening</text>
  <text x="245" y="322" fill="#64748B" font-size="10">Professional whitening</text>
  <text x="245" y="338" fill="#64748B" font-size="10">for a radiant smile</text>
  <text x="245" y="360" fill="#0284C7" font-size="14" font-weight="700">₹5,999</text>
  <rect x="300" y="395" width="80" height="18" rx="9" fill="#0284C7"/>
  <text x="340" y="408" fill="#FFF" font-size="8" font-weight="600" text-anchor="middle">Know More</text>
  <rect x="420" y="275" width="175" height="150" rx="10" fill="#FFF" stroke="#BAE6FD" stroke-width="1"/>
  <text x="440" y="300" fill="#0F172A" font-size="14" font-weight="700">🦷 Dental Implants</text>
  <text x="440" y="322" fill="#64748B" font-size="10">Permanent solution</text>
  <text x="440" y="338" fill="#64748B" font-size="10">for missing teeth</text>
  <text x="440" y="360" fill="#0284C7" font-size="14" font-weight="700">₹12,999</text>
  <rect x="495" y="395" width="80" height="18" rx="9" fill="#0284C7"/>
  <text x="535" y="408" fill="#FFF" font-size="8" font-weight="600" text-anchor="middle">Know More</text>
  <rect x="615" y="275" width="155" height="150" rx="10" fill="#FFF" stroke="#BAE6FD" stroke-width="1"/>
  <text x="635" y="300" fill="#0F172A" font-size="14" font-weight="700">🦷 Braces</text>
  <text x="635" y="322" fill="#64748B" font-size="10">Straighten teeth</text>
  <text x="635" y="338" fill="#64748B" font-size="10">with modern braces</text>
  <text x="635" y="360" fill="#0284C7" font-size="14" font-weight="700">₹19,999</text>
  <rect x="690" y="395" width="80" height="18" rx="9" fill="#0284C7"/>
  <text x="730" y="408" fill="#FFF" font-size="8" font-weight="600" text-anchor="middle">Know More</text>
  <rect x="30" y="445" width="740" height="40" rx="6" fill="#0C4A6E"/>
  <text x="400" y="470" fill="#BAE6FD" font-size="10" text-anchor="middle">© 2026 BrightSmile Dental. Care that makes you smile.</text>
</svg>