<svg xmlns="http://www.w3.org/2000/svg" viewBox="0 0 800 500" fill="none">
  <rect width="800" height="500" rx="8" fill="#FFF"/>
  <rect x="0" y="0" width="800" height="55" fill="#FFF" stroke="#E5E7EB" stroke-width="1"/>
  <text x="30" y="35" fill="#111827" font-size="18" font-weight="800" font-family="Inter,sans-serif">🛒 ShopNow</text>
  <rect x="650" y="12" width="60" height="30" rx="6" fill="#F3F4F6"/>
  <text x="680" y="32" fill="#4B5563" font-size="10" text-anchor="middle">Cart 🛒</text>
  <rect x="720" y="12" width="60" height="30" rx="6" fill="#111827"/>
  <text x="750" y="32" fill="#FFF" font-size="10" font-weight="600" text-anchor="middle">Sign In</text>
  <rect x="30" y="70" width="740" height="44" rx="22" fill="#F3F4F6"/>
  <text x="400" y="96" fill="#9CA3AF" font-size="12" text-anchor="middle">🔍 Search products...</text>
  <rect x="30" y="130" width="175" height="200" rx="10" fill="#FFF" stroke="#E5E7EB" stroke-width="1"/>
  <rect x="45" y="145" width="145" height="100" rx="6" fill="#F9FAFB"/>
  <text x="117" y="190" fill="#3B82F6" font-size="16" text-anchor="middle">✦</text>
  <text x="45" y="265" fill="#111827" font-size="12" font-weight="600">Wireless Headphones</text>
  <text x="45" y="285" fill="#EF4444" font-size="14" font-weight="700">₹2,499</text>
  <text x="45" y="305" fill="#F59E0B" font-size="10">★★★★☆ (45)</text>
  <rect x="145" y="318" width="50" height="18" rx="9" fill="#111827"/>
  <text x="170" y="331" fill="#FFF" font-size="8" font-weight="600" text-anchor="middle">Buy</text>
  <rect x="225" y="130" width="175" height="200" rx="10" fill="#FFF" stroke="#E5E7EB" stroke-width="1"/>
  <rect x="240" y="145" width="145" height="100" rx="6" fill="#F9FAFB"/>
  <text x="312" y="190" fill="#3B82F6" font-size="16" text-anchor="middle">✦</text>
  <text x="240" y="265" fill="#111827" font-size="12" font-weight="600">Smart Watch Pro</text>
  <text x="240" y="285" fill="#EF4444" font-size="14" font-weight="700">₹3,999</text>
  <text x="240" y="305" fill="#F59E0B" font-size="10">★★★★★ (128)</text>
  <rect x="340" y="318" width="50" height="18" rx="9" fill="#111827"/>
  <text x="365" y="331" fill="#FFF" font-size="8" font-weight="600" text-anchor="middle">Buy</text>
  <rect x="420" y="130" width="175" height="200" rx="10" fill="#FFF" stroke="#E5E7EB" stroke-width="1"/>
  <rect x="435" y="145" width="145" height="100" rx="6" fill="#F9FAFB"/>
  <text x="507" y="190" fill="#3B82F6" font-size="16" text-anchor="middle">✦</text>
  <text x="435" y="265" fill="#111827" font-size="12" font-weight="600">Organic Skincare</text>
  <text x="435" y="285" fill="#EF4444" font-size="14" font-weight="700">₹599</text>
  <text x="435" y="305" fill="#F59E0B" font-size="10">★★★★☆ (230)</text>
  <rect x="535" y="318" width="50" height="18" rx="9" fill="#111827"/>
  <text x="560" y="331" fill="#FFF" font-size="8" font-weight="600" text-anchor="middle">Buy</text>
  <rect x="615" y="130" width="155" height="200" rx="10" fill="#FFF" stroke="#E5E7EB" stroke-width="1"/>
  <rect x="625" y="145" width="135" height="100" rx="6" fill="#F9FAFB"/>
  <text x="692" y="190" fill="#3B82F6" font-size="16" text-anchor="middle">✦</text>
  <text x="625" y="265" fill="#111827" font-size="12" font-weight="600">Yoga Mat Premium</text>
  <text x="625" y="285" fill="#EF4444" font-size="14" font-weight="700">₹1,299</text>
  <text x="625" y="305" fill="#F59E0B" font-size="10">★★★★★ (67)</text>
  <rect x="715" y="318" width="50" height="18" rx="9" fill="#111827"/>
  <text x="740" y="331" fill="#FFF" font-size="8" font-weight="600" text-anchor="middle">Buy</text>
  <rect x="30" y="350" width="740" height="42" rx="8" fill="#F9FAFB"/>
  <text x="400" y="375" fill="#111827" font-size="12" font-weight="600" text-anchor="middle">🚚 Free delivery on orders above ₹499 | 30-day easy returns</text>
  <rect x="30" y="405" width="740" height="38" rx="6" fill="#111827"/>
  <text x="400" y="428" fill="#D1D5DB" font-size="10" text-anchor="middle">© 2026 ShopNow. Secure payments. Trusted since 2024.</text>
</svg>