<svg xmlns="http://www.w3.org/2000/svg" viewBox="0 0 800 500">
  <defs>
    <linearGradient id="bgec" x1="0%" y1="0%" x2="100%" y2="100%">
      <stop offset="0%" stop-color="#F59E0B"/>
      <stop offset="50%" stop-color="#D97706"/>
      <stop offset="100%" stop-color="#B45309"/>
    </linearGradient>
    <linearGradient id="topBar" x1="0%" y1="0%" x2="100%" y2="0%">
      <stop offset="0%" stop-color="#1E293B"/>
      <stop offset="100%" stop-color="#0F172A"/>
    </linearGradient>
    <filter id="shadec">
      <feDropShadow dx="0" dy="4" stdDeviation="10" flood-color="#00000030"/>
    </filter>
    <filter id="shadecSm">
      <feDropShadow dx="0" dy="2" stdDeviation="4" flood-color="#00000018"/>
    </filter>
  </defs>
  <rect width="800" height="500" fill="#FEF3C7" rx="12"/>
  <!-- Browser chrome -->
  <rect x="0" y="0" width="800" height="40" fill="#1E293B" rx="12"/>
  <rect x="0" y="24" width="800" height="16" fill="#1E293B"/>
  <circle cx="20" cy="20" r="6" fill="#EF4444"/>
  <circle cx="40" cy="20" r="6" fill="#F59E0B"/>
  <circle cx="60" cy="20" r="6" fill="#22C55E"/>
  <rect x="90" y="14" width="260" height="12" rx="6" fill="#334155"/>
  <!-- Nav bar -->
  <rect x="0" y="40" width="800" height="60" fill="#ffffff" filter="url(#shadecSm)"/>
  <text x="30" y="78" font-family="Arial, sans-serif" font-size="22" font-weight="bold" fill="#F59E0B">ShopHub</text>
  <text x="520" y="78" font-family="Arial, sans-serif" font-size="14" font-weight="bold" fill="#1E293B">Home</text>
  <text x="575" y="78" font-family="Arial, sans-serif" font-size="14" fill="#64748B">Shop</text>
  <text x="625" y="78" font-family="Arial, sans-serif" font-size="14" fill="#64748B">Deals</text>
  <text x="680" y="78" font-family="Arial, sans-serif" font-size="14" fill="#64748B">Contact</text>
  <rect x="740" y="60" width="32" height="32" rx="8" fill="#FEF3C7"/>
  <text x="748" y="82" font-family="Arial, sans-serif" font-size="16" fill="#F59E0B">🛒</text>
  <rect x="760" y="56" width="16" height="16" rx="8" fill="#EF4444"/>
  <text x="765" y="69" font-family="Arial, sans-serif" font-size="10" font-weight="bold" fill="#ffffff">3</text>
  <!-- Hero banner -->
  <rect x="20" y="115" width="760" height="100" rx="12" fill="url(#bgec)"/>
  <text x="50" y="155" font-family="Arial, sans-serif" font-size="26" font-weight="bold" fill="#ffffff">Summer Sale — Up to 60% Off</text>
  <text x="50" y="180" font-family="Arial, sans-serif" font-size="14" fill="#FEF3C7">Limited time offer on thousands of items</text>
  <rect x="580" y="140" width="180" height="44" rx="22" fill="#ffffff" filter="url(#shadecSm)"/>
  <text x="630" y="168" font-family="Arial, sans-serif" font-size="14" font-weight="bold" fill="#D97706">Shop Now →</text>
  <!-- Product grid -->
  <rect x="20" y="235" width="175" height="240" rx="12" fill="#ffffff" filter="url(#shadec)"/>
  <rect x="40" y="255" width="135" height="100" rx="8" fill="#FEF3C7"/>
  <text x="90" y="310" font-family="Arial, sans-serif" font-size="28" fill="#F59E0B">📱</text>
  <text x="40" y="385" font-family="Arial, sans-serif" font-size="14" font-weight="bold" fill="#1E293B">Wireless Headphones</text>
  <text x="40" y="405" font-family="Arial, sans-serif" font-size="12" fill="#64748B">Premium sound quality</text>
  <text x="40" y="435" font-family="Arial, sans-serif" font-size="16" font-weight="bold" fill="#F59E0B">$79.99</text>
  <rect x="120" y="425" width="60" height="28" rx="14" fill="#F59E0B"/>
  <text x="134" y="445" font-family="Arial, sans-serif" font-size="12" font-weight="bold" fill="#ffffff">Add +</text>

  <rect x="210" y="235" width="175" height="240" rx="12" fill="#ffffff" filter="url(#shadec)"/>
  <rect x="230" y="255" width="135" height="100" rx="8" fill="#FEF3C7"/>
  <text x="280" y="310" font-family="Arial, sans-serif" font-size="28" fill="#F59E0B">⌚</text>
  <text x="230" y="385" font-family="Arial, sans-serif" font-size="14" font-weight="bold" fill="#1E293B">Smart Watch Pro</text>
  <text x="230" y="405" font-family="Arial, sans-serif" font-size="12" fill="#64748B">Fitness tracking</text>
  <text x="230" y="435" font-family="Arial, sans-serif" font-size="16" font-weight="bold" fill="#F59E0B">$199.99</text>
  <rect x="310" y="425" width="60" height="28" rx="14" fill="#F59E0B"/>
  <text x="324" y="445" font-family="Arial, sans-serif" font-size="12" font-weight="bold" fill="#ffffff">Add +</text>

  <rect x="400" y="235" width="175" height="240" rx="12" fill="#ffffff" filter="url(#shadec)"/>
  <rect x="420" y="255" width="135" height="100" rx="8" fill="#FEF3C7"/>
  <text x="475" y="310" font-family="Arial, sans-serif" font-size="28" fill="#F59E0B">🎧</text>
  <text x="420" y="385" font-family="Arial, sans-serif" font-size="14" font-weight="bold" fill="#1E293B">Bluetooth Speaker</text>
  <text x="420" y="405" font-family="Arial, sans-serif" font-size="12" fill="#64748B">360° sound</text>
  <text x="420" y="435" font-family="Arial, sans-serif" font-size="16" font-weight="bold" fill="#F59E0B">$49.99</text>
  <rect x="500" y="425" width="60" height="28" rx="14" fill="#F59E0B"/>
  <text x="514" y="445" font-family="Arial, sans-serif" font-size="12" font-weight="bold" fill="#ffffff">Add +</text>

  <rect x="590" y="235" width="175" height="240" rx="12" fill="#ffffff" filter="url(#shadec)"/>
  <rect x="610" y="255" width="135" height="100" rx="8" fill="#FEF3C7"/>
  <text x="665" y="310" font-family="Arial, sans-serif" font-size="28" fill="#F59E0B">📷</text>
  <text x="610" y="385" font-family="Arial, sans-serif" font-size="14" font-weight="bold" fill="#1E293B">Digital Camera</text>
  <text x="610" y="405" font-family="Arial, sans-serif" font-size="12" fill="#64748B">4K video recording</text>
  <text x="610" y="435" font-family="Arial, sans-serif" font-size="16" font-weight="bold" fill="#F59E0B">$449.99</text>
  <rect x="690" y="425" width="60" height="28" rx="14" fill="#F59E0B"/>
  <text x="704" y="445" font-family="Arial, sans-serif" font-size="12" font-weight="bold" fill="#ffffff">Add +</text>
</svg>