<svg xmlns="http://www.w3.org/2000/svg" viewBox="0 0 800 500" fill="none">
  <rect width="800" height="500" rx="8" fill="#FAF5FF"/>
  <rect x="0" y="0" width="800" height="50" fill="#6B21A8"/>
  <text x="30" y="32" fill="#FFF" font-size="18" font-weight="800" font-family="Inter,sans-serif">📚 LearnWell Academy</text>
  <rect x="600" y="12" width="80" height="26" rx="13" fill="#FFF" opacity="0.15"/>
  <text x="640" y="29" fill="#FFF" font-size="10" text-anchor="middle">Courses</text>
  <rect x="695" y="12" width="80" height="26" rx="13" fill="#FFF"/>
  <text x="735" y="29" fill="#6B21A8" font-size="10" font-weight="600" text-anchor="middle">Enroll Now</text>
  <rect x="30" y="75" width="350" height="200" rx="12" fill="url(#ew1)"/>
  <defs><linearGradient id="ew1" x1="0" y1="0" x2="1" y2="1"><stop offset="0%" stop-color="#7C3AED"/><stop offset="100%" stop-color="#6B21A8"/></linearGradient></defs>
  <text x="205" y="140" fill="#FFF" font-size="26" font-weight="800" text-anchor="middle" font-family="Inter,sans-serif">Unlock Your Potential</text>
  <text x="205" y="168" fill="#DDD6FE" font-size="12" text-anchor="middle" font-family="Inter,sans-serif">Expert-led courses. Learn at your pace.</text>
  <rect x="130" y="190" width="150" height="36" rx="18" fill="#FFF"/>
  <text x="205" y="213" fill="#6B21A8" font-size="11" font-weight="700" text-anchor="middle">🎓 Start Learning</text>
  <rect x="400" y="75" width="370" height="200" rx="12" fill="#FFF" stroke="#E9D5FF" stroke-width="1"/>
  <text x="420" y="105" fill="#6B21A8" font-size="16" font-weight="700">Popular Courses</text>
  <rect x="420" y="118" width="330" height="36" rx="8" fill="#FAF5FF"/>
  <text x="435" y="140" fill="#4C1D95" font-size="12" font-weight="600">📐 Mathematics — Class 8-12</text>
  <rect x="420" y="160" width="330" height="36" rx="8" fill="#FAF5FF"/>
  <text x="435" y="182" fill="#4C1D95" font-size="12" font-weight="600">🔬 Science — Physics, Chem, Bio</text>
  <rect x="420" y="202" width="330" height="36" rx="8" fill="#FAF5FF"/>
  <text x="435" y="224" fill="#4C1D95" font-size="12" font-weight="600">💻 Coding for Kids</text>
  <text x="420" y="255" fill="#7C3AED" font-size="12">📈 95% success rate | 500+ students</text>
  <rect x="30" y="295" width="230" height="135" rx="10" fill="#FFF" stroke="#E9D5FF" stroke-width="1"/>
  <text x="145" y="325" fill="#6B21A8" font-size="16" font-weight="700" text-anchor="middle">👨‍🏫 Expert Faculty</text>
  <rect x="50" y="340" width="190" height="6" rx="3" fill="#F3E8FF"/>
  <text x="50" y="365" fill="#4C1D95" font-size="12" font-weight="600">Dr. Ananya Sharma</text>
  <text x="50" y="385" fill="#64748B" font-size="10">PhD, 15+ years experience</text>
  <text x="50" y="405" fill="#64748B" font-size="10">Mathematics Specialist</text>
  <rect x="280" y="295" width="240" height="135" rx="10" fill="#FFF" stroke="#E9D5FF" stroke-width="1"/>
  <text x="400" y="325" fill="#6B21A8" font-size="16" font-weight="700" text-anchor="middle">⭐ Student Results</text>
  <text x="295" y="352" fill="#1C1917" font-size="14" font-weight="700">150+</text>
  <text x="295" y="370" fill="#64748B" font-size="10">Board toppers</text>
  <text x="380" y="352" fill="#1C1917" font-size="14" font-weight="700">98%</text>
  <text x="380" y="370" fill="#64748B" font-size="10">Pass rate</text>
  <text x="460" y="352" fill="#1C1917" font-size="14" font-weight="700">4.8★</text>
  <text x="460" y="370" fill="#64748B" font-size="10">Parent rating</text>
  <rect x="540" y="295" width="230" height="135" rx="10" fill="#FFF" stroke="#E9D5FF" stroke-width="1"/>
  <text x="655" y="325" fill="#6B21A8" font-size="16" font-weight="700" text-anchor="middle">📅 Batch Starts</text>
  <text x="560" y="352" fill="#1C1917" font-size="13" font-weight="600">Morning Batch: 6-8 AM</text>
  <text x="560" y="372" fill="#1C1917" font-size="13" font-weight="600">Evening Batch: 4-6 PM</text>
  <text x="560" y="398" fill="#7C3AED" font-size="11">Limited seats available!</text>
  <rect x="30" y="448" width="740" height="38" rx="6" fill="#3B0764"/>
  <text x="400" y="472" fill="#D8B4FE" font-size="10" text-anchor="middle">© 2026 LearnWell Academy. Education that empowers.</text>
</svg>