<svg xmlns="http://www.w3.org/2000/svg" viewBox="0 0 800 500">
  <defs>
    <linearGradient id="bgEdu" x1="0%" y1="0%" x2="100%" y2="100%">
      <stop offset="0%" stop-color="#4F46E5"/>
      <stop offset="40%" stop-color="#4338CA"/>
      <stop offset="100%" stop-color="#3730A3"/>
    </linearGradient>
    <linearGradient id="eduLight" x1="0%" y1="0%" x2="0%" y2="100%">
      <stop offset="0%" stop-color="#EEF2FF"/>
      <stop offset="100%" stop-color="#E0E7FF"/>
    </linearGradient>
    <linearGradient id="eduCard" x1="0%" y1="0%" x2="0%" y2="100%">
      <stop offset="0%" stop-color="#ffffff"/>
      <stop offset="100%" stop-color="#F8FAFC"/>
    </linearGradient>
    <linearGradient id="purpleGrad" x1="0%" y1="0%" x2="100%" y2="100%">
      <stop offset="0%" stop-color="#4F46E5"/>
      <stop offset="100%" stop-color="#4338CA"/>
    </linearGradient>
    <linearGradient id="blueGrad" x1="0%" y1="0%" x2="100%" y2="100%">
      <stop offset="0%" stop-color="#3B82F6"/>
      <stop offset="100%" stop-color="#2563EB"/>
    </linearGradient>
    <linearGradient id="violetGrad" x1="0%" y1="0%" x2="100%" y2="100%">
      <stop offset="0%" stop-color="#8B5CF6"/>
      <stop offset="100%" stop-color="#7C3AED"/>
    </linearGradient>
    <filter id="shadowEdu">
      <feDropShadow dx="0" dy="4" stdDeviation="12" flood-color="#00000025"/>
    </filter>
    <filter id="shadowEduSm">
      <feDropShadow dx="0" dy="2" stdDeviation="5" flood-color="#00000015"/>
    </filter>
  </defs>
  <rect width="800" height="500" fill="#EEF2FF" rx="12"/>
  <!-- Browser chrome -->
  <rect x="0" y="0" width="800" height="40" fill="#1E293B" rx="12"/>
  <rect x="0" y="24" width="800" height="16" fill="#1E293B"/>
  <circle cx="20" cy="20" r="6" fill="#EF4444"/>
  <circle cx="40" cy="20" r="6" fill="#F59E0B"/>
  <circle cx="60" cy="20" r="6" fill="#22C55E"/>

  <!-- Top bar -->
  <rect x="0" y="40" width="800" height="60" fill="#ffffff" filter="url(#shadowEduSm)"/>
  <text x="25" y="78" font-family="Arial, sans-serif" font-size="22" font-weight="bold" fill="#4F46E5">EduLearn</text>
  <text x="500" y="78" font-family="Arial, sans-serif" font-size="14" font-weight="bold" fill="#4F46E5">Dashboard</text>
  <text x="575" y="78" font-family="Arial, sans-serif" font-size="14" fill="#64748B">Courses</text>
  <text x="640" y="78" font-family="Arial, sans-serif" font-size="14" fill="#64748B">Community</text>
  <rect x="700" y="56" width="75" height="28" rx="14" fill="url(#bgEdu)"/>
  <text x="717" y="76" font-family="Arial, sans-serif" font-size="11" font-weight="bold" fill="#ffffff">Profile</text>

  <!-- Student dashboard -->
  <rect x="20" y="115" width="260" height="120" rx="14" fill="url(#purpleGrad)" filter="url(#shadowEdu)"/>
  <circle cx="60" cy="155" r="25" fill="#ffffff" opacity="0.2"/>
  <text x="46" y="162" font-family="Arial, sans-serif" font-size="22" fill="#ffffff">🎓</text>
  <text x="100" y="152" font-family="Arial, sans-serif" font-size="16" font-weight="bold" fill="#ffffff">Welcome, Sarah! 👋</text>
  <text x="100" y="175" font-family="Arial, sans-serif" font-size="12" fill="#C7D2FE">Continue where you left off</text>
  <rect x="35" y="198" width="200" height="6" rx="3" fill="#3730A3"/>
  <rect x="35" y="198" width="140" height="6" rx="3" fill="#ffffff"/>
  <text x="245" y="198" font-family="Arial, sans-serif" font-size="10" font-weight="bold" fill="#ffffff">68%</text>

  <!-- Stats -->
  <rect x="295" y="115" width="155" height="55" rx="12" fill="#ffffff" filter="url(#shadowEduSm)"/>
  <text x="310" y="140" font-family="Arial, sans-serif" font-size="18" font-weight="bold" fill="#4F46E5">12</text>
  <text x="330" y="140" font-family="Arial, sans-serif" font-size="13" fill="#64748B">Courses enrolled</text>
  <text x="310" y="158" font-family="Arial, sans-serif" font-size="11" fill="#22C55E">↑ 2 this month</text>

  <rect x="460" y="115" width="155" height="55" rx="12" fill="#ffffff" filter="url(#shadowEduSm)"/>
  <text x="475" y="140" font-family="Arial, sans-serif" font-size="18" font-weight="bold" fill="#4F46E5">8</text>
  <text x="495" y="140" font-family="Arial, sans-serif" font-size="13" fill="#64748B">Certificates earned</text>
  <text x="475" y="158" font-family="Arial, sans-serif" font-size="11" fill="#22C55E">↑ 3 this month</text>

  <rect x="625" y="115" width="155" height="55" rx="12" fill="#ffffff" filter="url(#shadowEduSm)"/>
  <text x="640" y="140" font-family="Arial, sans-serif" font-size="18" font-weight="bold" fill="#4F46E5">47h</text>
  <text x="665" y="140" font-family="Arial, sans-serif" font-size="13" fill="#64748B">Hours learned</text>
  <text x="640" y="158" font-family="Arial, sans-serif" font-size="11" fill="#22C55E">↑ 12h this week</text>

  <!-- Course categories -->
  <text x="25" y="205" font-family="Arial, sans-serif" font-size="18" font-weight="bold" fill="#1E293B">Recommended Courses</text>

  <!-- Course cards -->
  <rect x="20" y="220" width="185" height="255" rx="14" fill="url(#eduCard)" filter="url(#shadowEdu)"/>
  <rect x="35" y="238" width="155" height="90" rx="10" fill="#EEF2FF"/>
  <text x="95" y="295" font-family="Arial, sans-serif" font-size="32" fill="#4F46E5">💻</text>
  <text x="35" y="355" font-family="Arial, sans-serif" font-size="14" font-weight="bold" fill="#1E293B">Web Development</text>
  <text x="35" y="373" font-family="Arial, sans-serif" font-size="11" fill="#64748B">Full-stack with React &amp; Node.js</text>
  <text x="35" y="395" font-family="Arial, sans-serif" font-size="12" fill="#F59E0B">★★★★★</text>
  <text x="35" y="415" font-family="Arial, sans-serif" font-size="12" fill="#64748B">24 lessons • 12h</text>
  <rect x="35" y="432" width="155" height="6" rx="3" fill="#E0E7FF"/>
  <rect x="35" y="432" width="100" height="6" rx="3" fill="#4F46E5"/>
  <text x="35" y="453" font-family="Arial, sans-serif" font-size="12" font-weight="bold" fill="#4F46E5">Continue →</text>

  <rect x="218" y="220" width="185" height="255" rx="14" fill="url(#eduCard)" filter="url(#shadowEdu)"/>
  <rect x="233" y="238" width="155" height="90" rx="10" fill="#EEF2FF"/>
  <text x="290" y="295" font-family="Arial, sans-serif" font-size="32" fill="#3B82F6">📊</text>
  <text x="233" y="355" font-family="Arial, sans-serif" font-size="14" font-weight="bold" fill="#1E293B">Data Science</text>
  <text x="233" y="373" font-family="Arial, sans-serif" font-size="11" fill="#64748B">Python, SQL &amp; Machine Learning</text>
  <text x="233" y="395" font-family="Arial, sans-serif" font-size="12" fill="#F59E0B">★★★★☆</text>
  <text x="233" y="415" font-family="Arial, sans-serif" font-size="12" fill="#64748B">36 lessons • 18h</text>
  <rect x="233" y="432" width="155" height="6" rx="3" fill="#E0E7FF"/>
  <rect x="233" y="432" width="60" height="6" rx="3" fill="#4F46E5"/>
  <text x="233" y="453" font-family="Arial, sans-serif" font-size="12" font-weight="bold" fill="#4F46E5">Enroll Now →</text>

  <rect x="416" y="220" width="185" height="255" rx="14" fill="url(#eduCard)" filter="url(#shadowEdu)"/>
  <rect x="431" y="238" width="155" height="90" rx="10" fill="#EEF2FF"/>
  <text x="490" y="295" font-family="Arial, sans-serif" font-size="32" fill="#8B5CF6">🎨</text>
  <text x="431" y="355" font-family="Arial, sans-serif" font-size="14" font-weight="bold" fill="#1E293B">UI/UX Design</text>
  <text x="431" y="373" font-family="Arial, sans-serif" font-size="11" fill="#64748B">Figma, design systems &amp; prototyping</text>
  <text x="431" y="395" font-family="Arial, sans-serif" font-size="12" fill="#F59E0B">★★★★★</text>
  <text x="431" y="415" font-family="Arial, sans-serif" font-size="12" fill="#64748B">20 lessons • 10h</text>
  <rect x="431" y="432" width="155" height="6" rx="3" fill="#E0E7FF"/>
  <rect x="431" y="432" width="120" height="6" rx="3" fill="#4F46E5"/>
  <text x="431" y="453" font-family="Arial, sans-serif" font-size="12" font-weight="bold" fill="#4F46E5">Continue →</text>

  <rect x="614" y="220" width="165" height="255" rx="14" fill="url(#eduCard)" filter="url(#shadowEdu)"/>
  <rect x="629" y="238" width="135" height="90" rx="10" fill="#EEF2FF"/>
  <text x="690" y="295" font-family="Arial, sans-serif" font-size="32" fill="#F59E0B">📱</text>
  <text x="629" y="355" font-family="Arial, sans-serif" font-size="14" font-weight="bold" fill="#1E293B">Mobile Dev</text>
  <text x="629" y="373" font-family="Arial, sans-serif" font-size="11" fill="#64748B">React Native &amp; Flutter</text>
  <text x="629" y="395" font-family="Arial, sans-serif" font-size="12" fill="#F59E0B">★★★★☆</text>
  <text x="629" y="415" font-family="Arial, sans-serif" font-size="12" fill="#64748B">28 lessons • 14h</text>
  <rect x="629" y="432" width="135" height="6" rx="3" fill="#E0E7FF"/>
  <rect x="629" y="432" width="80" height="6" rx="3" fill="#4F46E5"/>
  <text x="629" y="453" font-family="Arial, sans-serif" font-size="12" font-weight="bold" fill="#4F46E5">Enroll →</text>
</svg>