<svg xmlns="http://www.w3.org/2000/svg" viewBox="0 0 400 600" fill="none">
  <rect x="20" y="10" width="360" height="580" rx="30" fill="#0F172A"/>
  <rect x="150" y="25" width="100" height="6" rx="3" fill="#334155"/>
  <text x="200" y="58" fill="#FFF" font-size="16" font-weight="800" text-anchor="middle">💪 FitTrack</text>
  <text x="200" y="90" fill="#4ADE80" font-size="12" font-weight="600" text-anchor="middle">Today's Progress</text>
  <rect x="40" y="110" width="320" height="90" rx="12" fill="#1E293B" stroke="#334155" stroke-width="1"/>
  <text x="60" y="140" fill="#F1F5F9" font-size="28" font-weight="800">6,842</text>
  <text x="60" y="158" fill="#94A3B8" font-size="10">Steps</text>
  <text x="200" y="140" fill="#F1F5F9" font-size="28" font-weight="800">3.2</text>
  <text x="200" y="158" fill="#94A3B8" font-size="10">KM</text>
  <text x="300" y="140" fill="#F1F5F9" font-size="28" font-weight="800">420</text>
  <text x="300" y="158" fill="#94A3B8" font-size="10">Cal</text>
  <rect x="40" y="215" width="320" height="8" rx="4" fill="#334155"/>
  <rect x="40" y="215" width="200" height="8" rx="4" fill="#4ADE80"/>
  <text x="200" y="242" fill="#94A3B8" font-size="10" text-anchor="middle">Goal: 10,000 steps — 68% complete</text>
  <rect x="40" y="265" width="150" height="100" rx="10" fill="#1E293B" stroke="#334155" stroke-width="1"/>
  <text x="60" y="292" fill="#38BDF8" font-size="18">🏋️</text>
  <text x="60" y="312" fill="#F1F5F9" font-size="12" font-weight="600">Workout</text>
  <text x="60" y="330" fill="#94A3B8" font-size="9">30 min | Upper Body</text>
  <rect x="210" y="265" width="150" height="100" rx="10" fill="#1E293B" stroke="#334155" stroke-width="1"/>
  <text x="230" y="292" fill="#F472B6" font-size="18">🧘</text>
  <text x="230" y="312" fill="#F1F5F9" font-size="12" font-weight="600">Yoga</text>
  <text x="230" y="330" fill="#94A3B8" font-size="9">15 min | Morning Flow</text>
  <rect x="40" y="385" width="320" height="100" rx="12" fill="url(#fa1)"/>
  <defs><linearGradient id="fa1" x1="0" y1="0" x2="1" y2="1"><stop offset="0%" stop-color="#4ADE80"/><stop offset="100%" stop-color="#16A34A"/></linearGradient></defs>
  <text x="200" y="418" fill="#FFF" font-size="16" font-weight="700" text-anchor="middle">🏆 Weekly Challenge</text>
  <text x="200" y="440" fill="#DCFCE7" font-size="11" text-anchor="middle">Complete 5 workouts this week</text>
  <rect x="140" y="455" width="120" height="14" rx="7" fill="#FFF" opacity="0.2"/>
  <rect x="140" y="455" width="60" height="14" rx="7" fill="#FFF" opacity="0.5"/>
  <rect x="40" y="500" width="320" height="40" rx="20" fill="#4ADE80"/>
  <text x="200" y="526" fill="#0F172A" font-size="12" font-weight="700" text-anchor="middle">🏃 Start Workout</text>
  <rect x="150" y="560" width="100" height="5" rx="2.5" fill="#334155"/>
</svg>