<svg xmlns="http://www.w3.org/2000/svg" viewBox="0 0 800 500" fill="none">
  <rect width="800" height="500" rx="8" fill="#FFF7ED"/>
  <rect x="0" y="0" width="800" height="50" fill="#EA580C"/>
  <text x="30" y="32" fill="#FFF" font-size="18" font-weight="800" font-family="Inter,sans-serif">🍽️ TASTY BITES</text>
  <rect x="600" y="15" width="80" height="24" rx="12" fill="#FFF" opacity="0.2"/>
  <text x="640" y="31" fill="#FFF" font-size="11" text-anchor="middle">Order Now</text>
  <rect x="700" y="15" width="70" height="24" rx="12" fill="#FFF" opacity="0.2"/>
  <text x="735" y="31" fill="#FFF" font-size="11" text-anchor="middle">Menu</text>
  <rect x="30" y="75" width="740" height="180" rx="12" fill="url(#fd1)"/>
  <defs><linearGradient id="fd1" x1="0" y1="0" x2="1" y2="1"><stop offset="0%" stop-color="#F97316"/><stop offset="100%" stop-color="#C2410C"/></linearGradient></defs>
  <text x="400" y="140" fill="#FFF" font-size="32" font-weight="800" text-anchor="middle" font-family="Inter,sans-serif">Delicious Food, Delivered Fast</text>
  <text x="400" y="170" fill="#FFEDD5" font-size="14" text-anchor="middle" font-family="Inter,sans-serif">Fresh ingredients. Authentic recipes. Unforgettable taste.</text>
  <rect x="300" y="190" width="200" height="38" rx="19" fill="#FFF"/>
  <text x="400" y="215" fill="#C2410C" font-size="13" font-weight="700" text-anchor="middle">📱 Order Online →</text>
  <rect x="30" y="275" width="230" height="150" rx="10" fill="#FFF" stroke="#FED7AA" stroke-width="1"/>
  <text x="50" y="300" fill="#C2410C" font-size="14" font-weight="700">🍛 Biryani Special</text>
  <text x="50" y="320" fill="#78716C" font-size="10">Fragrant basmati with tender meat</text>
  <text x="50" y="345" fill="#EA580C" font-size="16" font-weight="700">₹299</text>
  <rect x="185" y="385" width="55" height="22" rx="11" fill="#EA580C"/>
  <text x="212" y="400" fill="#FFF" font-size="9" font-weight="600" text-anchor="middle">Order</text>
  <rect x="285" y="275" width="230" height="150" rx="10" fill="#FFF" stroke="#FED7AA" stroke-width="1"/>
  <text x="305" y="300" fill="#C2410C" font-size="14" font-weight="700">🥘 Butter Chicken</text>
  <text x="305" y="320" fill="#78716C" font-size="10">Rich, creamy tomato gravy</text>
  <text x="305" y="345" fill="#EA580C" font-size="16" font-weight="700">₹349</text>
  <rect x="440" y="385" width="55" height="22" rx="11" fill="#EA580C"/>
  <text x="467" y="400" fill="#FFF" font-size="9" font-weight="600" text-anchor="middle">Order</text>
  <rect x="540" y="275" width="230" height="150" rx="10" fill="#FFF" stroke="#FED7AA" stroke-width="1"/>
  <text x="560" y="300" fill="#C2410C" font-size="14" font-weight="700">🧊 Mango Lassi</text>
  <text x="560" y="320" fill="#78716C" font-size="10">Refreshing yogurt drink</text>
  <text x="560" y="345" fill="#EA580C" font-size="16" font-weight="700">₹99</text>
  <rect x="695" y="385" width="55" height="22" rx="11" fill="#EA580C"/>
  <text x="722" y="400" fill="#FFF" font-size="9" font-weight="600" text-anchor="middle">Order</text>
  <rect x="30" y="445" width="740" height="40" rx="6" fill="#1C1917"/>
  <text x="400" y="470" fill="#A8A29E" font-size="10" text-anchor="middle">© 2026 Tasty Bites. Fresh food, every day.</text>
</svg>