<svg xmlns="http://www.w3.org/2000/svg" viewBox="0 0 400 600" fill="none">
  <rect x="20" y="10" width="360" height="580" rx="30" fill="#1E293B"/>
  <rect x="20" y="10" width="360" height="580" rx="30" fill="url(#ma1)"/>
  <defs><linearGradient id="ma1" x1="0" y1="0" x2="0" y2="1"><stop offset="0%" stop-color="#0F172A"/><stop offset="100%" stop-color="#1E293B"/></linearGradient></defs>
  <rect x="150" y="25" width="100" height="6" rx="3" fill="#475569"/>
  <text x="200" y="58" fill="#FFF" font-size="14" font-weight="700" text-anchor="middle">MyApp</text>
  <rect x="340" y="45" width="20" height="12" rx="3" fill="#334155"/>
  <rect x="40" y="50" width="20" height="12" rx="3" fill="#334155"/>
  <text x="200" y="95" fill="#FFF" font-size="22" font-weight="800" text-anchor="middle">Welcome!</text>
  <text x="200" y="115" fill="#94A3B8" font-size="11" text-anchor="middle">Your digital companion</text>
  <rect x="40" y="140" width="320" height="44" rx="22" fill="#334155"/>
  <text x="200" y="167" fill="#94A3B8" font-size="11" text-anchor="middle">🔍 Search anything...</text>
  <rect x="40" y="200" width="150" height="100" rx="10" fill="#1E293B" stroke="#334155" stroke-width="1"/>
  <text x="60" y="225" fill="#38BDF8" font-size="20">📊</text>
  <text x="60" y="250" fill="#F1F5F9" font-size="12" font-weight="600">Dashboard</text>
  <text x="60" y="268" fill="#94A3B8" font-size="9">View your stats</text>
  <rect x="210" y="200" width="150" height="100" rx="10" fill="#1E293B" stroke="#334155" stroke-width="1"/>
  <text x="230" y="225" fill="#10B981" font-size="20">📅</text>
  <text x="230" y="250" fill="#F1F5F9" font-size="12" font-weight="600">Bookings</text>
  <text x="230" y="268" fill="#94A3B8" font-size="9">Manage appointments</text>
  <rect x="40" y="320" width="320" height="80" rx="12" fill="url(#ma2)"/>
  <defs><linearGradient id="ma2" x1="0" y1="0" x2="1" y2="1"><stop offset="0%" stop-color="#3B82F6"/><stop offset="100%" stop-color="#8B5CF6"/></linearGradient></defs>
  <text x="200" y="348" fill="#FFF" font-size="14" font-weight="700" text-anchor="middle">🎉 Special Offer!</text>
  <text x="200" y="370" fill="#DBEAFE" font-size="10" text-anchor="middle">20% off your first booking</text>
  <rect x="40" y="415" width="320" height="50" rx="10" fill="#334155"/>
  <text x="60" y="440" fill="#F1F5F9" font-size="13" font-weight="600">📱 Notifications</text>
  <text x="60" y="455" fill="#94A3B8" font-size="9">You have 3 new updates</text>
  <rect x="40" y="480" width="320" height="40" rx="20" fill="#3B82F6"/>
  <text x="200" y="506" fill="#FFF" font-size="12" font-weight="700" text-anchor="middle">Get Started Free</text>
  <rect x="150" y="555" width="100" height="5" rx="2.5" fill="#475569"/>
</svg>