<svg xmlns="http://www.w3.org/2000/svg" viewBox="0 0 300 500" fill="none">
  <rect x="40" y="10" width="220" height="480" rx="36" fill="#1E293B" stroke="#334155" stroke-width="3"/>
  <rect x="60" y="35" width="180" height="420" rx="24" fill="#0F172A"/>
  <rect x="130" y="20" width="40" height="6" rx="3" fill="#334155"/>
  <rect x="60" y="55" width="180" height="40" rx="12" fill="#38BDF8" opacity="0.15"/>
  <text x="150" y="80" fill="#38BDF8" font-size="14" font-weight="700" text-anchor="middle" font-family="Inter,sans-serif">Brand Name</text>
  <rect x="75" y="110" width="150" height="150" rx="16" fill="#334155"/>
  <text x="150" y="170" fill="#F8FAFC" font-size="20" font-weight="800" text-anchor="middle" font-family="Inter,sans-serif">Welcome!</text>
  <text x="150" y="195" fill="#94A3B8" font-size="10" text-anchor="middle" font-family="Inter,sans-serif">Your digital experience</text>
  <text x="150" y="210" fill="#94A3B8" font-size="10" text-anchor="middle" font-family="Inter,sans-serif">starts here.</text>
  <rect x="90" y="235" width="120" height="12" rx="6" fill="#38BDF8" opacity="0.8"/>
  <rect x="60" y="280" width="180" height="60" rx="10" fill="#1E293B" stroke="#334155" stroke-width="1"/>
  <rectangle x="70" y="290" width="40" height="40" rx="8" fill="#38BDF8" opacity="0.2"/>
  <text x="80" y="314" fill="#38BDF8" font-size="16" font-weight="700" text-anchor="middle">⇱</text>
  <text x="120" y="305" fill="#F1F5F9" font-size="12" font-weight="600">Online Booking</text>
  <text x="120" y="320" fill="#94A3B8" font-size="9">Easy scheduling</text>
  <rect x="60" y="350" width="180" height="60" rx="10" fill="#1E293B" stroke="#334155" stroke-width="1"/>
  <rectangle x="70" y="360" width="40" height="40" rx="8" fill="#10B981" opacity="0.2"/>
  <text x="80" y="384" fill="#10B981" font-size="16" font-weight="700" text-anchor="middle">♥</text>
  <text x="120" y="375" fill="#F1F5F9" font-size="12" font-weight="600">Track Progress</text>
  <text x="120" y="390" fill="#94A3B8" font-size="9">Stay on top</text>
  <rect x="60" y="420" width="180" height="40" rx="10" fill="#38BDF8"/>
  <text x="150" y="445" fill="#FFF" font-size="12" font-weight="700" text-anchor="middle">Get Started Free</text>
</svg>