<svg xmlns="http://www.w3.org/2000/svg" viewBox="0 0 800 500" fill="none">
  <rect width="800" height="500" rx="8" fill="#F8FAFC"/>
  <rect x="0" y="0" width="800" height="50" fill="#1E293B"/>
  <text x="30" y="32" fill="#FFF" font-size="16" font-weight="800" font-family="Inter,sans-serif">🛍️ QuickOrder</text>
  <rect x="600" y="10" width="60" height="30" rx="8" fill="#334155"/>
  <text x="630" y="29" fill="#94A3B8" font-size="10" text-anchor="middle">Cart 0</text>
  <rect x="675" y="10" width="100" height="30" rx="8" fill="#3B82F6"/>
  <text x="725" y="29" fill="#FFF" font-size="10" font-weight="600" text-anchor="middle">Sign In</text>
  <rect x="30" y="70" width="740" height="42" rx="10" fill="#E2E8F0"/>
  <text x="400" y="94" fill="#64748B" font-size="12" text-anchor="middle">🔍 Search for products, groceries, medicines...</text>
  <rect x="30" y="130" width="200" height="16" rx="4" fill="#1E293B"/>
  <text x="35" y="142" fill="#FFF" font-size="9">Categories</text>
  <text x="50" y="165" fill="#64748B" font-size="11">🍎 Fruits & Veggies</text>
  <text x="50" y="185" fill="#64748B" font-size="11">🥛 Dairy & Eggs</text>
  <text x="50" y="205" fill="#64748B" font-size="11">🍞 Bakery</text>
  <text x="50" y="225" fill="#64748B" font-size="11">💊 Medicines</text>
  <text x="50" y="245" fill="#64748B" font-size="11">🧴 Household</text>
  <rect x="250" y="130" width="520" height="250" rx="10" fill="#FFF" stroke="#E2E8F0" stroke-width="1"/>
  <text x="270" y="155" fill="#1E293B" font-size="16" font-weight="700">Today's Deals 🎉</text>
  <rect x="270" y="170" width="145" height="90" rx="8" fill="#F8FAFC" stroke="#E2E8F0" stroke-width="1"/>
  <rect x="280" y="180" width="125" height="40" rx="4" fill="#F1F5F9"/>
  <text x="342" y="204" fill="#3B82F6" font-size="16" text-anchor="middle">✦</text>
  <text x="280" y="235" fill="#1E293B" font-size="11" font-weight="600">Fresh Apples</text>
  <text x="280" y="250" fill="#3B82F6" font-size="12" font-weight="700">₹120/kg</text>
  <rect x="430" y="170" width="145" height="90" rx="8" fill="#F8FAFC" stroke="#E2E8F0" stroke-width="1"/>
  <rect x="440" y="180" width="125" height="40" rx="4" fill="#F1F5F9"/>
  <text x="502" y="204" fill="#3B82F6" font-size="16" text-anchor="middle">✦</text>
  <text x="440" y="235" fill="#1E293B" font-size="11" font-weight="600">Organic Milk</text>
  <text x="440" y="250" fill="#3B82F6" font-size="12" font-weight="700">₹68/L</text>
  <rect x="590" y="170" width="160" height="90" rx="8" fill="#F8FAFC" stroke="#E2E8F0" stroke-width="1"/>
  <rect x="600" y="180" width="140" height="40" rx="4" fill="#F1F5F9"/>
  <text x="670" y="204" fill="#3B82F6" font-size="16" text-anchor="middle">✦</text>
  <text x="600" y="235" fill="#1E293B" font-size="11" font-weight="600">Multivitamin</text>
  <text x="600" y="250" fill="#3B82F6" font-size="12" font-weight="700">₹299</text>
  <rect x="270" y="275" width="480" height="40" rx="8" fill="#3B82F6"/>
  <text x="510" y="300" fill="#FFF" font-size="13" font-weight="700" text-anchor="middle">📦 Free delivery on orders above ₹249</text>
  <rect x="30" y="400" width="740" height="42" rx="8" fill="#1E293B"/>
  <text x="400" y="425" fill="#94A3B8" font-size="10" text-anchor="middle">⏰ Delivery in 30 mins! • Easy returns • Secure payments</text>
  <rect x="30" y="452" width="740" height="35" rx="6" fill="#0F172A"/>
  <text x="400" y="474" fill="#64748B" font-size="10" text-anchor="middle">© 2026 QuickOrder. Your neighbourhood store, online.</text>
</svg>