<svg xmlns="http://www.w3.org/2000/svg" viewBox="0 0 800 500" fill="none">
  <rect width="800" height="500" rx="8" fill="#EFF6FF"/>
  <rect x="0" y="0" width="800" height="50" fill="#1D4ED8"/>
  <text x="30" y="32" fill="#FFF" font-size="18" font-weight="800" font-family="Inter,sans-serif">🔧 ServiceHub</text>
  <rect x="600" y="12" width="80" height="26" rx="13" fill="#FFF" opacity="0.15"/>
  <text x="640" y="29" fill="#FFF" font-size="10" text-anchor="middle">How it Works</text>
  <rect x="695" y="12" width="80" height="26" rx="13" fill="#FFF"/>
  <text x="735" y="29" fill="#1D4ED8" font-size="10" font-weight="600" text-anchor="middle">Book Now</text>
  <rect x="30" y="75" width="740" height="160" rx="12" fill="url(#sb1)"/>
  <defs><linearGradient id="sb1" x1="0" y1="0" x2="1" y2="1"><stop offset="0%" stop-color="#2563EB"/><stop offset="100%" stop-color="#1E40AF"/></linearGradient></defs>
  <text x="400" y="130" fill="#FFF" font-size="28" font-weight="800" text-anchor="middle" font-family="Inter,sans-serif">Trusted Home Services, Just a Click Away</text>
  <text x="400" y="157" fill="#DBEAFE" font-size="13" text-anchor="middle" font-family="Inter,sans-serif">Electricians • Plumbers • Carpenters • Cleaners</text>
  <rect x="320" y="175" width="160" height="36" rx="18" fill="#FFF"/>
  <text x="400" y="198" fill="#1D4ED8" font-size="11" font-weight="700" text-anchor="middle">📞 Book a Service</text>
  <rect x="30" y="255" width="230" height="170" rx="10" fill="#FFF" stroke="#BFDBFE" stroke-width="1"/>
  <text x="145" y="285" fill="#1E3A8A" font-size="15" font-weight="700" text-anchor="middle">⚡ Electrician</text>
  <rect x="45" y="300" width="200" height="6" rx="3" fill="#DBEAFE"/>
  <text x="50" y="330" fill="#64748B" font-size="11">✓ Wiring & Installation</text>
  <text x="50" y="350" fill="#64748B" font-size="11">✓ Repair & Maintenance</text>
  <text x="50" y="370" fill="#64748B" font-size="11">✓ 30-min response time</text>
  <text x="50" y="395" fill="#2563EB" font-size="14" font-weight="700">Starting ₹199</text>
  <rect x="280" y="255" width="230" height="170" rx="10" fill="#FFF" stroke="#BFDBFE" stroke-width="1"/>
  <text x="395" y="285" fill="#1E3A8A" font-size="15" font-weight="700" text-anchor="middle">🔧 Plumber</text>
  <rect x="295" y="300" width="200" height="6" rx="3" fill="#DBEAFE"/>
  <text x="300" y="330" fill="#64748B" font-size="11">✓ Pipe Repair & Fixing</text>
  <text x="300" y="350" fill="#64748B" font-size="11">✓ Water Heater Setup</text>
  <text x="300" y="370" fill="#64748B" font-size="11">✓ Drain Cleaning</text>
  <text x="300" y="395" fill="#2563EB" font-size="14" font-weight="700">Starting ₹249</text>
  <rect x="530" y="255" width="240" height="170" rx="10" fill="#FFF" stroke="#BFDBFE" stroke-width="1"/>
  <text x="650" y="285" fill="#1E3A8A" font-size="15" font-weight="700" text-anchor="middle">🪚 Carpenter</text>
  <rect x="545" y="300" width="210" height="6" rx="3" fill="#DBEAFE"/>
  <text x="550" y="330" fill="#64748B" font-size="11">✓ Furniture Assembly</text>
  <text x="550" y="350" fill="#64748B" font-size="11">✓ Custom Wardrobes</text>
  <text x="550" y="370" fill="#64748B" font-size="11">✓ Door & Window Repair</text>
  <text x="550" y="395" fill="#2563EB" font-size="14" font-weight="700">Starting ₹349</text>
  <rect x="30" y="445" width="740" height="40" rx="6" fill="#172554"/>
  <text x="400" y="470" fill="#BFDBFE" font-size="10" text-anchor="middle">© 2026 ServiceHub. Professional service, guaranteed.</text>
</svg>