<svg xmlns="http://www.w3.org/2000/svg" viewBox="0 0 800 500">
  <defs>
    <linearGradient id="bgsb" x1="0%" y1="0%" x2="100%" y2="100%">
      <stop offset="0%" stop-color="#6366F1"/>
      <stop offset="50%" stop-color="#4F46E5"/>
      <stop offset="100%" stop-color="#4338CA"/>
    </linearGradient>
    <linearGradient id="sbLight" x1="0%" y1="0%" x2="0%" y2="100%">
      <stop offset="0%" stop-color="#EEF2FF"/>
      <stop offset="100%" stop-color="#E0E7FF"/>
    </linearGradient>
    <linearGradient id="sbservice" x1="0%" y1="0%" x2="0%" y2="100%">
      <stop offset="0%" stop-color="#ffffff"/>
      <stop offset="100%" stop-color="#F8FAFC"/>
    </linearGradient>
    <linearGradient id="indigoGrad" x1="0%" y1="0%" x2="100%" y2="100%">
      <stop offset="0%" stop-color="#6366F1"/>
      <stop offset="100%" stop-color="#4F46E5"/>
    </linearGradient>
    <filter id="shadowSB">
      <feDropShadow dx="0" dy="4" stdDeviation="12" flood-color="#00000025"/>
    </filter>
    <filter id="shadowSBSm">
      <feDropShadow dx="0" dy="2" stdDeviation="5" flood-color="#00000015"/>
    </filter>
  </defs>
  <rect width="800" height="500" fill="#EEF2FF" rx="12"/>
  <!-- Browser chrome -->
  <rect x="0" y="0" width="800" height="40" fill="#1E293B" rx="12"/>
  <rect x="0" y="24" width="800" height="16" fill="#1E293B"/>
  <circle cx="20" cy="20" r="6" fill="#EF4444"/>
  <circle cx="40" cy="20" r="6" fill="#F59E0B"/>
  <circle cx="60" cy="20" r="6" fill="#22C55E"/>

  <!-- Header -->
  <rect x="0" y="40" width="800" height="65" fill="#ffffff" filter="url(#shadowSBSm)"/>
  <text x="25" y="78" font-family="Arial, sans-serif" font-size="22" font-weight="bold" fill="#4F46E5">Bookify</text>
  <text x="420" y="78" font-family="Arial, sans-serif" font-size="14" font-weight="bold" fill="#4F46E5">Services</text>
  <text x="495" y="78" font-family="Arial, sans-serif" font-size="14" fill="#64748B">Bookings</text>
  <text x="570" y="78" font-family="Arial, sans-serif" font-size="14" fill="#64748B">Providers</text>
  <rect x="650" y="56" width="120" height="32" rx="16" fill="url(#bgsb)"/>
  <text x="678" y="77" font-family="Arial, sans-serif" font-size="12" font-weight="bold" fill="#ffffff">Sign In</text>

  <!-- Hero -->
  <rect x="20" y="120" width="760" height="80" rx="14" fill="url(#bgsb)" filter="url(#shadowSB)"/>
  <text x="40" y="158" font-family="Arial, sans-serif" font-size="22" font-weight="bold" fill="#ffffff">Book trusted services in your area 🛠️</text>
  <text x="40" y="182" font-family="Arial, sans-serif" font-size="13" fill="#C7D2FE">From home cleaning to professional repairs</text>
  <rect x="580" y="140" width="180" height="38" rx="19" fill="#ffffff"/>
  <text x="620" y="166" font-family="Arial, sans-serif" font-size="13" font-weight="bold" fill="#4F46E5">Search Services →</text>

  <!-- Service categories -->
  <rect x="20" y="215" width="145" height="60" rx="12" fill="#ffffff" filter="url(#shadowSBSm)" stroke="#E0E7FF" stroke-width="1"/>
  <text x="35" y="240" font-family="Arial, sans-serif" font-size="16" fill="#6366F1">🧹</text>
  <text x="60" y="248" font-family="Arial, sans-serif" font-size="13" font-weight="bold" fill="#1E293B">Cleaning</text>
  <text x="60" y="262" font-family="Arial, sans-serif" font-size="10" fill="#64748B">from $35</text>

  <rect x="178" y="215" width="145" height="60" rx="12" fill="#ffffff" filter="url(#shadowSBSm)" stroke="#E0E7FF" stroke-width="1"/>
  <text x="193" y="240" font-family="Arial, sans-serif" font-size="16" fill="#6366F1">🔧</text>
  <text x="218" y="248" font-family="Arial, sans-serif" font-size="13" font-weight="bold" fill="#1E293B">Repair</text>
  <text x="218" y="262" font-family="Arial, sans-serif" font-size="10" fill="#64748B">from $50</text>

  <rect x="336" y="215" width="145" height="60" rx="12" fill="#ffffff" filter="url(#shadowSBSm)" stroke="#E0E7FF" stroke-width="1"/>
  <text x="351" y="240" font-family="Arial, sans-serif" font-size="16" fill="#6366F1">⚡</text>
  <text x="376" y="248" font-family="Arial, sans-serif" font-size="13" font-weight="bold" fill="#1E293B">Electrical</text>
  <text x="376" y="262" font-family="Arial, sans-serif" font-size="10" fill="#64748B">from $45</text>

  <rect x="494" y="215" width="145" height="60" rx="12" fill="#ffffff" filter="url(#shadowSBSm)" stroke="#E0E7FF" stroke-width="1"/>
  <text x="509" y="240" font-family="Arial, sans-serif" font-size="16" fill="#6366F1">🚚</text>
  <text x="534" y="248" font-family="Arial, sans-serif" font-size="13" font-weight="bold" fill="#1E293B">Moving</text>
  <text x="534" y="262" font-family="Arial, sans-serif" font-size="10" fill="#64748B">from $99</text>

  <rect x="652" y="215" width="130" height="60" rx="12" fill="#ffffff" filter="url(#shadowSBSm)" stroke="#E0E7FF" stroke-width="1"/>
  <text x="667" y="240" font-family="Arial, sans-serif" font-size="16" fill="#6366F1">🌿</text>
  <text x="692" y="248" font-family="Arial, sans-serif" font-size="13" font-weight="bold" fill="#1E293B">Gardening</text>
  <text x="692" y="262" font-family="Arial, sans-serif" font-size="10" fill="#64748B">from $40</text>

  <!-- Popular services -->
  <text x="25" y="305" font-family="Arial, sans-serif" font-size="18" font-weight="bold" fill="#1E293B">Popular Services</text>

  <rect x="20" y="320" width="245" height="155" rx="14" fill="url(#sbservice)" filter="url(#shadowSB)"/>
  <rect x="35" y="335" width="215" height="55" rx="8" fill="#EEF2FF"/>
  <text x="45" y="358" font-family="Arial, sans-serif" font-size="14" font-weight="bold" fill="#1E293B">🏠 Home Deep Cleaning</text>
  <text x="45" y="375" font-family="Arial, sans-serif" font-size="11" fill="#64748B">⭐ 4.8 (320 reviews)</text>
  <text x="35" y="410" font-family="Arial, sans-serif" font-size="13" fill="#64748B">✅ Professional equipment</text>
  <text x="35" y="428" font-family="Arial, sans-serif" font-size="13" fill="#64748B">✅ Eco-friendly products</text>
  <rect x="35" y="440" width="100" height="28" rx="14" fill="url(#indigoGrad)"/>
  <text x="55" y="459" font-family="Arial, sans-serif" font-size="12" font-weight="bold" fill="#ffffff">$79 Book</text>
  <text x="170" y="459" font-family="Arial, sans-serif" font-size="12" fill="#6366F1">View details →</text>

  <rect x="278" y="320" width="245" height="155" rx="14" fill="url(#sbservice)" filter="url(#shadowSB)"/>
  <rect x="293" y="335" width="215" height="55" rx="8" fill="#EEF2FF"/>
  <text x="303" y="358" font-family="Arial, sans-serif" font-size="14" font-weight="bold" fill="#1E293B">🔧 Plumbing Repair</text>
  <text x="303" y="375" font-family="Arial, sans-serif" font-size="11" fill="#64748B">⭐ 4.7 (198 reviews)</text>
  <text x="293" y="410" font-family="Arial, sans-serif" font-size="13" fill="#64748B">✅ Licensed plumbers</text>
  <text x="293" y="428" font-family="Arial, sans-serif" font-size="13" fill="#64748B">✅ Same-day service</text>
  <rect x="293" y="440" width="100" height="28" rx="14" fill="url(#indigoGrad)"/>
  <text x="313" y="459" font-family="Arial, sans-serif" font-size="12" font-weight="bold" fill="#ffffff">$89 Book</text>
  <text x="428" y="459" font-family="Arial, sans-serif" font-size="12" fill="#6366F1">View details →</text>

  <rect x="536" y="320" width="245" height="155" rx="14" fill="url(#sbservice)" filter="url(#shadowSB)"/>
  <rect x="551" y="335" width="215" height="55" rx="8" fill="#EEF2FF"/>
  <text x="561" y="358" font-family="Arial, sans-serif" font-size="14" font-weight="bold" fill="#1E293B">🎨 Interior Painting</text>
  <text x="561" y="375" font-family="Arial, sans-serif" font-size="11" fill="#64748B">⭐ 4.9 (156 reviews)</text>
  <text x="551" y="410" font-family="Arial, sans-serif" font-size="13" fill="#64748B">✅ Premium paints</text>
  <text x="551" y="428" font-family="Arial, sans-serif" font-size="13" fill="#64748B">✅ Free consultation</text>
  <rect x="551" y="440" width="100" height="28" rx="14" fill="url(#indigoGrad)"/>
  <text x="571" y="459" font-family="Arial, sans-serif" font-size="12" font-weight="bold" fill="#ffffff">$199 Book</text>
  <text x="686" y="459" font-family="Arial, sans-serif" font-size="12" fill="#6366F1">View details →</text>
</svg>