<svg xmlns="http://www.w3.org/2000/svg" viewBox="0 0 800 500">
  <defs>
    <linearGradient id="bgSocial" x1="0%" y1="0%" x2="100%" y2="100%">
      <stop offset="0%" stop-color="#EC4899"/>
      <stop offset="50%" stop-color="#DB2777"/>
      <stop offset="100%" stop-color="#BE185D"/>
    </linearGradient>
    <linearGradient id="story1" x1="0%" y1="0%" x2="100%" y2="100%">
      <stop offset="0%" stop-color="#F472B6"/>
      <stop offset="100%" stop-color="#EC4899"/>
    </linearGradient>
    <linearGradient id="story2" x1="0%" y1="0%" x2="100%" y2="100%">
      <stop offset="0%" stop-color="#A855F7"/>
      <stop offset="100%" stop-color="#7C3AED"/>
    </linearGradient>
    <linearGradient id="story3" x1="0%" y1="0%" x2="100%" y2="100%">
      <stop offset="0%" stop-color="#FB923C"/>
      <stop offset="100%" stop-color="#EA580C"/>
    </linearGradient>
    <linearGradient id="postGrad" x1="0%" y1="0%" x2="0%" y2="100%">
      <stop offset="0%" stop-color="#FDF2F8"/>
      <stop offset="100%" stop-color="#FCE7F3"/>
    </linearGradient>
    <filter id="shadowSoc">
      <feDropShadow dx="0" dy="4" stdDeviation="10" flood-color="#00000020"/>
    </filter>
    <filter id="shadowSocSm">
      <feDropShadow dx="0" dy="2" stdDeviation="4" flood-color="#00000015"/>
    </filter>
  </defs>
  <rect width="800" height="500" fill="#FDF2F8" rx="12"/>
  <!-- Browser chrome -->
  <rect x="0" y="0" width="800" height="40" fill="#1E293B" rx="12"/>
  <rect x="0" y="24" width="800" height="16" fill="#1E293B"/>
  <circle cx="20" cy="20" r="6" fill="#EF4444"/>
  <circle cx="40" cy="20" r="6" fill="#F59E0B"/>
  <circle cx="60" cy="20" r="6" fill="#22C55E"/>
  <!-- Left sidebar - User info -->
  <rect x="0" y="40" width="220" height="460" fill="#ffffff" filter="url(#shadowSocSm)"/>
  <circle cx="110" cy="90" r="40" fill="url(#story1)"/>
  <circle cx="110" cy="90" r="36" fill="#ffffff"/>
  <circle cx="110" cy="90" r="33" fill="#FDF2F8"/>
  <text x="90" y="96" font-family="Arial, sans-serif" font-size="30" fill="#EC4899">👤</text>
  <text x="60" y="145" font-family="Arial, sans-serif" font-size="16" font-weight="bold" fill="#1E293B">Sarah Johnson</text>
  <text x="70" y="162" font-family="Arial, sans-serif" font-size="12" fill="#64748B">@sarahj</text>
  <rect x="40" y="180" width="140" height="1" fill="#FCE7F3"/>
  <text x="50" y="205" font-family="Arial, sans-serif" font-size="14" font-weight="bold" fill="#1E293B">842</text>
  <text x="50" y="220" font-family="Arial, sans-serif" font-size="11" fill="#64748B">Posts</text>
  <text x="120" y="205" font-family="Arial, sans-serif" font-size="14" font-weight="bold" fill="#1E293B">12.5K</text>
  <text x="110" y="220" font-family="Arial, sans-serif" font-size="11" fill="#64748B">Followers</text>
  <text x="50" y="255" font-family="Arial, sans-serif" font-size="13" font-weight="bold" fill="#1E293B">Trending Topics</text>
  <text x="50" y="280" font-family="Arial, sans-serif" font-size="13" fill="#EC4899">#design</text>
  <text x="50" y="300" font-family="Arial, sans-serif" font-size="13" fill="#64748B">#photography</text>
  <text x="50" y="320" font-family="Arial, sans-serif" font-size="13" fill="#64748B">#travel</text>
  <text x="50" y="340" font-family="Arial, sans-serif" font-size="13" fill="#64748B">#technology</text>
  <text x="50" y="360" font-family="Arial, sans-serif" font-size="13" fill="#64748B">#fashion</text>

  <!-- Main feed -->
  <!-- Story bar -->
  <rect x="230" y="50" width="560" height="90" rx="14" fill="#ffffff" filter="url(#shadowSoc)"/>
  <circle cx="275" cy="85" r="24" fill="url(#story1)"/>
  <circle cx="275" cy="85" r="21" fill="#ffffff"/>
  <circle cx="275" cy="85" r="18" fill="#FDF2F8"/>
  <text x="268" y="90" font-family="Arial, sans-serif" font-size="16" fill="#EC4899">👤</text>
  <text x="260" y="120" font-family="Arial, sans-serif" font-size="10" fill="#1E293B">Your Story</text>

  <circle cx="355" cy="85" r="22" fill="url(#story2)"/>
  <circle cx="355" cy="85" r="20" fill="#ffffff"/>
  <circle cx="355" cy="85" r="18" fill="#F5F3FF"/>
  <text x="349" y="90" font-family="Arial, sans-serif" font-size="14" fill="#A855F7">👤</text>
  <text x="345" y="120" font-family="Arial, sans-serif" font-size="10" fill="#1E293B">Mike</text>

  <circle cx="435" cy="85" r="22" fill="#EC4899"/>
  <circle cx="435" cy="85" r="20" fill="#ffffff"/>
  <circle cx="435" cy="85" r="18" fill="#FDF2F8"/>
  <text x="429" y="90" font-family="Arial, sans-serif" font-size="14" fill="#EC4899">👤</text>
  <text x="425" y="120" font-family="Arial, sans-serif" font-size="10" fill="#1E293B">Emma</text>

  <circle cx="515" cy="85" r="22" fill="url(#story3)"/>
  <circle cx="515" cy="85" r="20" fill="#ffffff"/>
  <circle cx="515" cy="85" r="18" fill="#FFF7ED"/>
  <text x="509" y="90" font-family="Arial, sans-serif" font-size="14" fill="#FB923C">👤</text>
  <text x="505" y="120" font-family="Arial, sans-serif" font-size="10" fill="#1E293B">Alex</text>

  <!-- Post 1 -->
  <rect x="230" y="155" width="560" height="170" rx="14" fill="#ffffff" filter="url(#shadowSoc)"/>
  <circle cx="260" cy="180" r="16" fill="#EC4899"/>
  <text x="254" y="185" font-family="Arial, sans-serif" font-size="12" font-weight="bold" fill="#ffffff">M</text>
  <text x="284" y="185" font-family="Arial, sans-serif" font-size="14" font-weight="bold" fill="#1E293B">Mike Chen</text>
  <text x="284" y="198" font-family="Arial, sans-serif" font-size="11" fill="#64748B">2h ago</text>
  <text x="250" y="225" font-family="Arial, sans-serif" font-size="13" fill="#334155">Just finished building this awesome new dashboard! 🚀 Check out the real-time data visualization features.</text>
  <rect x="245" y="240" width="520" height="55" rx="8" fill="#FDF2F8"/>
  <text x="260" y="262" font-family="Arial, sans-serif" font-size="14" font-weight="bold" fill="#EC4899">🔥 My new dashboard project</text>
  <text x="260" y="280" font-family="Arial, sans-serif" font-size="11" fill="#64748B">Built with React &amp; D3.js • 1.2K views</text>
  <rect x="245" y="305" width="520" height="1" fill="#FCE7F3"/>
  <text x="260" y="318" font-family="Arial, sans-serif" font-size="12" fill="#64748B">❤️ 234</text>
  <text x="350" y="318" font-family="Arial, sans-serif" font-size="12" fill="#64748B">💬 18</text>
  <text x="440" y="318" font-family="Arial, sans-serif" font-size="12" fill="#64748B">↗️ 45</text>

  <!-- Post 2 -->
  <rect x="230" y="340" width="560" height="140" rx="14" fill="#ffffff" filter="url(#shadowSoc)"/>
  <circle cx="260" cy="365" r="16" fill="#A855F7"/>
  <text x="254" y="370" font-family="Arial, sans-serif" font-size="12" font-weight="bold" fill="#ffffff">E</text>
  <text x="284" y="370" font-family="Arial, sans-serif" font-size="14" font-weight="bold" fill="#1E293B">Emma Williams</text>
  <text x="284" y="383" font-family="Arial, sans-serif" font-size="11" fill="#64748B">4h ago</text>
  <text x="250" y="408" font-family="Arial, sans-serif" font-size="13" fill="#334155">Great design thinking session today! Here are some key takeaways from our workshop about user-centered design. 🎨</text>
  <rect x="245" y="425" width="520" height="1" fill="#FCE7F3"/>
  <text x="260" y="440" font-family="Arial, sans-serif" font-size="12" fill="#64748B">❤️ 567</text>
  <text x="350" y="440" font-family="Arial, sans-serif" font-size="12" fill="#64748B">💬 42</text>
  <text x="440" y="440" font-family="Arial, sans-serif" font-size="12" fill="#64748B">↗️ 128</text>
</svg>