<svg xmlns="http://www.w3.org/2000/svg" viewBox="0 0 800 500" fill="none">
  <rect width="800" height="500" rx="12" fill="#1E293B"/>
  <rect x="0" y="0" width="800" height="60" fill="#0F172A" rx="12"/>
  <rect x="0" y="48" width="800" height="12" fill="#0F172A"/>
  <text x="24" y="36" fill="#F1F5F9" font-size="18" font-weight="800" font-family="Inter,sans-serif">SocialFlow</text>
  <text x="620" y="36" fill="#94A3B8" font-size="11">📊 Analytics</text>
  <text x="700" y="36" fill="#94A3B8" font-size="11">📅 Schedule</text>
  <text x="770" y="36" fill="#38BDF8" font-size="11" font-weight="600">+ New Post</text>
  <rect x="24" y="80" width="200" height="140" rx="10" fill="#1E293B" stroke="#334155" stroke-width="1"/>
  <text x="40" y="105" fill="#38BDF8" font-size="22" font-weight="800">12.4K</text>
  <text x="40" y="122" fill="#94A3B8" font-size="10">Followers</text>
  <text x="40" y="148" fill="#10B981" font-size="16" font-weight="700">+8.2%</text>
  <text x="40" y="165" fill="#94A3B8" font-size="10">vs last month</text>
  <text x="40" y="190" fill="#F1F5F9" font-size="11">🔥 Engagement rate: 4.8%</text>
  <rect x="245" y="80" width="200" height="140" rx="10" fill="#1E293B" stroke="#334155" stroke-width="1"/>
  <text x="260" y="105" fill="#38BDF8" font-size="22" font-weight="800">3,842</text>
  <text x="260" y="122" fill="#94A3B8" font-size="10">Post Reach</text>
  <text x="260" y="148" fill="#10B981" font-size="16" font-weight="700">+15.3%</text>
  <text x="260" y="165" fill="#94A3B8" font-size="10">vs last week</text>
  <text x="260" y="190" fill="#F1F5F9" font-size="11">📱 Highest on Instagram</text>
  <rect x="466" y="80" width="310" height="140" rx="10" fill="#1E293B" stroke="#334155" stroke-width="1"/>
  <text x="480" y="105" fill="#F1F5F9" font-size="13" font-weight="600">📱 Instagram Analytics</text>
  <rect x="480" y="120" width="100" height="40" rx="6" fill="#38BDF8" opacity="0.1"/>
  <text x="530" y="145" fill="#38BDF8" font-size="16" font-weight="700" text-anchor="middle">2.1K</text>
  <text x="530" y="155" fill="#94A3B8" font-size="7" text-anchor="middle">Likes</text>
  <rect x="595" y="120" width="100" height="40" rx="6" fill="#10B981" opacity="0.1"/>
  <text x="645" y="145" fill="#10B981" font-size="16" font-weight="700" text-anchor="middle">486</text>
  <text x="645" y="155" fill="#94A3B8" font-size="7" text-anchor="middle">Comments</text>
  <rect x="710" y="120" width="50" height="40" rx="6" fill="#F59E0B" opacity="0.1"/>
  <text x="735" y="145" fill="#F59E0B" font-size="16" font-weight="700" text-anchor="middle">890</text>
  <text x="735" y="155" fill="#94A3B8" font-size="7" text-anchor="middle">Shares</text>
  <rect x="24" y="240" width="400" height="240" rx="10" fill="#1E293B" stroke="#334155" stroke-width="1"/>
  <text x="40" y="265" fill="#F1F5F9" font-size="13" font-weight="600">📅 Recent Posts</text>
  <rect x="40" y="280" width="370" height="45" rx="6" fill="#334155" opacity="0.5"/>
  <text x="55" y="300" fill="#F1F5F9" font-size="11">🌟 New Product Launch!</text>
  <text x="55" y="315" fill="#94A3B8" font-size="9">Posted 2h ago • 1,230 impressions</text>
  <rect x="40" y="335" width="370" height="45" rx="6" fill="#334155" opacity="0.5"/>
  <text x="55" y="355" fill="#F1F5F9" font-size="11">💡 Tips & Tricks: How to...</text>
  <text x="55" y="370" fill="#94A3B8" font-size="9">Posted 5h ago • 890 impressions</text>
  <rect x="40" y="390" width="370" height="45" rx="6" fill="#334155" opacity="0.5"/>
  <text x="55" y="410" fill="#F1F5F9" font-size="11">🎉 Customer Spotlight: Client Story</text>
  <text x="55" y="425" fill="#94A3B8" font-size="9">Posted 1d ago • 2,100 impressions</text>
  <rect x="444" y="240" width="332" height="240" rx="10" fill="#1E293B" stroke="#334155" stroke-width="1"/>
  <text x="460" y="265" fill="#F1F5F9" font-size="13" font-weight="600">📈 Growth Trend</text>
  <rect x="460" y="280" width="300" height="100" rx="8" fill="#0F172A"/>
  <line x1="470" y1="360" x2="750" y2="360" stroke="#334155" stroke-width="1"/>
  <rect x="470" y="310" width="8" height="50" rx="4" fill="#38BDF8" opacity="0.6"/>
  <rect x="490" y="330" width="8" height="30" rx="4" fill="#38BDF8" opacity="0.6"/>
  <rect x="510" y="300" width="8" height="60" rx="4" fill="#38BDF8" opacity="0.6"/>
  <rect x="530" y="320" width="8" height="40" rx="4" fill="#38BDF8" opacity="0.6"/>
  <rect x="550" y="290" width="8" height="70" rx="4" fill="#38BDF8" opacity="0.6"/>
  <rect x="570" y="308" width="8" height="52" rx="4" fill="#38BDF8" opacity="0.6"/>
  <rect x="590" y="295" width="8" height="65" rx="4" fill="#38BDF8" opacity="0.6"/>
  <rect x="610" y="280" width="8" height="80" rx="4" fill="#38BDF8" opacity="0.6"/>
  <rect x="630" y="302" width="8" height="58" rx="4" fill="#38BDF8" opacity="0.6"/>
  <rect x="650" y="288" width="8" height="72" rx="4" fill="#38BDF8" opacity="0.6"/>
  <rect x="670" y="310" width="8" height="50" rx="4" fill="#38BDF8" opacity="0.6"/>
  <rect x="460" y="395" width="300" height="70" rx="8" fill="#334155" opacity="0.4"/>
  <text x="475" y="415" fill="#F1F5F9" font-size="11" font-weight="600">📊 Weekly Summary</text>
  <text x="475" y="433" fill="#94A3B8" font-size="10">Reach: ▲ 25% • Engagement: ▲ 18% • Followers: ▲ 12%</text>
  <text x="475" y="450" fill="#94A3B8" font-size="10">Best performing day: Wednesday • Best time: 6-8 PM</text>
</svg>