<svg xmlns="http://www.w3.org/2000/svg" viewBox="0 0 800 500" fill="none">
  <rect width="800" height="500" rx="8" fill="#FAFAFA"/>
  <rect x="0" y="0" width="800" height="55" fill="#FFF" stroke="#E5E7EB" stroke-width="1"/>
  <text x="30" y="35" fill="#111827" font-size="18" font-weight="800" font-family="Inter,sans-serif">✦ BrandName</text>
  <rect x="550" y="15" width="60" height="24" rx="4" fill="#F3F4F6"/>
  <text x="580" y="32" fill="#4B5563" font-size="10" text-anchor="middle">About</text>
  <rect x="620" y="15" width="60" height="24" rx="4" fill="#F3F4F6"/>
  <text x="650" y="32" fill="#4B5563" font-size="10" text-anchor="middle">Services</text>
  <rect x="690" y="15" width="80" height="24" rx="4" fill="#111827"/>
  <text x="730" y="32" fill="#FFF" font-size="10" font-weight="600" text-anchor="middle">Contact</text>
  <rect x="30" y="75" width="740" height="200" rx="12" fill="url(#wm1)"/>
  <defs><linearGradient id="wm1" x1="0" y1="0" x2="1" y2="1"><stop offset="0%" stop-color="#111827"/><stop offset="100%" stop-color="#374151"/></linearGradient></defs>
  <text x="400" y="150" fill="#FFF" font-size="34" font-weight="800" text-anchor="middle" font-family="Inter,sans-serif">Building Digital Solutions</text>
  <text x="400" y="182" fill="#D1D5DB" font-size="14" text-anchor="middle" font-family="Inter,sans-serif">We design and develop websites, apps, and digital experiences that grow your business.</text>
  <rect x="320" y="205" width="160" height="40" rx="20" fill="#3B82F6"/>
  <text x="400" y="231" fill="#FFF" font-size="12" font-weight="700" text-anchor="middle">Get Started →</text>
  <rect x="30" y="295" width="230" height="140" rx="10" fill="#FFF" stroke="#E5E7EB" stroke-width="1"/>
  <text x="55" y="325" fill="#3B82F6" font-size="14" font-weight="700">Web Development</text>
  <text x="55" y="348" fill="#6B7280" font-size="11">Responsive websites built</text>
  <text x="55" y="365" fill="#6B7280" font-size="11">with modern technology</text>
  <text x="55" y="390" fill="#111827" font-size="12" font-weight="600">Learn more →</text>
  <rect x="285" y="295" width="230" height="140" rx="10" fill="#FFF" stroke="#E5E7EB" stroke-width="1"/>
  <text x="310" y="325" fill="#3B82F6" font-size="14" font-weight="700">Mobile Apps</text>
  <text x="310" y="348" fill="#6B7280" font-size="11">Cross-platform mobile</text>
  <text x="310" y="365" fill="#6B7280" font-size="11">applications for iOS & Android</text>
  <text x="310" y="390" fill="#111827" font-size="12" font-weight="600">Learn more →</text>
  <rect x="540" y="295" width="230" height="140" rx="10" fill="#FFF" stroke="#E5E7EB" stroke-width="1"/>
  <text x="565" y="325" fill="#3B82F6" font-size="14" font-weight="700">Digital Marketing</text>
  <text x="565" y="348" fill="#6B7280" font-size="11">SEO, social media, and</text>
  <text x="565" y="365" fill="#6B7280" font-size="11">performance marketing</text>
  <text x="565" y="390" fill="#111827" font-size="12" font-weight="600">Learn more →</text>
  <rect x="30" y="452" width="740" height="35" rx="6" fill="#F9FAFB"/>
  <text x="400" y="474" fill="#9CA3AF" font-size="10" text-anchor="middle">© 2026 BrandName. All rights reserved.</text>
</svg>