<svg xmlns="http://www.w3.org/2000/svg" viewBox="0 0 800 500" fill="none">
  <rect width="800" height="500" rx="12" fill="#1E293B"/>
  <rect x="0" y="0" width="800" height="40" fill="#0F172A" rx="12"/>
  <rect x="0" y="28" width="800" height="12" fill="#0F172A"/>
  <circle cx="20" cy="20" r="6" fill="#EF4444"/>
  <circle cx="40" cy="20" r="6" fill="#F59E0B"/>
  <circle cx="60" cy="20" r="6" fill="#10B981"/>
  <rect x="120" y="10" width="180" height="20" rx="4" fill="#334155"/>
  <rect x="680" y="10" width="100" height="20" rx="4" fill="#334155"/>
  <rect x="40" y="55" width="180" height="30" rx="4" fill="#38BDF8" opacity="0.2"/>
  <text x="50" y="75" fill="#38BDF8" font-size="14" font-weight="700" font-family="Inter,sans-serif">LOGO</text>
  <rect x="320" y="65" width="60" height="14" rx="3" fill="#475569"/>
  <rect x="400" y="65" width="60" height="14" rx="3" fill="#475569"/>
  <rect x="480" y="65" width="60" height="14" rx="3" fill="#475569"/>
  <rect x="560" y="65" width="80" height="14" rx="3" fill="#475569"/>
  <rect x="670" y="60" width="90" height="24" rx="6" fill="#38BDF8" opacity="0.8"/>
  <text x="715" y="76" fill="#FFF" font-size="10" font-weight="600" text-anchor="middle">Get Started</text>
  <rect x="40" y="110" width="720" height="180" rx="8" fill="#334155"/>
  <text x="400" y="165" fill="#F1F5F9" font-size="28" font-weight="800" text-anchor="middle" font-family="Inter,sans-serif">Welcome to Your Digital Presence</text>
  <text x="400" y="195" fill="#94A3B8" font-size="14" text-anchor="middle" font-family="Inter,sans-serif">Modern websites, mobile apps, and digital solutions for your business growth.</text>
  <rect x="340" y="215" width="120" height="35" rx="8" fill="#38BDF8"/>
  <text x="400" y="238" fill="#FFF" font-size="12" font-weight="600" text-anchor="middle">Learn More</text>
  <rect x="40" y="310" width="230" height="120" rx="8" fill="#1E293B" stroke="#334155" stroke-width="1"/>
  <rect x="55" y="325" width="70" height="14" rx="3" fill="#38BDF8" opacity="0.3"/>
  <text x="55" y="358" fill="#F1F5F9" font-size="18" font-weight="700" font-family="Inter,sans-serif">Web Design</text>
  <text x="55" y="378" fill="#94A3B8" font-size="11">Responsive &amp; modern websites</text>
  <text x="55" y="395" fill="#94A3B8" font-size="11">that drive results.</text>
  <rect x="285" y="310" width="230" height="120" rx="8" fill="#1E293B" stroke="#334155" stroke-width="1"/>
  <rect x="300" y="325" width="70" height="14" rx="3" fill="#38BDF8" opacity="0.3"/>
  <text x="300" y="358" fill="#F1F5F9" font-size="18" font-weight="700" font-family="Inter,sans-serif">E-Commerce</text>
  <text x="300" y="378" fill="#94A3B8" font-size="11">Online stores with payment</text>
  <text x="300" y="395" fill="#94A3B8" font-size="11">gateway integration.</text>
  <rect x="530" y="310" width="230" height="120" rx="8" fill="#1E293B" stroke="#334155" stroke-width="1"/>
  <rect x="545" y="325" width="70" height="14" rx="3" fill="#38BDF8" opacity="0.3"/>
  <text x="545" y="358" fill="#F1F5F9" font-size="18" font-weight="700" font-family="Inter,sans-serif">SEO</text>
  <text x="545" y="378" fill="#94A3B8" font-size="11">Search engine optimization</text>
  <text x="545" y="395" fill="#94A3B8" font-size="11">to rank higher.</text>
  <rect x="40" y="448" width="720" height="36" rx="6" fill="#0F172A"/>
  <text x="400" y="470" fill="#64748B" font-size="10" text-anchor="middle">© 2026 All rights reserved. Built with care.</text>
</svg>